<?xml version="1.0" encoding="utf-8"?>
<!-- Generator: Adobe Illustrator 24.2.3, SVG Export Plug-In . SVG Version: 6.00 Build 0)  -->
<svg version="1.1" id="Слой_1" xmlns="http://www.w3.org/2000/svg" xmlns:xlink="http://www.w3.org/1999/xlink" x="0px" y="0px"
	 viewBox="0 0 150 150" style="enable-background:new 0 0 150 150;" xml:space="preserve">
<style type="text/css">
	.st0{fill:#024788;}
	.st1{fill:#E1EAF9;}
	.st2{fill:#C5DEF8;}
	.st3{fill:#8ADAF9;}
	.st4{fill:#2EBCF6;}
</style>
<g>
	<g>
		<circle class="st0" cx="75" cy="75" r="75"/>
	</g>
	<g>
		<path class="st1" d="M75,27.5c1.3,0,2.6,0.1,3.8,0.2V15.9c-1.3-0.1-2.5-0.1-3.8-0.1c-32.6,0-59.2,26.6-59.2,59.2
			c0,19.9,9.9,37.6,25.1,48.3c3.1,2.2,7.4,0.9,8.8-2.5c1-2.5,0.2-5.4-2-7C35.5,105.2,27.5,91,27.5,75C27.5,48.8,48.8,27.5,75,27.5z"
			/>
	</g>
	<g>
		<path class="st2" d="M75,15.8c-15.8,0-30.1,6.2-40.8,16.3c2.3-1.4,5.3-1.1,7.3,0.9c2.1,2.1,2.3,5.3,0.7,7.6
			c8.5-8.1,20.1-13.1,32.7-13.1c1.3,0,2.6,0.1,3.8,0.2V15.9C77.6,15.9,76.3,15.8,75,15.8z"/>
	</g>
	<g>
		<g>
			<path class="st1" d="M100.3,29.2c-1,2.5-0.2,5.4,2,7c12.2,8.6,20.1,22.8,20.1,38.8c0,26.2-21.3,47.5-47.5,47.5
				c-1.3,0-2.6-0.1-3.8-0.2v11.8c1.3,0.1,2.5,0.1,3.8,0.1c32.6,0,59.2-26.6,59.2-59.2c0-19.9-9.9-37.6-25.1-48.3
				C106,24.5,101.8,25.7,100.3,29.2L100.3,29.2z"/>
		</g>
	</g>
	<g>
		<path class="st2" d="M108.5,117c-2.1-2.1-2.3-5.3-0.7-7.6c-8.5,8.1-20.1,13.1-32.7,13.1c-1.3,0-2.6-0.1-3.8-0.2v11.8
			c1.3,0.1,2.5,0.1,3.8,0.1c15.8,0,30.1-6.2,40.8-16.3C113.5,119.2,110.4,118.9,108.5,117L108.5,117z"/>
	</g>
	<g>
		<path class="st1" d="M77.3,34c-0.1,1.4,1.6,2.2,2.7,1.3l11.5-10.4c1.3-1.2,1.4-3.2,0.2-4.5L81.4,8.9c-1-1.1-2.7-0.4-2.8,1L77.3,34
			z"/>
	</g>
	<g>
		<path class="st1" d="M72.7,116c0.1-1.4-1.6-2.2-2.7-1.3l-11.5,10.4c-1.3,1.2-1.4,3.2-0.2,4.5l10.4,11.5c1,1.1,2.7,0.4,2.8-1
			L72.7,116z"/>
	</g>
	<g>
		<path class="st3" d="M79.3,50.4c-2.4-2.3-6.2-2.3-8.5,0c-6,5.9-16.3,18.1-16.3,32c0,10.5,9.2,19,20.6,19s20.6-8.5,20.6-19
			C95.6,68.5,85.3,56.3,79.3,50.4z"/>
	</g>
	<g>
		<path class="st4" d="M68.3,82.4c0-12,7.7-22.7,13.6-29.2c-0.9-1-1.8-2-2.7-2.8c-2.4-2.3-6.2-2.3-8.5,0c-6,5.9-16.3,18.1-16.3,32
			c0,10.5,9.2,19,20.6,19c2.4,0,4.8-0.4,6.9-1.1C74,97.6,68.3,90.6,68.3,82.4L68.3,82.4z"/>
	</g>
</g>
</svg>
