<?xml version="1.0" encoding="utf-8"?>
<!-- Generator: Adobe Illustrator 24.2.3, SVG Export Plug-In . SVG Version: 6.00 Build 0)  -->
<svg version="1.1" id="Слой_1" xmlns="http://www.w3.org/2000/svg" xmlns:xlink="http://www.w3.org/1999/xlink" x="0px" y="0px"
	 viewBox="0 0 300 300" style="enable-background:new 0 0 300 300;" xml:space="preserve">
<style type="text/css">
	.st0{display:none;opacity:0.6;}
	.st1{display:inline;}
	.st2{fill:#DED4CF;}
	.st3{fill:#B3E5EE;}
	.st4{fill:#86D7E5;}
	.st5{fill:#EDF9FA;}
	.st6{opacity:0.65;fill:#89C5CD;}
	.st7{opacity:0.65;fill:#6EAAAD;}
	.st8{opacity:0.65;}
	.st9{fill:#323C6B;}
	.st10{opacity:0.65;fill:#323C6B;}
	.st11{opacity:0.65;fill:#FFFFFF;}
</style>
<g class="st0">
	<g class="st1">
		<g id="XMLID_185_">
			<g>
				<path class="st2" d="M274.4,141V152c0,2.2-1.8,4-4,4h-7.7c-0.2,0-0.4,0.2-0.5,0.4c-1.5,13.5-6.7,26-14.4,36.3
					c-0.1,0.2-0.1,0.5,0,0.6l5,5c1.6,1.6,1.6,4.1,0,5.7l-7.7,7.7c-1.6,1.6-4.1,1.6-5.7,0l-4.9-4.9c-0.2-0.2-0.4-0.2-0.6,0
					c-10.3,8.1-22.8,13.6-36.5,15.4c-0.2,0-0.4,0.2-0.4,0.5v6.6c0,2.2-1.8,4-4,4H182c-2.2,0-4-1.8-4-4v-6.6c0-0.2-0.2-0.4-0.4-0.5
					c-13.7-1.8-26.2-7.3-36.5-15.4c-0.2-0.1-0.5-0.1-0.6,0l-4.9,4.9c-1.6,1.6-4.1,1.6-5.7,0l-7.7-7.7c-1.6-1.6-1.6-4.1,0-5.7l5-5
					c0.2-0.2,0.2-0.4,0-0.6c-7.8-10.4-12.9-22.8-14.4-36.3c0-0.2-0.2-0.4-0.5-0.4h-7.7c-2.2,0-4-1.8-4-4V141c0-2.2,1.8-4,4-4h8.1
					c0.2,0,0.4-0.2,0.5-0.4c2-13.2,7.3-25.2,15.2-35.2c0.1-0.2,0.1-0.5,0-0.6l-6.2-6.2c-1.6-1.6-1.6-4.1,0-5.7l7.7-7.7
					c1.6-1.6,4.1-1.6,5.7,0l6.3,6.3c0.2,0.2,0.4,0.2,0.6,0c10-7.5,22-12.6,35.1-14.3c0.2,0,0.4-0.2,0.4-0.5v-9.2c0-2.2,1.8-4,4-4
					H193c2.2,0,4,1.8,4,4v9.2c0,0.2,0.2,0.4,0.4,0.5c13,1.7,25,6.8,35.1,14.3c0.2,0.1,0.4,0.1,0.6,0l6.3-6.3c1.6-1.6,4.1-1.6,5.7,0
					l7.7,7.7c1.6,1.6,1.6,4.1,0,5.7l-6.2,6.2c-0.2,0.2-0.2,0.4,0,0.6c7.9,10,13.2,22.1,15.2,35.2c0,0.2,0.2,0.4,0.5,0.4h8.1
					C272.6,137,274.4,138.8,274.4,141L274.4,141z M247,147.8c0-32.8-26.6-59.5-59.5-59.5S128,115,128,147.8s26.6,59.5,59.5,59.5
					S247,180.6,247,147.8z"/>
			</g>
		</g>
		<path class="st3" d="M227.5,154.9c0.1,22.1-17.7,40.1-39.8,40.2s-40.1-17.7-40.2-39.8c-0.1-17.4,24.7-43.4,35.2-53.6
			c2.6-2.5,6.6-2.5,9.2,0C202.5,111.7,227.5,137.5,227.5,154.9L227.5,154.9z"/>
		<path class="st4" d="M167,153.2c-0.1-14.6,17.3-35.2,29.1-47.5c-1.5-1.5-2.9-2.9-4.1-4.1c-2.6-2.5-6.6-2.5-9.2,0
			c-10.5,10.2-35.2,36.2-35.2,53.6c0.1,22.1,18.1,39.9,40.2,39.8c4.8,0,9.5-0.9,13.7-2.5C182,189.9,167,173.3,167,153.2L167,153.2z"
			/>
		<path class="st5" d="M188.7,123.9l-18.5,31.7c-0.4,0.6,0.1,1.4,0.8,1.4h13.5c0.5,0,1,0.4,1,1v20.3c0,1,1.4,1.3,1.8,0.4l15.8-31.5
			c0.3-0.6-0.1-1.4-0.9-1.4h-10.7c-0.5,0-1-0.4-1-0.9l-0.2-20.6C190.5,123.4,189.2,123.1,188.7,123.9L188.7,123.9z"/>
	</g>
	<g class="st1">
		<g>
			<path d="M193,236H182c-3.7,0-6.6-3-6.6-6.6v-4.7c-12.4-2-24.3-6.9-34.4-14.5l-3.5,3.5c-1.3,1.3-2.9,1.9-4.7,1.9s-3.4-0.7-4.7-1.9
				l-7.7-7.7c-2.6-2.6-2.6-6.8,0-9.4l3.7-3.7c-7.2-10.1-11.9-21.9-13.6-34.2h-5.8c-3.7,0-6.6-3-6.6-6.6V141c0-3.7,3-6.6,6.6-6.6h6.2
				c2.1-12,7-23.3,14.3-33.1l-4.8-4.8c-2.6-2.6-2.6-6.8,0-9.4l7.7-7.7c2.6-2.6,6.8-2.6,9.4,0l5,5c9.8-6.9,21.1-11.6,32.9-13.4v-7.3
				c0-3.7,3-6.6,6.6-6.6H193c3.7,0,6.6,3,6.6,6.6V71c3.7,0.6,7.4,1.4,11,2.6c1.4,0.4,2.2,1.9,1.7,3.3c-0.4,1.4-1.9,2.2-3.3,1.7
				c-3.9-1.2-8-2.1-12-2.6c-1.5-0.2-2.7-1.5-2.7-3.1v-9.2c0-0.8-0.6-1.4-1.4-1.4H182c-0.8,0-1.4,0.6-1.4,1.4v9.2
				c0,1.6-1.2,2.9-2.7,3.1c-12.2,1.6-23.9,6.4-33.8,13.8c-1.2,0.9-3,0.8-4.1-0.3l-6.3-6.3c-0.5-0.5-1.4-0.5-2,0l-7.7,7.7
				c-0.3,0.3-0.4,0.6-0.4,1s0.1,0.7,0.4,1l6.2,6.2c1.1,1.1,1.2,2.9,0.2,4.1c-7.8,9.9-12.8,21.6-14.7,34c-0.2,1.5-1.5,2.6-3.1,2.6
				h-8.1c-0.8,0-1.4,0.6-1.4,1.4V152c0,0.8,0.6,1.4,1.4,1.4h7.7c1.6,0,2.9,1.2,3.1,2.8c1.4,12.7,6.3,24.8,13.9,35.1
				c0.9,1.2,0.8,3-0.3,4.1l-5,5c-0.3,0.3-0.4,0.6-0.4,1c0,0.4,0.1,0.7,0.4,1l7.7,7.7c0.5,0.5,1.4,0.5,2,0l4.9-4.9
				c1.1-1.1,2.9-1.2,4.1-0.2c10.2,8,22.4,13.2,35.2,14.9c1.5,0.2,2.7,1.5,2.7,3.1v6.6c0,0.8,0.6,1.4,1.4,1.4H193
				c0.8,0,1.4-0.6,1.4-1.4v-6.6c0-1.6,1.2-2.9,2.7-3.1c12.8-1.7,25-6.8,35.2-14.9c1.2-1,3-0.9,4.1,0.2l4.9,4.9c0.5,0.5,1.4,0.5,2,0
				l7.7-7.7c0.3-0.3,0.4-0.6,0.4-1s-0.1-0.7-0.4-1l-5-5c-1.1-1.1-1.2-2.8-0.3-4.1c7.7-10.2,12.5-22.4,13.9-35.1
				c0.2-1.6,1.5-2.8,3.1-2.8h7.7c0.8,0,1.4-0.6,1.4-1.4V141c0-0.8-0.6-1.4-1.4-1.4h-8.1c-1.5,0-2.8-1.1-3.1-2.6
				c-1.8-12.4-6.9-24.1-14.7-34c-1-1.2-0.9-3,0.2-4.1l6.2-6.2c0.3-0.3,0.4-0.6,0.4-1c0-0.4-0.1-0.7-0.4-1l-7.7-7.7
				c-0.5-0.5-1.4-0.5-2,0l-6.3,6.3c-1.1,1.1-2.8,1.2-4.1,0.3c-3.7-2.7-7.6-5.1-11.7-7.1c-1.3-0.6-1.9-2.2-1.2-3.5
				c0.6-1.3,2.2-1.9,3.5-1.2c3.9,1.9,7.6,4.1,11.1,6.6l5-5c2.6-2.6,6.8-2.6,9.4,0l7.7,7.7c2.6,2.6,2.6,6.8,0,9.4l-4.8,4.8
				c7.3,9.8,12.2,21.1,14.3,33.1h6.2c3.7,0,6.6,3,6.6,6.6V152c0,3.7-3,6.6-6.6,6.6h-5.8c-1.7,12.3-6.4,24-13.6,34.2l3.7,3.7
				c2.6,2.6,2.6,6.8,0,9.4l-7.7,7.7c-1.3,1.3-2.9,1.9-4.7,1.9c-1.8,0-3.4-0.7-4.7-1.9l-3.5-3.5c-10.1,7.6-21.9,12.5-34.4,14.5v4.7
				C199.6,233,196.6,236,193,236L193,236z"/>
		</g>
		<g>
			<path d="M187.5,209.9c-34.2,0-62.1-27.9-62.1-62.1s27.9-62.1,62.1-62.1c15.5,0,30.3,5.7,41.8,16.2c11.4,10.4,18.5,24.5,20,39.7
				c0.1,1.4-0.9,2.7-2.4,2.9c-1.4,0.1-2.7-0.9-2.9-2.4c-1.4-13.9-7.9-26.9-18.3-36.3C215.3,96.2,201.7,91,187.5,91
				c-31.3,0-56.8,25.5-56.8,56.8s25.5,56.8,56.8,56.8c14.3,0,28-5.3,38.5-15c10.4-9.6,16.9-22.7,18.1-36.8c0.1-1.4,1.4-2.5,2.9-2.4
				c1.4,0.1,2.5,1.4,2.4,2.9c-1.4,15.4-8.4,29.7-19.8,40.2C218.1,204.1,203.1,209.9,187.5,209.9L187.5,209.9z"/>
		</g>
		<g>
			<path d="M187.5,197.7c-23.4,0-42.5-19-42.6-42.5c0-6.9,3.4-15.5,10.2-25.5c0.8-1.2,2.4-1.5,3.7-0.7c1.2,0.8,1.5,2.4,0.7,3.7
				c-6.2,9.2-9.3,16.7-9.3,22.5c0.1,20.5,16.8,37.2,37.4,37.2c0.1,0,0.1,0,0.2,0c20.6-0.1,37.3-16.9,37.2-37.5
				c-0.1-16.8-26.7-43.6-34.8-51.4c-1.6-1.5-4-1.5-5.5,0c-4.8,4.7-11.9,12-18.6,20.3c-0.9,1.1-2.6,1.3-3.7,0.4
				c-1.1-0.9-1.3-2.6-0.4-3.7c6.8-8.5,14.1-16,19-20.8c3.6-3.5,9.2-3.5,12.9-0.1c5.9,5.7,14.6,14.5,22,24.2
				c9.5,12.4,14.4,22.9,14.4,31c0.1,23.5-18.9,42.7-42.5,42.8C187.7,197.7,187.6,197.7,187.5,197.7L187.5,197.7z"/>
		</g>
		<g>
			<path d="M186.6,181.9c-0.3,0-0.6,0-0.8-0.1c-1.6-0.4-2.8-1.8-2.8-3.5v-18.7h-11.9c-1.3,0-2.5-0.7-3.1-1.8c-0.6-1.1-0.6-2.5,0-3.6
				l18.5-31.7c0.8-1.4,2.4-2.1,4-1.7c1.6,0.4,2.7,1.8,2.7,3.4l0.2,18.9h9.1c1.3,0,2.4,0.6,3.1,1.7c0.7,1.1,0.7,2.4,0.2,3.5
				l-15.8,31.5C189.1,181.2,187.9,181.9,186.6,181.9L186.6,181.9z M174,154.4h10.6c2,0,3.6,1.6,3.6,3.6v13.3l11.4-22.7h-8
				c-2,0-3.6-1.6-3.6-3.6l-0.1-14.5L174,154.4z M188.7,123.9L188.7,123.9L188.7,123.9z"/>
		</g>
	</g>
</g>
<path class="st6" d="M252.9,189.2c-0.2,1.5-0.5,3-0.8,4.5c-6.8,32.7-38.9,53.7-71.6,46.8c-28-5.9-48.1-30.6-48.1-59.2
	c0-33.4,60.5-126.3,60.5-126.3s8,12.3,18.2,29.6c1.4,2.3,2.8,4.8,4.2,7.3L252.9,189.2z"/>
<path class="st7" d="M215.4,92c-0.1-0.3-0.3-0.5-0.4-0.8c-1.2,0-2.4,0-3.5-0.1l35.4,91.9c-0.2,1.5-0.5,3-0.8,4.5
	c-6.8,32.7-38.9,53.6-71.5,46.8c-10.4-2.2-20.1-7.1-28-14.2c21.4,25.6,59.6,29,85.2,7.6c10.4-8.7,17.6-20.7,20.4-34
	c0.3-1.5,0.6-3,0.8-4.5L215.4,92z"/>
<path class="st7" d="M254.1,182.5l-32.5-84.3c-0.9-1.9-2.9-2.7-4.3-4.1c-1-1-1.8-2.2-2.6-3.4c-0.9-1.3-1.7-2.7-2.5-4.1
	c-12.7,22.4-26.7,50.3-26.7,64.4c0,25.9,21,46.9,46.9,46.9c7.1,0,14.2-1.6,20.6-4.7C253.6,189.7,254,186.1,254.1,182.5L254.1,182.5z
	"/>
<g class="st8">
	<path class="st9" d="M149.2,113.9c-0.2,0-0.5-0.1-0.7-0.2c-0.7-0.4-1-1.3-0.6-2c3-5.6,6.8-12.4,9.7-17.4l1.5-2.8
		c0.4-0.7,1.3-0.9,2-0.6c0.7,0.4,0.9,1.3,0.6,2l-1.5,2.8c-2.8,5-6.6,11.8-9.6,17.4C150.2,113.6,149.7,113.9,149.2,113.9L149.2,113.9
		z"/>
	<path class="st9" d="M163.5,88c-0.8,0-1.4-0.6-1.4-1.4c0-0.3,0.1-0.5,0.2-0.7l1.7-3c0.3-0.7,1.2-1,1.9-0.7c0.7,0.3,1,1.2,0.7,1.9
		c0,0.1-0.1,0.1-0.1,0.2l-1.7,3C164.5,87.7,164,88,163.5,88z"/>
	<path class="st9" d="M297,157.2c-0.1,0-0.2,0-0.3,0c-0.8-0.2-1.3-1-1.1-1.7c0,0,0,0,0,0c0.2-0.9,0.4-1.8,0.6-2.7
		c0.1-0.8,0.9-1.3,1.7-1.2c0.8,0.1,1.3,0.9,1.2,1.7c0,0,0,0,0,0.1c-0.2,0.9-0.4,1.9-0.6,2.8C298.3,156.7,297.7,157.2,297,157.2z"/>
	<path class="st9" d="M280.6,185.5c-0.8,0-1.4-0.6-1.4-1.4c0-0.4,0.2-0.8,0.5-1.1c6.2-6.4,11-13.9,14.2-22.2
		c0.2-0.8,1.1-1.2,1.8-0.9c0.8,0.2,1.2,1.1,0.9,1.8c0,0,0,0.1,0,0.1c-3.4,8.7-8.5,16.6-15,23.3C281.3,185.4,280.9,185.5,280.6,185.5
		L280.6,185.5z"/>
	<path class="st9" d="M192.9,243.3c-34.2,0-61.9-27.7-61.9-61.9c0-33.4,58.3-123.2,60.7-127.1c0.3-0.4,0.7-0.7,1.2-0.7
		c0.5,0,0.9,0.2,1.2,0.7c0.1,0.1,8.1,12.5,18.3,29.6l1.5,2.5c0.9,1.6,1.8,3.2,2.8,4.8l37.6,97.4c0.1,0.2,0.1,0.5,0.1,0.7
		c-0.2,1.6-0.5,3.1-0.8,4.6C247.5,222.7,222.2,243.2,192.9,243.3L192.9,243.3z M192.9,57.7c-8.5,13.3-59.1,93.6-59.1,123.6
		c0,32.6,26.4,59,59,59c27.9,0,52.1-19.6,57.8-46.9c0.3-1.4,0.5-2.7,0.7-4.1l-37.4-96.9c-0.8-1.4-1.8-3-2.7-4.6l-1.5-2.5
		C202.1,72.2,195.6,61.8,192.9,57.7L192.9,57.7z"/>
</g>
<path class="st6" d="M289.8,143.4c0,25.9-21,46.9-46.9,46.9c-25.9,0-46.9-21-46.9-46.9c0-25.9,46.9-98,46.9-98
	S289.8,117.4,289.8,143.4z"/>
<path class="st7" d="M242.8,45.4c0,0-2.8,4.3-7,11.2c10.8,17.2,43.5,70.9,43.5,92.6c0,15-7.2,29.1-19.3,37.9
	c17.9-7.1,29.8-24.4,29.8-43.6C289.8,117.4,242.8,45.4,242.8,45.4L242.8,45.4z"/>
<path class="st10" d="M242.8,191.7c-26.7,0-48.3-21.7-48.4-48.4c0-26.1,45.2-95.8,47.2-98.8c0.5-0.7,1.4-0.8,2.1-0.3
	c0.1,0.1,0.2,0.2,0.3,0.3c1.9,3,47.2,72.7,47.2,98.8C291.2,170.1,269.5,191.7,242.8,191.7L242.8,191.7z M242.8,48.1
	c-7.3,11.5-45.5,72.4-45.5,95.3c0.2,25.1,20.7,45.3,45.9,45.1c24.8-0.2,44.9-20.3,45.1-45.1C288.3,120.5,250.2,59.6,242.8,48.1
	L242.8,48.1z"/>
<path class="st11" d="M154.8,213.8c-0.6,0-1.1-0.3-1.5-0.7c-5.4-6.8-9-14.8-10.5-23.3c-0.2-1,0.4-2,1.5-2.2c1-0.2,2,0.4,2.2,1.5
	c0,0,0,0.1,0,0.1c1.4,7.9,4.8,15.3,9.8,21.6c0.6,0.8,0.5,2-0.3,2.6C155.6,213.7,155.2,213.8,154.8,213.8L154.8,213.8z"/>
<path class="st11" d="M143.8,182.4c-1,0-1.9-0.8-1.9-1.9c0-1.1,0.1-2.2,0.2-3.3c0.1-1,1-1.8,2.1-1.7c1,0.1,1.8,1,1.7,2.1
	c-0.1,1-0.2,1.9-0.2,2.9C145.6,181.5,144.8,182.4,143.8,182.4C143.8,182.4,143.8,182.4,143.8,182.4z"/>
</svg>
