<?xml version="1.0" encoding="utf-8"?>
<!-- Generator: Adobe Illustrator 24.2.3, SVG Export Plug-In . SVG Version: 6.00 Build 0)  -->
<svg version="1.1" id="Слой_1" xmlns="http://www.w3.org/2000/svg" xmlns:xlink="http://www.w3.org/1999/xlink" x="0px" y="0px"
	 viewBox="0 0 289 149" style="enable-background:new 0 0 289 149;" xml:space="preserve">
<style type="text/css">
	.st0{display:none;}
	.st1{display:inline;fill:#013927;}
	.st2{display:inline;}
	.st3{fill:#013927;}
	.st4{fill:#70C387;}
	.st5{fill:#FFECBD;}
	.st6{display:inline;fill:#A97C50;}
	.st7{fill:#A97C50;}
	.st8{fill:#FFC33A;}
	.st9{display:inline;fill:#F15C22;}
	.st10{display:inline;fill:#70C387;}
	.st11{fill:#DDDAEC;}
	.st12{fill-rule:evenodd;clip-rule:evenodd;fill:#F9F6F6;}
	.st13{fill-rule:evenodd;clip-rule:evenodd;fill:#9DC6FB;}
	.st14{fill-rule:evenodd;clip-rule:evenodd;fill:#80B4FB;}
	.st15{fill-rule:evenodd;clip-rule:evenodd;fill:#DDDAEC;}
	.st16{fill-rule:evenodd;clip-rule:evenodd;fill:#D09080;}
	.st17{fill:#CE775F;}
	.st18{fill:#9DC6FB;}
	.st19{fill-rule:evenodd;clip-rule:evenodd;fill:#A7E9A6;}
	.st20{fill-rule:evenodd;clip-rule:evenodd;fill:#7FDBAE;}
	.st21{fill:#26BB9E;}
	.st22{fill-rule:evenodd;clip-rule:evenodd;fill:#CE775F;}
	.st23{fill:#4FC9AF;}
	.st24{fill:#90E3F5;}
	.st25{fill:none;stroke:#000000;stroke-width:16;stroke-linejoin:round;}
	.st26{fill:#A7E9A6;}
	.st27{fill:#7FDBAE;}
	.st28{fill:#D09080;}
	.st29{fill:#F9AC78;}
	.st30{fill:#FFFFFF;}
	.st31{opacity:0.3;fill:#FAFCFC;enable-background:new    ;}
</style>
<g class="st0">
	<path class="st1" d="M174.1,103.4c0,0,3.4,3.1,3.3,10.1c0,0-0.5,11.8-12.3,15.5c-4.1,1.3-9.9,2.3-16.6-4.3L174.1,103.4z"/>
	<g class="st2">
		<g>
			<g>
				<path class="st3" d="M169.9,93.8c-2.5-2.9-5-4-5.1-4.1l0,0l0,0c-1.6-0.2-3.8-3.5-4.5-4.7l0,0c-0.7-1-1.6-1.5-2.5-1.5
					c-1.5,0-2.8,1.3-3.2,1.8c-0.8-0.3-1.6-1.1-1.7-1.1l0,0l0,0c-0.2-0.1-0.5-0.1-0.7-0.1c-1,0-2.1,1-3.2,2.8
					c-0.6,1.1-1.1,2.3-1.2,2.6c-1.7,1.1-3.5,1.6-5.4,1.6c-6.3,0-11.3-6.1-11.4-6.2v-0.1h-0.1c-2.2-0.8-4.2-1.2-5.9-1.2
					c-2.4,0-4.3,0.8-5.5,2.4c-1.5,1.9-2.2,4.7-2.1,8.5c0.1,2.8,0.6,5,0.6,5.1l0.1,0.5l0.4-0.3c0.2-0.1,0.3-0.2,0.6-0.4
					c0.4,1.1,1.1,2.8,2.4,3.6l0.3,0.2l1.9-4.7c0.4,0,0.8,0,1.2,0c0.4,1.4,1.1,3.6,1.9,4.5l0.2,0.2l0.2-0.1c0.1-0.1,2.5-1.5,3.1-4.2
					c0.9,0.1,1.8,0.2,2.7,0.4c0.3,1.4,0.7,3.2,1.4,3.8l0.2,0.2l0.2-0.1c0.1,0,1.7-1.1,2.4-3.1c1.2,0.2,2.3,0.5,3.6,0.8
					c0.3,1.4,0.7,3.1,1.4,3.6l0.2,0.2l0.2-0.1c0,0,1.3-1,1.9-2.8c0.1,0,0.2,0,0.2,0.1c-0.2,2.5-1.4,4.1-2.1,4.8
					c-0.7-0.8-1.7-1.7-2.4-1.9l-0.2-0.1l-0.1,0.2c0,0.1-0.7,1.4-0.5,3.3c-0.6,0.2-1.3,0.4-2.1,0.5c-0.7-1.3-1.3-2.2-1.8-2.4L135,106
					l-0.2,0.2c0,0-0.9,1.1-1,2.7c-0.9,0.1-1.9,0.1-3,0.1c-0.2,0-0.3,0-0.5,0c-0.5-1.2-0.9-1.9-1.3-2.1l-0.2-0.1l-0.2,0.2
					c0,0-0.7,0.7-1,2c-2.8-0.2-4.8-0.5-4.9-0.5h-0.2l-0.1,0.2c-2.4,5,3.3,9.9,3.5,10.1l0.2,0.1l0.2-0.1c1.2-0.7,2.6-1.1,4-1.1
					c2.2,0,4,0.8,4,0.8c6.8,3.8,12,5.6,15.2,6.6c3.5,1,5.3,1.1,5.4,1.1l0,0c9,0,13.9-4.7,16.4-8.7c2.8-4.3,3.4-8.5,3.4-8.7l0,0
					C174.9,101.2,172.2,96.5,169.9,93.8z"/>
				<path class="st4" d="M164.6,91.4c-2.9-0.5-5.6-5.1-5.6-5.1c-1.5-2.4-4,0.5-4,0.5c-0.4,0-1.8-0.7-2.4-1.1c-1.8-0.8-3,4.5-3,4.5
					c-1.2,1.8-5.7,2.3-5.7,2.3c9.4,0.3,9.7-4.7,9.7-4.7c0.1,1.8-0.9,2.8-1.6,3.4c-11.7,7.3-22.1-4.8-22.1-4.8
					c-13.5-4.8-10.7,11.3-10.7,11.3C122.1,94.4,141,99,141,99c10,2,18-1.1,18-1.1c3.7-2.9,5.2-0.8,5.2-0.8c-2.7-0.5-2.8,1.2-2.8,1.2
					c1.1,2,0.7,7.2,0.7,7.2c-3.6,14-31.5,7.4-31.5,7.4c-3.7-0.6-6.5-2.9-6.5-2.9c-1.1,2.9,2.3,6.9,2.3,6.9c0.6-1.1,1.9-1.4,3.5-1.3
					l0,0l0,0c1,0,2,0.3,3,0.5c1.8,0.3,4.3,0.8,6.5,1.2c0,0,3.7,0.5,6.7,0c0,0-4.6,1.6-8.9,0.4c7.4,5.4,18.2,6.5,18.2,6.5
					c15.3-0.5,17.5-15.2,17.5-15.2C173,95.7,164.6,91.4,164.6,91.4z"/>
				<path class="st4" d="M145.9,101.5c0,0,0.4,6.7-7.7,8c0,0-8,1.4-14.1,0.4c0,0,0.8,1.1,1.4,1.3c0,0,6.1,0.3,12.9-0.9
					C138.3,110.3,146.4,109.2,145.9,101.5z"/>
				<path class="st5" d="M148,101.1c0,0,1.2,3.7,1.2,4.6c0,0,1.7-1.8,2.2-4.9L148,101.1z"/>
				<path class="st5" d="M154.2,100.2c0,0,1,2.7,1.1,3.3c0,0,1.2-1.3,1.5-3.7L154.2,100.2z"/>
				<path class="st5" d="M157.4,110.4c0,0,0.7-2.8,0.8-4.1c0,0,1.2,0.5,1.8,1.8C159.9,108,158.8,110,157.4,110.4z"/>
				<path class="st5" d="M150.4,112.5c-0.2,0,0.6-2.4,1.1-3.4c0,0,1.8,1.7,2,2.9C153.4,112.1,152.6,112.8,150.4,112.5z"/>
				<path class="st5" d="M143.1,113.1c-0.1,0,0.7-1.8,1.1-2.6c0,0,1.3,1.5,1.4,2.5C145.6,112.9,144.9,113.4,143.1,113.1z"/>
				<path class="st5" d="M136.6,113.1c-0.1,0,0.6-1.6,0.9-2.2c0,0,1.1,1.3,1.2,2.1C138.6,113,138.1,113.4,136.6,113.1z"/>
				<path class="st3" d="M130.7,108.9c-0.7,0.8-1.6,2.9-1.6,2.9s2,1.3,3.1,0.5C132.2,112.3,132,110.1,130.7,108.9z"/>
				<path class="st5" d="M129.8,112c-0.1,0,0.5-1.3,1-1.8c0,0,1,1.4,0.8,2.1C131.6,112.3,131,112.5,129.8,112z"/>
				<path class="st5" d="M120.5,98.2c0,0,0,2.1,0.7,3.1l1.3-3.2C122.4,98.1,121,98.1,120.5,98.2z"/>
				<path class="st5" d="M126.1,98.1c0,0,0.3,2.2,0.8,3.4c0,0,1.5-1.1,1.8-3.2L126.1,98.1z"/>
				<path class="st5" d="M133.9,98.8c0,0,0.2,1.7,0.7,3c0,0,1-0.8,1.4-2.6L133.9,98.8z"/>
				<path class="st5" d="M141.4,100.2c0,0,0.2,1.6,0.7,2.8c0,0,0.8-0.9,1.1-2.5L141.4,100.2z"/>
				<path class="st3" d="M156.1,91.9c0.5-0.3,1-1.1,1.2-2c0.2-1.3-0.2-2.5-1-2.7l0,0c0.7-0.4,1.4,0,1.4,0c-1.6-2-2.9,1.1-2.9,1.1
					l0,0c-0.2,0.3-0.3,0.7-0.4,1.1c-0.1,0.7,0,1.4,0.2,1.9c0.3,0.7,1,1.8,2.8,0.6C157.3,91.8,156.7,92,156.1,91.9z"/>
				<path class="st3" d="M151.7,86.3c0.4,0.3,0.5,0.6,0.6,1c-0.1-0.1-0.2-0.1-0.3-0.2c-0.6-0.2-1.4,0.5-1.7,1.5
					c-0.3,0.9-0.1,1.7,0.3,2.1c-0.2,0-0.4-0.1-0.6-0.3c0,0,0.5,0.9,1.5,0.4c0.1-0.1,0.2-0.1,0.4-0.2l0,0l0,0
					c0.3-0.3,0.6-0.7,0.7-1.2c0.1-0.3,0.1-0.6,0.1-0.8l0,0C153.2,86.3,151.7,86.3,151.7,86.3z"/>
				<path class="st3" d="M165.5,103.6c0,0,0.4,9-8,11C157.6,114.6,164.3,111.3,165.5,103.6z"/>
				<ellipse transform="matrix(0.1709 -0.9853 0.9853 0.1709 12.8242 194.943)" class="st3" cx="122.2" cy="89.9" rx="1.6" ry="1"/>
				<path class="st3" d="M127.4,90.2c-0.2,1.1-0.8,1.8-1.5,1.7c-0.6-0.1-1-1.1-0.8-2.1c0.2-1.1,0.8-1.8,1.5-1.7
					C127.3,88.2,127.6,89.2,127.4,90.2z"/>
				<path class="st3" d="M120.7,91.7c0,0,0,0.9,1.1,1c0.8,0.1,1.2-0.5,1.3-1.2c0,0-0.5,1-1.3,0.9C121.5,92.5,121.1,92.5,120.7,91.7z
					"/>
				<path class="st3" d="M125.1,92.1c0,0,0,0.9,1.1,1c0.8,0.1,1.2-0.5,1.3-1.2c0,0-0.5,1-1.3,0.9C125.9,92.8,125.5,92.9,125.1,92.1z
					"/>
				<path class="st5" d="M156.4,89.9c-0.1,0.8-0.5,1.5-0.8,1.4c-0.4,0-0.6-0.7-0.5-1.6c0.1-0.8,0.5-1.5,0.8-1.4
					C156.3,88.3,156.5,89,156.4,89.9z"/>
				<path class="st5" d="M151.9,89.3c-0.2,0.7-0.6,1.3-0.9,1.2c-0.3-0.1-0.4-0.7-0.2-1.5c0.2-0.7,0.6-1.3,0.9-1.2
					C152,87.9,152.1,88.5,151.9,89.3z"/>
			</g>
			<ellipse transform="matrix(0.1841 -0.9829 0.9829 0.1841 35.1452 221.6377)" class="st3" cx="151.1" cy="89.6" rx="1" ry="0.6"/>
			<path class="st3" d="M156,90.4c0,0.6-0.3,1.2-0.7,1.1c-0.3,0-0.6-0.6-0.6-1.2s0.3-1.2,0.7-1.1C155.8,89.2,156.1,89.8,156,90.4z"
				/>
		</g>
		<g>
			<path class="st3" d="M161.6,93.2c0.6-0.1,1.1,0,1.6,0.1s1,0.3,1.6,0.7c0,0,0.1,0.1,0.2,0.1c0.1,0,0.1,0.1,0.2,0.1
				c0.1,0.1,0.2,0.1,0.3,0.2c0,0,0.1,0.1,0.2,0.1c0.1,0,0.1,0.1,0.2,0.2c0,0,0.1,0.1,0.2,0.2l0.1,0.1l0.1,0.1
				c0.1,0.1,0.1,0.1,0.1,0.2l0.1,0.1c0,0,0,0,0,0.1c0,0,0.1,0.1,0.1,0.2s0.1,0.1,0.1,0.2s0.1,0.1,0.1,0.2c0.1,0.2,0.2,0.4,0.3,0.6
				c0,0.1,0.1,0.2,0.1,0.3s0.1,0.2,0.1,0.2s0,0.1,0.1,0.2c0,0.1,0,0.1,0.1,0.2c0,0.1,0.1,0.2,0.1,0.3c0.2,0.6,0.3,1.2,0.4,1.7
				s0.1,1,0,1.6c0.1-0.6,0.3-1.1,0.4-1.6c0.1-0.5,0.2-1.1,0-1.9c0-0.1,0-0.2-0.1-0.3s-0.1-0.3-0.1-0.5c0-0.1,0-0.2-0.1-0.3
				c0-0.1-0.1-0.2-0.1-0.3c-0.1-0.2-0.2-0.5-0.4-0.7c0-0.1-0.1-0.1-0.1-0.2c-0.1-0.1-0.1-0.2-0.2-0.2c0-0.1-0.1-0.1-0.1-0.2
				l-0.1-0.1c0,0,0,0-0.1-0.1c0,0-0.1-0.1-0.2-0.2c-0.1-0.1-0.1-0.2-0.2-0.2c-0.1-0.1-0.1-0.1-0.2-0.2c-0.1-0.1-0.2-0.1-0.2-0.2
				c-0.1,0-0.2-0.1-0.2-0.1c-0.1-0.1-0.3-0.2-0.4-0.2c-0.1-0.1-0.2-0.1-0.3-0.1s-0.1-0.1-0.2-0.1c-0.7-0.3-1.3-0.3-1.9-0.3
				C162.7,93,162.2,93.1,161.6,93.2z"/>
		</g>
		<g>
			<path class="st3" d="M158.8,117.6c0.3-0.1,0.6-0.1,0.8-0.2c0.1,0,0.3-0.1,0.4-0.1c0.1,0,0.3-0.1,0.4-0.1c0.3-0.1,0.5-0.1,0.8-0.3
				c0.1,0,0.3-0.1,0.4-0.2c0.1-0.1,0.3-0.1,0.5-0.2c0.1-0.1,0.3-0.1,0.5-0.3c0.1-0.1,0.2-0.1,0.4-0.2c0.1-0.1,0.3-0.2,0.5-0.3
				c0.1-0.1,0.3-0.2,0.5-0.4c0.1-0.1,0.3-0.2,0.3-0.2s0.1-0.1,0.2-0.2c0.1-0.1,0.3-0.3,0.4-0.4c0.2-0.2,0.4-0.4,0.5-0.6
				c0.1-0.1,0.1-0.2,0.2-0.2c0.1-0.1,0.1-0.2,0.2-0.2c0.1-0.1,0.2-0.3,0.3-0.4s0.1-0.2,0.2-0.3c0.1-0.1,0.2-0.3,0.3-0.4
				s0.1-0.3,0.2-0.4c0.1-0.3,0.2-0.5,0.3-0.8c0-0.1,0-0.1,0.1-0.2c0-0.1,0-0.1,0.1-0.2c0-0.1,0.1-0.3,0.1-0.4
				c0.1-0.3,0.2-0.5,0.3-0.8c0,0.1-0.1,0.3-0.2,0.4c-0.1,0.1-0.1,0.2-0.2,0.4c-0.1,0.1-0.1,0.2-0.2,0.3c0,0-0.1,0.1-0.1,0.2
				l-0.1,0.1c-0.2,0.2-0.3,0.4-0.5,0.6c-0.1,0.1-0.2,0.2-0.3,0.3c-0.1,0.1-0.2,0.2-0.3,0.4c0,0.1-0.1,0.1-0.2,0.2
				c-0.1,0.1-0.2,0.2-0.3,0.3c-0.1,0.1-0.1,0.1-0.2,0.2c-0.1,0.1-0.1,0.1-0.2,0.2c-0.1,0.1-0.3,0.3-0.5,0.5
				c-0.1,0.1-0.3,0.2-0.4,0.4c-0.1,0.1-0.2,0.2-0.2,0.2s-0.1,0.1-0.3,0.2c-0.1,0.1-0.3,0.3-0.4,0.3c-0.1,0.1-0.3,0.2-0.4,0.3
				c-0.1,0.1-0.2,0.2-0.3,0.2c-0.1,0.1-0.2,0.1-0.2,0.2c-0.1,0-0.1,0.1-0.2,0.1c-0.1,0.1-0.3,0.2-0.4,0.3c-0.1,0.1-0.3,0.2-0.4,0.3
				c-0.2,0.2-0.5,0.3-0.7,0.5c-0.1,0.1-0.2,0.1-0.3,0.2s-0.2,0.1-0.3,0.2C159.3,117.4,159,117.5,158.8,117.6z"/>
		</g>
		<g>
			<path class="st3" d="M162.6,119c0.2-0.1,0.5,0,0.8-0.1c0.1,0,0.3-0.1,0.5-0.1c0.1,0,0.2-0.1,0.3-0.1s0.2-0.1,0.3-0.2l0.1-0.1
				l0.1-0.1c0.1-0.1,0.2-0.1,0.2-0.2c0.1-0.1,0.2-0.2,0.2-0.2s0.1-0.1,0.2-0.2c0.1-0.1,0.3-0.3,0.4-0.5c0.1-0.1,0.1-0.2,0.2-0.3
				c0.1-0.1,0.1-0.2,0.2-0.3c0.1-0.2,0.2-0.3,0.2-0.4c0.1-0.3,0.1-0.5,0.2-0.7c-0.1,0.1-0.2,0.2-0.3,0.2c-0.1,0.1-0.2,0.1-0.3,0.2
				c-0.1,0-0.2,0.1-0.4,0.3c-0.1,0.1-0.3,0.3-0.5,0.4s-0.3,0.3-0.4,0.4c-0.1,0.1-0.2,0.2-0.2,0.2s-0.1,0.1-0.2,0.2
				c-0.1,0-0.1,0.1-0.2,0.2l-0.1,0.1l-0.1,0.1c-0.1,0.1-0.2,0.1-0.2,0.2c-0.1,0.1-0.2,0.1-0.2,0.2c-0.1,0.1-0.3,0.2-0.3,0.3
				c-0.1,0.1-0.2,0.2-0.3,0.3C162.8,118.9,162.7,119,162.6,119z"/>
		</g>
		<g>
			<path class="st3" d="M129.5,85.8c0.3,0.1,0.5,0.2,0.7,0.4c0.1,0.1,0.2,0.2,0.3,0.3c0.1,0.1,0.2,0.2,0.2,0.3
				c0.2,0.2,0.3,0.4,0.4,0.7c0.1,0.2,0.3,0.5,0.4,0.8c0,0,0,0.1,0.1,0.2c0,0.1,0.1,0.2,0.1,0.3c0,0.1,0.1,0.2,0.1,0.4
				c0,0.1,0.1,0.3,0.2,0.5v0.1c0,0,0,0,0,0.1c0,0,0,0,0,0.1c0.3,0.9,0.4,1.6,0.5,2c0.1,0.7,0.3,1.2,0.4,1.7c0.1,0.5,0.2,1,0.1,1.6
				c0.1-0.6,0.2-1.1,0.2-1.6c0.1-0.5,0.1-1.1,0.1-1.8c0-0.4-0.1-1.2-0.4-2.1c0,0,0,0,0-0.1v-0.1c0,0,0-0.1,0-0.2
				c-0.1-0.2-0.1-0.4-0.2-0.5c-0.1-0.1-0.1-0.3-0.2-0.4c0-0.1-0.1-0.2-0.1-0.3c0-0.1-0.1-0.1-0.1-0.2c-0.2-0.3-0.4-0.6-0.6-0.8
				c-0.2-0.2-0.4-0.4-0.7-0.6C130.6,86.1,130.1,85.9,129.5,85.8z"/>
		</g>
	</g>
	<path class="st6" d="M174.7,107.1c0,0,0.3,9.5-8,15.3c0,0-8.6,5.7-14.8,3.2c0,0,7.3,5.8,15.6,0
		C171.5,122.8,178.4,116.8,174.7,107.1z"/>
</g>
<g class="st0">
	<g class="st2">
		<path class="st3" d="M141.3,20.6c-0.3,1.1-2.1,7-3.9,8.6c-0.1,0.1-0.1,0.1-0.2,0.1c-0.6,0-3.2,0.1-4,2.1l0,0
			c-0.2,0.4-4,6.6-7.4,8.8c-0.1,0.1-0.2,0.2-0.2,0.3c-0.1,2,1.4,21.6,25.5,28.1c0.1,0,0.1,0,0.2,0c1.6-0.4,20.9-5.8,20.9-29.9
			c-2.8-1.1-7.3-4.3-9.9-10c0-0.1-0.1-0.2-0.2-0.2l-1.9-0.6c-0.1,0-0.2-0.1-0.2-0.3l-1.1-6c0,0,0,0,0-0.1c-0.2-0.5-3-6.5-17.3-1.3
			C141.4,20.4,141.3,20.5,141.3,20.6z"/>
		<path class="st7" d="M142.7,21.7c-0.4,1.1-2.9,8-5.9,11.5c-0.1,0.1-0.1,0.2-0.1,0.3c0.3,1.2,2,8.6,4.9,10.9c0.1,0.1,0.3,0.1,0.5,0
			c1.2-1.3,7.4-7.9,8.5-10c0-0.1,0-0.2,0-0.3c-0.8-1.1-5.2-7.3-5.9-11l0,0l-0.1-1l0,0v-0.6c0-0.2-0.2-0.4-0.5-0.3l-1.2,0.5
			C142.8,21.5,142.7,21.6,142.7,21.7z"/>
		<path class="st7" d="M157.7,25.7c-1.2,2-3.9,6.2-6,7.9c-0.1,0.1-0.2,0.3-0.1,0.4l6.4,11.4c0.1,0.3,0.5,0.2,0.6,0
			c0.7-1.8,2.4-6.9,2.7-10.8c0,0,0-0.1,0-0.2l-2.2-5.6c0,0,0-0.1-0.1-0.1c-0.1-0.2-0.6-0.8-0.7-2.8
			C158.3,25.5,157.8,25.4,157.7,25.7z"/>
		<path class="st7" d="M136,31.1c-0.6,0.1-1.6,0.6-1.9,1.9c0,0,0,0.1-0.1,0.1c-0.5,0.7-5.1,7-6.5,8.3c-0.1,0.1-0.1,0.2-0.1,0.3
			c0.1,1.7,1.3,17.1,23.4,25.4c0.1,0,0.1,0,0.2,0c1.5-0.3,18.1-5.7,19.3-27.1c0,0-6.4-2.3-9-10c0-0.1-0.2-0.2-0.3-0.2l0,0
			c-0.2,0-0.4,0.3-0.3,0.5l1.9,4.4c0,0,0,0.1,0,0.2c-0.1,0.9-0.9,8.8-2.8,12.9c0,0-3.1,7.9-6.3,11.6c-0.1,0.1-0.3,0.1-0.4,0.1
			c-1.8-0.8-13.5-6.7-17.6-24.6v-0.1l0.2-1.7V33l0.6-1.1C136.5,31.3,136.3,31,136,31.1z"/>
		<path class="st8" d="M150.3,37c-1.2,1.7-6,8-7.3,9c-0.1,0.1-0.2,0.3-0.1,0.4c0.5,1.3,3.1,7,10,11c0.1,0.1,0.3,0,0.4-0.1
			c0.9-1.1,4.6-6.1,4.7-8.9c0-0.1,0-0.1,0-0.2L151,37C150.7,36.8,150.4,36.8,150.3,37z"/>
	</g>
	<g class="st2">
		<g>
			<path class="st3" d="M166.8,12.1c-0.5-1.1-1.7-1.8-3.3-2.1l0,0c0,0-0.7,0-1.7,0s-2.5,0-3.9,0.2c0-0.1-0.1-0.3,0-0.6
				c0.1-0.2,0.2-0.6,0.1-0.9c-0.3-0.7-1.4-1-3.3-1c-0.4,0-0.9,0-1.5,0l0,0c-0.2,0-5.8,0.8-7.7,2c-0.6-0.6-3.2-2.9-6-2.9
				c-0.2,0-0.5,0-0.7,0l0,0l0,0c-0.1,0-1.5,0.6-1.7,1.8c-0.1,0.6,0.1,1.1,0.6,1.7c-0.1,0.2-0.4,0.6-1.1,0.6c0,0-0.2,0-0.3,0
				c-0.9,0-3.8,0.2-4.5,2.8c0,0-0.6,2.8,1.3,4.3c-0.1,0.1-0.4,0.4-1,0.4l0,0c-0.1,0-3.6,0.5-4.2,2l0,0c0,0-1.2,5.6,3.9,8.4h0.1h0.1
				c0.4-0.1,0.8-0.2,1.3-0.2c0.4,0,0.8,0,0.9,0.1c0.1,0,0.1,0,0.1,0l0,0c0.2,0.1,1.3,0.3,1.9,0.9c0.1,0.4,0.4,2.4,1.4,4.8
				c1.9,4.5,4.6,6.8,6.6,7.9c1.1,0.6,5.5,1.5,5.6,1.5l0,0l0,0c0.1,0,1.7-0.3,4.3-1.6c5.9-3,10.4-12.8,10.8-21.7
				c0.1-0.4,0.5-2.2,1.2-3.2l0,0C166.2,17.4,167.8,14.3,166.8,12.1z"/>
			<path class="st4" d="M163.9,11.6c0,0-3.1-0.5-6.9-0.2c0,0-0.6-0.8-0.4-1.6c0,0-0.2-2.2-11.1,1.5l-0.3,0.2l-0.4-0.4
				c0,0-2.7-3-5.6-2.5c0,0-1.4,0,0,1.8c0,0-0.1,1.5-1.1,1.7c0,0-0.9,0.3-1.3,0.1c0,0-4.2-0.6-3.6,3.6c0,0,0.3,1,1.3,2.1l0.3,0.4
				l-0.6,0.5c0,0,1.8,0.4,2.4,0c0,0,0.2-0.1,0.6-0.3c-1.1-0.7-0.5-2.9-0.5-2.9c0.5-1.1-1-1.3-1-1.3c1.7-0.2,1.8,1.3,1.8,1.3
				c-0.6,1.8,0,2.3,0.3,2.5c1.2-0.8,3.2-2.1,6.2-4.3c-1.9,2.4-6,4.6-7,5.7c0,0,4.1,0.3,5.1,1.9c0,0,1.8,2.8-1.3,5.4
				c0,0,2-2.6,0.9-4.9c0,0,0-0.1-0.2-0.2c0.2,0.5,0.5,1.6-0.4,2.6c0,0-0.8,0.9-2.9,1c0,0,2.4-0.3,2.8-1.5c0,0,0.8-1.5-0.3-2.5
				c-1-0.4-3-1-6.8-1.3c0,0-4,0.3-4.7,1.4c0,0-0.8,3,2.6,6.3c0,0,3.1,0.1,4.1,0.5c0,0,3.5,1.1,6.4-0.6l2.5-3.1c0,0,1.4-2,3-2.5
				c0,0-0.9,0.8-1.6,1.8c0.4-0.1,0.8-0.2,1.3-0.3c2.9-0.7,7.2-3.1,9.8-7c-0.2-0.5-0.6-0.8-1.1-0.8c0,0,2.5-1.2,1.5,3.9
				c0,0,0.1-1.5-0.2-2.6c-2.7,5.1-9.2,7.6-11.9,8.2c-2.4,3.7-5.1,4.8-7.9,4.5c0,0,1.5,0.7,3.8,1.2c1.2-0.2,3.1-1,4.6-3.7
				c0,0-0.2,2.8-3,4c3.7,0.4,8.7-0.1,12.8-4.3l7.5-7.4c0,0,0.7-2,1.3-3C164.8,16.1,167.1,12.2,163.9,11.6z"/>
			<path class="st3" d="M146.7,12.4c5.5,2.5,7.9,0.3,7.9,0.3c-1.5,0.7-3.8,0.3-5.3,0c2.2,0,4-0.3,4-0.3c1.9-0.4,0.7-1.8,0.7-1.8
				c1.1-0.4,1.1,0.5,1.1,0.5v-0.7C153.9,8.4,146.7,12.4,146.7,12.4z"/>
			<path class="st3" d="M139.9,9.8c0.6,0,1,0.6,1,0.6c-0.3,0.1-0.3,0.5-0.3,0.5c0.1,0.9,0.7,1.3,1.3,1.4c-0.6,0-1.2-0.2-1.7-0.8
				c0,0,1.4,2.2,3.8,0.7C140.6,8.5,139.9,9.8,139.9,9.8z"/>
			<path class="st3" d="M130.9,20.9c0,0,1.8-1.2,1.5,1.9l-0.3,1.8C132,24.5,129.1,22,130.9,20.9z"/>
			<path class="st3" d="M135.8,24.5c0,0,1-4,2.9-3.1c0.4,0.2,1,0.8,0.6,1.7C139.2,23.2,138.4,24.6,135.8,24.5z"/>
			<path class="st4" d="M163.3,21.2c0,0-4.9,4.2-7.7,7c0,0-6.1,6.8-17.6,2.4c0,0,1.4,7.8,6.6,10.4c-1.8-2.6-2.1-7.7-2.1-7.7
				c1.2,4.8,2.7,7.3,3.3,8.2c0.6,0.2,2,0.7,3.4,1c0,0,1.3,0,3.2-0.9c3.6-4,4.6-11.3,4.6-11.3c0,5.1-1.4,8.4-2.4,10
				c2.1-1.5,3.3-2.6,5.3-6.7C161.3,31.1,162.9,27,163.3,21.2z"/>
			<path class="st5" d="M141.4,10.7c0,0,1,0.6,1.5,1.4C142.9,12.1,140.5,11.8,141.4,10.7z"/>
			<path class="st5" d="M148.4,12.1c0,0,3.7-1.8,4.8-1.4c0,0,0.6,0.3,0.5,1C153.7,11.7,152.5,12.3,148.4,12.1z"/>
			<ellipse class="st3" cx="151.7" cy="11.4" rx="0.8" ry="1"/>
			<ellipse class="st3" cx="142.1" cy="11.6" rx="0.5" ry="0.6"/>
			<path class="st3" d="M147.9,21.9c-1.6,0.5-3,2.5-3,2.5l0,0l0.9,0.2c0.2-0.3,0.3-0.6,0.5-0.9C147,22.6,147.9,21.9,147.9,21.9z"/>
		</g>
		<g>
			<path class="st3" d="M145.6,36.1c0.2,0,0.3,0.1,0.5,0.2c0.1,0.1,0.3,0.2,0.5,0.2c0.1,0,0.3,0.1,0.6,0.2c0.1,0,0.1,0,0.2,0
				c0.1,0,0.2,0,0.2,0c0.1,0,0.2,0,0.2,0c0.1,0,0.2,0,0.2,0c0.1,0,0.2,0,0.2,0h0.2c0.1,0,0.3,0,0.4,0c0.2,0,0.4,0,0.4,0s0.1,0,0.4,0
				c0.1,0,0.2,0,0.4,0c0.1,0,0.1,0,0.2,0c0.1,0,0.2,0,0.2,0c0.1,0,0.2,0,0.2-0.1c0.1,0,0.2,0,0.2-0.1c0.1,0,0.1,0,0.2-0.1
				c0.1,0,0.1,0,0.2-0.1c0.3-0.1,0.5-0.2,0.6-0.3c0.2-0.1,0.3-0.2,0.5-0.3c0.1-0.1,0.2-0.2,0.4-0.3c-0.2,0.1-0.3,0.1-0.5,0.1
				s-0.3,0-0.5,0.1c-0.1,0-0.3,0.1-0.6,0.1c-0.1,0-0.1,0-0.2,0c-0.1,0-0.1,0-0.2,0s-0.1,0-0.2,0c-0.1,0-0.1,0-0.2,0
				c-0.1,0-0.1,0-0.2,0c-0.1,0-0.1,0-0.2,0c-0.1,0-0.3,0-0.4,0c-0.2,0-0.4,0-0.4,0s-0.1,0-0.4,0c-0.1,0-0.2,0-0.4,0
				c-0.1,0-0.1,0-0.2,0c-0.1,0-0.1,0-0.2,0c-0.1,0-0.2,0-0.2,0c-0.1,0-0.2,0-0.2,0c-0.1,0-0.1,0-0.2,0c-0.1,0-0.1,0-0.2,0
				c-0.3,0-0.5,0-0.6,0c-0.2,0-0.4,0-0.5,0C145.9,36.1,145.8,36.1,145.6,36.1z"/>
		</g>
		<g>
			<path class="st3" d="M147.3,39.3c0.1,0,0.2,0.1,0.3,0.2c0.1,0.1,0.2,0.2,0.3,0.2s0.2,0.1,0.4,0.2c0.1,0,0.2,0.1,0.3,0.1
				c0,0,0.1,0,0.2,0c0,0,0.1,0,0.2,0c0.1,0,0.2,0,0.3,0s0.2,0,0.3,0c0.2,0,0.3,0,0.3,0s0.1,0,0.3,0s0.4,0,0.6,0c0.1,0,0.2,0,0.3-0.1
				c0.1,0,0.2,0,0.3-0.1c0.2,0,0.3-0.1,0.4-0.1c0.3-0.1,0.4-0.3,0.6-0.3c-0.2,0-0.4,0-0.7,0c-0.1,0-0.2,0-0.4,0s-0.4,0-0.6,0
				c-0.4,0-0.8,0-0.8,0s0,0-0.1,0c0,0-0.1,0-0.2,0c-0.1,0-0.2,0-0.2,0c-0.1,0-0.2,0-0.3,0s-0.2,0-0.3,0s-0.2,0-0.3,0
				c-0.2,0-0.3,0-0.4,0c-0.1,0-0.3,0-0.4,0C147.5,39.4,147.4,39.4,147.3,39.3z"/>
		</g>
		<g>
			<path class="st3" d="M158.8,13.9c0.1,0.1,0.2,0.1,0.3,0.2c0,0,0.1,0.1,0.1,0.2c0,0,0.1,0.1,0.1,0.2c0,0.1,0.1,0.2,0.2,0.4
				c0,0,0,0.1,0.1,0.1c0,0,0,0.1,0.1,0.1c0,0,0,0.1,0.1,0.1v0.1c0,0,0,0.1,0.1,0.1v0.1c0,0.1,0.1,0.2,0.1,0.2c0,0.1,0,0.1,0,0.2V16
				c0,0,0,0.1,0,0.2s0,0.2,0,0.3v0.1c0,0,0,0.1,0,0.2c0,0,0,0.1,0,0.2c0,0,0,0.1,0,0.2c0,0,0,0.1,0,0.2v0.1c0,0.1,0,0.2,0,0.3
				c0,0.1,0,0.1,0,0.2s0,0.1,0,0.2s0,0.1,0,0.2s-0.1,0.2-0.1,0.3c0.1-0.1,0.2-0.2,0.3-0.2c0.1-0.1,0.2-0.2,0.3-0.3
				c0-0.1,0.2-0.2,0.2-0.4c0,0,0-0.1,0.1-0.2c0-0.1,0-0.1,0-0.2s0-0.1,0-0.2s0-0.1,0-0.2s0-0.1,0-0.2s0-0.1,0-0.2s0-0.2,0-0.3
				c0-0.2,0-0.3,0-0.3s0,0,0-0.1c0,0,0-0.1,0-0.2c0-0.1-0.1-0.2-0.1-0.3c0,0,0-0.1-0.1-0.2c0,0-0.1-0.1-0.1-0.2s-0.1-0.1-0.1-0.2
				c0,0-0.1-0.1-0.1-0.2l-0.1-0.1l-0.1-0.1c-0.1-0.2-0.3-0.3-0.4-0.3c-0.1,0-0.1-0.1-0.2-0.1c-0.1,0-0.1,0-0.2-0.1
				C159,13.9,158.9,13.9,158.8,13.9z"/>
		</g>
		<g>
			<path class="st3" d="M149.1,25.8c0.3,0.1,0.5,0.2,1,0.3c0.1,0,0.3,0,0.6,0s0.6-0.1,0.9-0.2c0.3-0.1,0.6-0.2,0.7-0.4
				c0.2-0.1,0.3-0.2,0.3-0.2s0,0,0.1,0c0,0,0.1-0.1,0.2-0.1c0.2-0.1,0.4-0.3,0.6-0.5c0.2-0.2,0.4-0.5,0.6-0.6
				c0.2-0.2,0.3-0.4,0.4-0.5c0.2-0.3,0.3-0.6,0.5-0.9c-0.2,0.3-0.5,0.3-0.8,0.6c-0.1,0.1-0.3,0.2-0.5,0.4c-0.2,0.2-0.4,0.3-0.7,0.5
				c-0.2,0.2-0.5,0.3-0.6,0.5c-0.1,0.1-0.1,0.1-0.2,0.1h-0.1c0,0-0.1,0.1-0.3,0.2s-0.4,0.2-0.6,0.4s-0.5,0.2-0.7,0.3
				c-0.2,0.1-0.4,0.1-0.5,0.2c-0.2,0-0.3,0.1-0.5,0.1C149.4,25.8,149.3,25.9,149.1,25.8z"/>
		</g>
		<g>
			<path class="st3" d="M142.2,18c0.1,0,0.2,0.1,0.4,0.2c0,0,0.1,0,0.2,0.1c0.1,0,0.2,0.1,0.3,0.2s0.2,0.1,0.3,0.2
				c0.1,0,0.1,0.1,0.1,0.1s0,0,0.1,0.1l0.1,0.1l0.1,0.1l0.1,0.1l0.1,0.1c0.1,0.1,0.1,0.1,0.2,0.2c0.1,0.1,0.2,0.2,0.3,0.3
				c0-0.1,0-0.1,0-0.2s0-0.1,0-0.2c0,0,0-0.1-0.1-0.3c0-0.1,0-0.1-0.1-0.2c0-0.1-0.1-0.1-0.1-0.2s-0.1-0.1-0.1-0.2l-0.1-0.1
				c-0.1-0.1-0.1-0.1-0.1-0.1s0,0-0.1-0.1c-0.1,0-0.2-0.1-0.3-0.2c-0.1,0-0.3-0.1-0.4-0.1c-0.1,0-0.2,0-0.3,0s-0.2,0-0.2,0
				C142.3,18,142.3,18,142.2,18z"/>
		</g>
		<g>
			<path class="st3" d="M144.4,17c0,0,0,0.1,0.1,0.2c0,0,0,0.1,0.1,0.1c0,0,0.1,0.1,0.1,0.2c0.1,0.1,0.2,0.2,0.2,0.2s0,0,0.1,0
				l0.1,0.1c0,0,0.1,0.1,0.2,0.1c0,0,0.1,0,0.1,0.1c0.1,0,0.2,0,0.2,0.1c0-0.1,0-0.1-0.1-0.3c0,0,0-0.1-0.1-0.1
				c0-0.1-0.1-0.1-0.1-0.2s-0.1-0.1-0.1-0.1l-0.1-0.1c0,0-0.1-0.1-0.2-0.2h-0.1h-0.1c-0.1,0-0.1,0-0.1,0C144.5,17,144.5,17,144.4,17
				z"/>
		</g>
		<g>
			<path class="st3" d="M146.7,16.5c0,0,0,0.1,0,0.2c0,0,0,0,0,0.1v0.1c0,0,0,0,0,0.1l0,0c0,0,0,0,0.1,0c0,0,0,0,0.1,0s0,0,0.1,0
				h0.1c0,0,0-0.1,0-0.2c0,0,0,0,0-0.1c0,0,0,0,0-0.1l0,0c0-0.1-0.1-0.1-0.1-0.1l0,0c0,0,0,0-0.1,0h-0.1H146.7
				C146.8,16.5,146.7,16.5,146.7,16.5z"/>
		</g>
		<g>
			<path class="st3" d="M158.9,30.2c0.1-0.1,0.3,0,0.5-0.1c0,0,0.1-0.1,0.3-0.1c0.1,0,0.2-0.1,0.4-0.2c0.1-0.1,0.2-0.2,0.3-0.2
				c0.1-0.1,0.1-0.1,0.1-0.1s0,0,0.1-0.1l0.1-0.1c0,0,0,0,0.1-0.1c0,0,0-0.1,0.1-0.1c0-0.1,0.1-0.1,0.1-0.2c0,0,0-0.1,0.1-0.1v-0.1
				c0.1-0.1,0.1-0.2,0.1-0.3c0.1-0.2,0-0.3,0.1-0.5c0,0.1-0.1,0.1-0.1,0.2c-0.1,0-0.1,0.1-0.2,0.2c0,0-0.1,0.1-0.2,0.2
				c0,0,0,0-0.1,0.1c0,0,0,0-0.1,0.1l-0.1,0.1c0,0,0,0-0.1,0.1c0,0,0,0-0.1,0.1l-0.1,0.1c-0.1,0.1-0.1,0.1-0.1,0.1s0,0-0.1,0.1
				s-0.2,0.2-0.3,0.3c-0.1,0.1-0.2,0.2-0.3,0.3c-0.1,0.1-0.2,0.2-0.2,0.2c-0.1,0.1-0.1,0.1-0.2,0.2C159,30.1,159,30.2,158.9,30.2z"
				/>
		</g>
		<g>
			<path class="st3" d="M159.4,31.6c0.1,0,0.2,0,0.3,0c0,0,0.1,0,0.2,0c0.1,0,0.2,0,0.2-0.1c0.1,0,0.1-0.1,0.2-0.1l0.1-0.1
				c0,0,0,0,0.1-0.1c0,0,0.1-0.1,0.1-0.2s0.1-0.2,0.1-0.2c0-0.1,0-0.1,0-0.2s0-0.2,0-0.3c0,0.1-0.1,0.1-0.2,0.2c0,0-0.1,0-0.1,0.1
				c0,0-0.1,0.1-0.2,0.1l-0.1,0.1l0,0l0,0c0,0,0,0-0.1,0s-0.1,0.1-0.1,0.1s-0.1,0.1-0.2,0.1l-0.1,0.1
				C159.5,31.5,159.4,31.6,159.4,31.6z"/>
		</g>
	</g>
	<path class="st1" d="M145.6,45.6c0,0,4.3,3.6,8.2,0.5C153.7,46.1,150.8,48.1,145.6,45.6z"/>
	<path class="st1" d="M134.6,31.9c0,0-2.2,4.5,0,8.4c0,0-2.8-1.9-1.4-7.7L134.6,31.9z"/>
	<path class="st1" d="M163.3,33.9c0,0,2.7,1.9,0.5,7.2c0,0,2.9-2.3,1.2-6.3L163.3,33.9z"/>
	<path class="st1" d="M153.7,58.1c0,0,1,3.7-0.7,7.1c0,0,0.5-3,0-6.6L153.7,58.1z"/>
</g>
<g class="st0">
	<g class="st2">
		<g>
			<path class="st3" d="M59.7,22.2L59.7,22.2c0.6,1.6,0.6,8,0.6,8.1c0.1,6.2,1,15.1,4.9,22.1c2.3,4.2,4.6,5.7,4.7,5.8l0.1,0.1h0.1
				c5.1-0.6,11.2-3.9,18-10c4.8-4.3,8.3-8.5,8.7-8.9c4.4-2.6,7.3-7.6,7.4-7.8l0,0l0,0c0.8-3.4-0.4-6.4-3.4-8.7
				c-1.7-1.3-3.6-2-4.4-2.3c0.8-1,1.1-1.8,0.8-2.5c-0.4-1-1.9-1.2-3.2-1.2c-0.3,0-0.5,0-0.6,0l-1-0.8c0.2-1.5,0-2.6-0.6-3.3
				c-0.4-0.5-1-0.7-1.7-0.7c-0.3,0-0.6,0.1-0.9,0.1c0.1-1.9-1.1-2.6-1.1-2.6l0,0H88c-0.2,0-0.4,0-0.6,0c-3.1,0-5,2.4-5.5,3.1
				c-1.7-0.3-3.5-0.3-4.7-0.3s-2,0-2.3,0.1l-2.1-0.8c-1-0.5-1.8-0.5-2.3,0.1c-1,1-1,3.4-1,4.3h-2.1c-3.6,0.7-6,1.9-7.1,3.7
				C59.4,20.9,59.7,22.1,59.7,22.2z"/>
			<path class="st4" d="M65.1,30c0.9-2.4,4-6,4-6c-6.8-0.2-4.4-3.3-4.4-3.3c0.7-0.7,1.3-1.2,1.9-1.4c-0.9-0.1-1.8,0.2-1.8,0.2
				c3.5-1.7,4.2,0.1,4.2,0.1c-0.3,1.2,0.2,3.3,0.2,3.3c1.5,1.3,1.6,1.2,1.6,1.2c-1.7,0.9-3.7,4-4.7,5.8C78.6,29.3,80.3,37,80.3,37
				c-4.8-6.5-15.1-5.8-15.2-5.8c-3.2,0.6-2.7,3-2.7,3C65.8,44.5,71,44.6,71,44.6c11.6,1.3,15.3-9.4,15.3-9.4
				c0.5-2.1,1.6-3.1,1.6-3.1C90.3,29.5,91,27,91,27c1.8-1,3.7-2.2,3.7-2.2c0.1,0,0.3,0,0.4,0c1.2-0.2,3.9-0.2,5.8,2.6
				c0,0-0.9-0.7-2-1.2c1.2,1.5,1.2,3.6,1.2,3.6c-1.7-0.5-9.5,1.3-9.5,1.3c0.4,1.7,0,2.8-0.5,3.5c-0.6-0.3-1.6-1.3-1.6-1.3l-0.3,0.9
				c0.7,2.2-0.3,4.2-0.3,4.2l-1.2-1.6c-0.3,1.6-2.3,4.3-2.3,4.3c0.1,4.1-1.9,4.7-1.9,4.7l-0.6-2.3L81.6,44
				c-4.4,3.4-11.2,2.1-11.2,2.1c-6.1-2.4-7.7-8.1-7.7-8.1c1.7,13.3,8,18.3,8,18.3c10-1.8,23.9-16.5,23.9-16.5
				c-1.1,0.9-6.1,1.9-6.1,1.9c11.7-4.6,14.1-11,14.1-11c1.4-5.6-8.5-9.3-8.5-9.3c-0.6-0.2-1.7,0.3-1.7,0.3c0.9,0.3,0.3,2,0.3,2
				c-2.8,4.7-9.3,1.3-9.3,1.3c-3.3-0.1-2.2-2.2-2.2-2.2C81.5,22.2,83,21,83,21s-0.7,1.4-0.9,1.9c-0.5,1.4,1.7,0.7,1.7,0.7
				c2.1-2.3,11-3.8,11-3.8c1.8-0.8,0.9-1.6,0.9-1.6c-1.9-0.8-6.1,1.1-6.1,1.1c0.7-0.7,3-1.9,3-1.9c-0.2-0.5-1.4-1.2-1.4-1.2
				c0.6-1.9-0.2-2.7-0.2-2.7c-0.5-0.7-3.1,0.6-3.1,0.6c1-3-0.2-3.4-0.2-3.4c-2.4,0.1-4,2.8-4,2.8c3.5,0.7,5.3,2.2,5.3,2.2
				c-7.1-2.6-13.4-1.8-13.4-1.8c0.6,0.5,1.4,2.8,1.4,2.8c-3.3-3.6-4.8-3.8-4.8-3.8c-1.5,0.9-1,4.7-1,4.7c-9.4,0.1-9.6,4.7-9.6,4.7
				c0.6,2.6,0.8,9.5,0.8,9.5C62.5,30.3,65.1,30,65.1,30z"/>
			<path class="st3" d="M77.4,22.1c-0.9-3.3-2.6-5.7-4.4-7c0.5,0.9,0.4,1.2,0.4,1.2c-0.7,0.3-1,2.3-1,2.3c0.1,4.2,3.4,4.4,3.4,4.4
				s1,0.6,1.4,0.6c2.7,0.6,1.4-4,1.4-4C78.8,22.8,77.4,22.1,77.4,22.1z"/>
			<path class="st5" d="M88.8,32.5c0.1,0.3,1.2,1.2,1.2,1.2c0.4-0.8-0.3-2.4-0.3-2.4C89.7,31.7,88.8,32.5,88.8,32.5z"/>
			<path class="st5" d="M87.1,36.2l0.8,0.7c0.2-0.4-0.1-2.5-0.1-2.5C87.7,34.8,87.1,36.2,87.1,36.2z"/>
			<path class="st5" d="M82.7,43.3l0.4,1.4c0.6-0.8,0.6-2.8,0.6-2.8C83.6,42.3,82.7,43.3,82.7,43.3z"/>
			<path class="st5" d="M91.3,23.7c-3.7,3-6.8,0.5-6.8,0.5c4.2-2.7,6.7-2.3,6.7-2.3C92.2,22.5,91.3,23.7,91.3,23.7z"/>
			<path class="st5" d="M73.6,20.6c-0.8-2.8,0.3-3.3,0.3-3.3c1.6,0.9,2.9,5,2.9,5C74.2,21.9,73.6,20.6,73.6,20.6z"/>
			<path class="st5" d="M65.2,21.6c-0.1,1.6,3.9,1.7,3.9,1.7L68.6,23c-0.7-1-0.6-3.1-0.6-3.1C65.8,19.7,65.2,21.6,65.2,21.6z"/>
			
				<ellipse transform="matrix(0.2974 -0.9547 0.9547 0.2974 38.9024 101.0079)" class="st3" cx="88.1" cy="24.1" rx="2.1" ry="1.4"/>
			<ellipse transform="matrix(0.2432 -0.97 0.97 0.2432 36.9393 87.844)" class="st3" cx="74.8" cy="20.2" rx="1.8" ry="1.2"/>
			<path class="st3" d="M74.3,39.6c1.4,0.4,3.2-0.2,3.5-1.1c0.9-2.8-2.7-1.9-2.7-1.9C72.4,38,74.3,39.6,74.3,39.6z"/>
			<path class="st3" d="M67.8,38.3c-1.9,0-2.8-1.3-2.9-2.3c-0.2-3.1,3.2-0.8,3.2-0.8C69.8,36.9,67.8,38.3,67.8,38.3z"/>
			<path class="st5" d="M90.6,30.3c0,0,6.3-1.6,8.5-1.5c0,0,0-0.5-0.3-1.1c-2.1-0.4-4.8,0.1-4.8,0.1c1-0.7,2.8-1.1,3.7-1.3
				c-0.6-0.4-1.4-0.7-2.6-0.6L92,27.4C92,27.4,91.1,29.7,90.6,30.3z"/>
			<path class="st3" d="M66.3,20.3c0,1.4,1.2,2.1,1.2,2.1c-0.7-0.8-0.5-2.7-0.5-2.7C66.2,19.7,66.3,20.3,66.3,20.3z"/>
			<path class="st3" d="M73.5,41.2c-0.8-0.6-0.9-1.6-0.9-1.6c0.2,0.7,0.9,1.2,0.9,1.2c2.7,1.5,5.1-1.1,5.1-1.1
				C76.9,42.6,74.6,42,73.5,41.2z"/>
			<path class="st3" d="M66.2,39.9c-2.7-0.9-2.4-3.2-2.4-3.2c0.4,2.3,2.8,2.8,2.8,2.8c1.5,0.3,2.5-1,2.5-1
				C68.1,40.4,67,40.1,66.2,39.9z"/>
		</g>
		<g>
			<path class="st3" d="M78.4,48.8c-0.2,0.1-0.5,0.1-0.7,0.2c-0.3,0-0.5,0.1-0.8,0.1c-0.1,0-0.3,0-0.4,0s-0.1,0-0.2,0h-0.1h-0.1
				c-0.1,0-0.3,0-0.5,0c-0.1,0-0.1,0-0.2,0c0,0-0.1,0-0.2,0s-0.3,0-0.5,0c-0.1,0-0.2,0-0.4,0c-0.1,0-0.3,0-0.4,0
				c-0.3,0-0.5-0.1-0.5-0.1s0,0-0.1,0s-0.2,0-0.3,0c-0.1,0-0.2,0-0.4-0.1c-0.1,0-0.3-0.1-0.4-0.1s-0.2,0-0.4-0.1c0,0-0.1,0-0.2,0
				h-0.1c-0.2-0.1-0.4-0.1-0.5-0.2s-0.3-0.1-0.4-0.1s-0.2-0.1-0.3-0.1c-0.3-0.1-0.6-0.2-0.9-0.3c-0.2-0.1-0.5-0.2-0.7-0.3
				s-0.5-0.2-0.7-0.3s-0.4-0.3-0.7-0.5c0.2,0.2,0.4,0.4,0.6,0.5c0.2,0.2,0.4,0.3,0.6,0.5s0.4,0.3,0.6,0.5s0.5,0.3,0.8,0.5
				c0.1,0,0.2,0.1,0.3,0.1c0.1,0.1,0.2,0.1,0.4,0.2c0.2,0.1,0.3,0.1,0.6,0.2c0,0,0.1,0,0.2,0.1c0.1,0,0.1,0,0.2,0s0.2,0.1,0.4,0.1
				c0.1,0,0.2,0.1,0.4,0.1c0.1,0,0.3,0,0.4,0.1c0.1,0,0.2,0,0.3,0c0.1,0,0.1,0,0.1,0s0.2,0,0.5,0.1c0.2,0,0.3,0,0.5,0
				c0.1,0,0.3,0,0.4,0c0.2,0,0.4,0,0.5,0c0.2,0,0.3,0,0.4,0c0.2,0,0.4-0.1,0.5-0.1c0.2,0,0.3-0.1,0.5-0.1c0.1,0,0.3-0.1,0.4-0.1
				c0.3-0.1,0.5-0.2,0.7-0.4C77.8,49.1,78.1,48.9,78.4,48.8c0.1-0.1,0.3-0.3,0.6-0.4C78.9,48.6,78.6,48.7,78.4,48.8z"/>
		</g>
		<g>
			<path class="st3" d="M74.3,52.2c-0.2,0-0.3,0-0.5-0.1c0,0-0.1,0-0.2,0c0,0-0.1,0-0.2,0c0,0-0.1,0-0.2,0s-0.3,0-0.4,0
				s-0.3,0-0.4-0.1c-0.3-0.1-0.5-0.1-0.7-0.2c-0.2-0.1-0.3-0.1-0.3-0.1s0,0-0.1,0s-0.1,0-0.2-0.1c-0.1,0-0.2-0.1-0.3-0.1
				c-0.1,0-0.2-0.1-0.4-0.2c-0.1-0.1-0.2-0.1-0.4-0.2c-0.1-0.1-0.2-0.1-0.4-0.2c-0.1,0-0.1,0-0.2-0.1c0,0-0.1,0-0.1-0.1
				c-0.1,0-0.1-0.1-0.2-0.1c-0.2-0.1-0.3-0.2-0.4-0.3s-0.2-0.2-0.4-0.3c0.1,0.1,0.2,0.3,0.2,0.4c0.1,0.1,0.1,0.3,0.3,0.5
				c0,0,0.1,0.1,0.2,0.2l0.1,0.1l0.1,0.1c0.1,0.1,0.2,0.2,0.3,0.3c0.1,0.1,0.2,0.2,0.4,0.3c0.1,0.1,0.3,0.2,0.4,0.2
				c0.1,0.1,0.2,0.1,0.4,0.2c0.1,0,0.2,0.1,0.3,0.1c0.1,0,0.1,0,0.1,0s0.1,0,0.4,0.1c0.2,0,0.5,0.1,0.8,0.1c0.2,0,0.3,0,0.5,0
				s0.3,0,0.5,0s0.3,0,0.4-0.1c0.1,0,0.2,0,0.2-0.1c0.2-0.1,0.4-0.1,0.5-0.2c0.1-0.1,0.3-0.2,0.4-0.2C74.7,52.2,74.5,52.2,74.3,52.2
				z"/>
		</g>
		<g>
			<path class="st3" d="M78.8,29c-0.1-0.1-0.2-0.3-0.4-0.5c-0.1-0.1-0.3-0.3-0.5-0.5c-0.1-0.1-0.3-0.2-0.4-0.3
				c-0.1-0.1-0.3-0.2-0.5-0.3c-0.2-0.1-0.3-0.2-0.5-0.3c-0.1-0.1-0.3-0.2-0.4-0.2c-0.2-0.1-0.4-0.2-0.4-0.2s0,0-0.1,0
				s-0.2-0.1-0.3-0.1c-0.1,0-0.3-0.1-0.4-0.1s-0.2,0-0.2-0.1c-0.1,0-0.2,0-0.3-0.1c-0.1,0-0.2,0-0.3-0.1c-0.1,0-0.2,0-0.3,0
				c-0.1,0-0.2,0-0.3,0c-0.1,0-0.2,0-0.3,0c-0.3,0-0.6,0-0.7,0c-0.2,0-0.4,0.1-0.6,0.1c-0.2,0.1-0.3,0.1-0.5,0.2c0.2,0,0.4,0,0.6,0
				c0.1,0,0.2,0,0.3,0.1c0.1,0,0.2,0,0.3,0.1c0.1,0,0.4,0.1,0.7,0.2c0.1,0,0.1,0,0.2,0.1c0.1,0,0.2,0,0.2,0.1s0.2,0,0.2,0.1
				c0.1,0,0.2,0,0.2,0.1s0.2,0,0.2,0.1c0.1,0,0.2,0,0.2,0.1c0.1,0.1,0.3,0.1,0.4,0.2c0.1,0,0.2,0.1,0.3,0.1c0.1,0,0.1,0,0.1,0
				s0.1,0.1,0.4,0.2c0.1,0,0.2,0.1,0.4,0.2c0.1,0.1,0.3,0.1,0.4,0.2s0.3,0.2,0.5,0.2c0.2,0.1,0.3,0.2,0.4,0.2
				c0.3,0.1,0.5,0.3,0.6,0.3c0.4,0.2,0.7,0.3,1,0.6C79,29.4,78.9,29.2,78.8,29z"/>
		</g>
		<g>
			<path class="st3" d="M63.1,21.1c-0.1,0.1-0.2,0.2-0.3,0.4c-0.1,0.2-0.2,0.5-0.3,0.7c-0.1,0.3-0.1,0.5-0.1,0.7s0,0.3,0,0.3
				s0,0,0,0.1c0,0,0,0.1,0.1,0.2c0.1,0.2,0.2,0.4,0.3,0.7c0.1,0.2,0.4,0.4,0.6,0.6c0.2,0.1,0.4,0.2,0.5,0.2c0.3,0.1,0.6,0.1,0.8,0.1
				c-0.3-0.1-0.4-0.2-0.7-0.4c-0.1,0-0.2-0.2-0.3-0.3c-0.1-0.1-0.3-0.3-0.4-0.5c-0.1-0.2-0.2-0.4-0.2-0.5s0-0.1,0-0.2v-0.1
				c0,0,0-0.1,0-0.3c0-0.1,0-0.4,0-0.6s0.1-0.5,0.2-0.6c0.1-0.2,0.2-0.3,0.2-0.4c0.1-0.1,0.1-0.2,0.2-0.4l0.1-0.1l0.1-0.1
				C63.6,20.8,63.4,20.8,63.1,21.1z"/>
		</g>
		<g>
			<path class="st3" d="M71,35.8c-0.2,0.3-0.4,0.6-0.6,1c0,0.1-0.1,0.2-0.1,0.3s0,0.2-0.1,0.3c0,0.1-0.1,0.2-0.1,0.3v0.1l0,0l0,0
				c-0.1,0.6-0.1,1.1-0.2,1.4c0,0.9,0.2,1.5,0.3,2.2c0-0.4,0-0.7,0.1-1s0.1-0.7,0.2-1.1c0-0.2,0.1-0.7,0.2-1.3l0,0l0,0v-0.1
				c0-0.1,0.1-0.2,0.1-0.3s0-0.2,0.1-0.2c0-0.1,0.1-0.2,0.1-0.3c0.1-0.4,0.2-0.8,0.3-1.1c0.1-0.3,0.2-0.6,0.5-0.9
				C71.6,35.3,71.3,35.5,71,35.8z"/>
		</g>
	</g>
	<path class="st1" d="M71.2,53.4C62.1,50.6,61.3,35,61.3,35l-8.2,1.9c2.1,17,14.3,29.3,14.3,29.3c19.2-0.3,37-17.1,37-17.1
		c-0.6-2.3-9.2-10.1-9.2-10.1C79.7,57.8,71.2,53.4,71.2,53.4z"/>
	<path class="st9" d="M83.2,52.6c-13.4,10.1-19.4-3-19.4-3C61,42.9,60.1,37,60.1,37l-5,1.4c2.6,16.3,13.3,26,13.3,26
		c19.5-1.7,32.9-15.9,32.9-15.9c-0.9-2.6-6.5-6.7-6.5-6.7C90.1,48.1,83.2,52.6,83.2,52.6z"/>
	<path class="st9" d="M70.4,54.5"/>
	<path class="st1" d="M69.7,54.2c-2.3,4.6-0.3,8.2-0.3,8.2c-0.1-2.6,2.1-7.9,2.1-7.9L69.7,54.2z"/>
	<path class="st1" d="M88.8,58.3l3-1.3c0.4-4.2,2.8-8,2.8-8C90.8,52,88.8,58.3,88.8,58.3z"/>
	<path class="st1" d="M57.2,49.5l1.4,1.9c1.7-5.3,0.3-8.8,0.3-8.8C58.6,46.7,57.1,49.5,57.2,49.5z"/>
</g>
<g class="st0">
	<path class="st1" d="M93.1,111.6c0,0-9.5,4.2-16.4,3.5c-6.8,0.8-16.4-3.5-16.4-3.5c-8.6-2.1-13.1,5.5-13.1,5.5s11.3,13.6,29.5,16.5
		c18.2-2.9,29.5-16.5,29.5-16.5S101.7,109.5,93.1,111.6z"/>
	<path class="st6" d="M103.9,117c-7-8.8-27.2,1.5-27.2,1.5s-20.2-10.3-27.2-1.5c0,0,10.4,11.5,27.2,14.7l0,0l0,0l0,0l0,0
		C93.6,128.5,103.9,117,103.9,117z"/>
	<path class="st1" d="M96.6,116.8c0,0-1.9,5.1-1.4,7.7l-2.3,1.7C93,126.2,93,119.3,96.6,116.8z"/>
	<g class="st2">
		<g>
			<path class="st3" d="M100.1,86.4c-1-1-2.3-1.6-3.9-1.6c-2.6,0-5.2,1.4-5.7,1.7c-1.3-0.2-2.2-1.1-2.7-2.5
				c-0.4-1.2-0.3-2.4-0.3-2.4v-0.1v-0.1c-2.2-3.8-4.6-5.8-7-5.8c-1.8,0-3.2,1.2-3.7,1.8c-0.5-0.6-1.9-1.8-3.7-1.8
				c-2.4,0-4.7,1.9-7,5.8v0.1v0.1c0,0,0,1.2-0.3,2.4c-0.5,1.5-1.4,2.4-2.7,2.5c-0.5-0.3-3.1-1.7-5.7-1.7c-1.6,0-2.9,0.5-3.9,1.6
				c-1.6,1.6-2.3,4.5-2.2,8.6l0,0c0,0,1,4.8,4.3,10.5c3,5.2,8.6,12.3,18.2,16.5l2.7,0.8v0.2l0.3-0.1L77,123v-0.2l2.7-0.7l0,0
				c9.6-4.2,15.2-11.3,18.2-16.5c3.3-5.7,4.3-10.4,4.3-10.5l0,0C102.4,91,101.7,88.1,100.1,86.4z"/>
			<path class="st4" d="M96.7,87.3c-3.9-0.4-10.9,5.2-10.9,5.2c1.1-1.7,3.3-3.5,3.3-3.5c-4.5-2-3.8-7-3.8-7
				c-3.7-5.6-6.9-3.1-6.9-3.1l-1.7,1.2L75,78.9c0,0-3.2-2.6-6.9,3c0,0,0.7,5-3.8,7c0,0,2.2,1.8,3.3,3.5c0,0-7-5.6-10.9-5.2
				c0,0-4.4,1.3-3.8,7.9c0,0,1.1,3.7,3.7,8.3c0.4,0.7,3.6,5.9,8.9,6.6c0,0-2.3,0.8-5.2-0.8c3.8,5,9.1,9.9,16.4,11.7l0,0l0,0l0,0l0,0
				c7.2-1.8,12.6-6.7,16.4-11.7c-2.9,1.7-5.2,0.8-5.2,0.8c5.4-0.7,8.6-5.9,8.9-6.6c2.5-4.6,3.7-8.3,3.7-8.3
				C101.1,88.5,96.7,87.3,96.7,87.3z M95.5,92c-0.4,13.6-8.6,15.7-12,16c-0.5,1.3-1.7,3.9-3,4.6c0,0-1.3-1.7-1.3-4.7
				c-0.7-0.2-1.5-0.4-2.4-0.9l0,0l0,0l0,0l0,0l0,0l0,0c-0.9,0.4-1.7,0.7-2.4,0.9c0,3-1.3,4.7-1.3,4.7c-1.3-0.7-2.5-3.3-3-4.6
				c-3.4-0.3-11.6-2.4-12-16c-0.2-0.2-0.5-0.2-1.1-0.3c0,0,2.3-1.1,3.7,0.9c0,0-1.1-0.4-1.9-0.4c0,0,1.9,6.8,9,10.3
				c-0.5-2-0.5-3.6-0.5-3.6c0.7-5.8,8.4-5.3,8.4-5.3h1.1l0,0h0.1c0,0,0,0,0.1,0l0,0h1.1c0,0,7.7-0.6,8.4,5.3c0,0,0,1.5-0.5,3.6
				c7.1-3.5,9-10.3,9-10.3c-0.8,0-1.9,0.4-1.9,0.4c1.4-1.9,3.7-0.9,3.7-0.9C95.9,91.8,95.7,91.8,95.5,92z"/>
			<path class="st4" d="M84.5,98.7c-0.6-3.4-6.2-3.8-6.2-3.8l-1.6-0.1l0,0l0,0l0,0l0,0l-1.6,0.1c0,0-5.6,0.5-6.2,3.8
				c-0.4,2,0,4.7,2.2,7.7c0,0,1.5,1.4,5.5-1.3c4,2.8,5.5,1.3,5.5,1.3C84.5,103.4,84.9,100.7,84.5,98.7z"/>
			<path class="st3" d="M74.7,82.1c0,0-1.6-1.9-4.1-0.2c0,0,2.2-0.4,3,0.7c0,0-4.6-1.9-4.2,5.7l0.4,1.9c0,0,3.9,1.4,5.5,0.9
				C75.2,91.1,76.2,85.3,74.7,82.1z"/>
			<path class="st5" d="M74.1,83.9c0,0-3.2-2-3.9,3c0,0,0,2,0.3,2.4l3.8,0.8C74.3,90.1,75,85,74.1,83.9z"/>
			<path class="st3" d="M75.3,88.3c-0.1,1.6-0.9,2.8-1.8,2.7c-0.9,0-1.6-1.3-1.5-2.9s0.9-2.8,1.8-2.7C74.7,85.4,75.4,86.7,75.3,88.3
				z"/>
			<path class="st5" d="M68.2,104.1c-3.6-0.9-6.4-4.2-7.9-6.4c1,1.8,2.4,4.2,3.7,5.3c0,0-2.5-1.7-4.3-5.3c2.9,8.6,9.8,9.1,9.8,9.1
				L68.2,104.1z"/>
			
				<ellipse transform="matrix(0.9802 -0.1978 0.1978 0.9802 -18.577 16.4192)" class="st3" cx="72.9" cy="101.2" rx="1.4" ry="2.5"/>
			<path class="st5" d="M73.1,107.9c0,0-0.3,0.1-0.8,0.1l-0.1,1.8c-0.2-0.5-0.4-1.3-0.5-1.7c-0.2,0-0.5,0-0.7,0c0,0,0.7,2.2,1.6,3.2
				C72.7,111.3,73.3,109,73.1,107.9z"/>
			<path class="st3" d="M72.3,104.5c0,0,1.9,1.2,2.7-1.4C74.9,103.1,74.6,106.3,72.3,104.5z"/>
			<path class="st3" d="M78.8,82.1c0,0,1.6-1.9,4.1-0.2c0,0-2.2-0.4-3,0.7c0,0,4.6-1.9,4.2,5.7l-0.4,1.9c0,0-3.9,1.4-5.5,0.9
				C78.3,91.1,77.3,85.3,78.8,82.1z"/>
			<path class="st5" d="M79.4,83.9c0,0,3.2-2,3.9,3c0,0,0,2-0.3,2.4l-3.8,0.8C79.2,90.1,78.5,85,79.4,83.9z"/>
			<path class="st3" d="M78.2,88.3c0.1,1.6,0.9,2.8,1.8,2.7c0.9,0,1.6-1.3,1.5-2.9s-0.9-2.8-1.8-2.7C78.7,85.4,78.1,86.7,78.2,88.3z
				"/>
			<path class="st5" d="M85.3,104.1c3.6-0.9,6.4-4.2,7.9-6.4c-1,1.8-2.4,4.2-3.7,5.3c0,0,2.5-1.7,4.3-5.3c-2.9,8.6-9.8,9.1-9.8,9.1
				L85.3,104.1z"/>
			
				<ellipse transform="matrix(0.1978 -0.9802 0.9802 0.1978 -34.4882 160.3417)" class="st3" cx="80.7" cy="101.2" rx="2.5" ry="1.4"/>
			<path class="st5" d="M80.4,107.9c0,0,0.3,0.1,0.8,0.1l0.1,1.8c0.2-0.5,0.4-1.3,0.5-1.7c0.2,0,0.5,0,0.7,0c0,0-0.7,2.2-1.6,3.2
				C80.8,111.3,80.2,109,80.4,107.9z"/>
			<path class="st3" d="M81.2,104.5c0,0-1.9,1.2-2.7-1.4C78.6,103.1,78.9,106.3,81.2,104.5z"/>
		</g>
		<g>
			<path class="st3" d="M69.6,113.2c1.1,0.5,1.7,1,3.1,1.5c0.1,0,0.1,0,0.2,0.1c0.1,0,0.2,0,0.3,0.1c0.1,0,0.2,0.1,0.4,0.1
				c0.1,0,0.3,0.1,0.5,0.1c0.1,0,0.3,0.1,0.5,0.1s0.4,0.1,0.6,0.1s0.4,0,0.5,0s0.2,0,0.2,0s0.1,0,0.2,0s0.3,0,0.5,0s0.4,0,0.6,0
				s0.4,0,0.6,0c0.3,0,0.5-0.1,0.7-0.1s0.4-0.1,0.6-0.1s0.3-0.1,0.5-0.1c0.1,0,0.2,0,0.3-0.1c0.7-0.2,1.2-0.4,1.7-0.7
				c0.2-0.1,0.5-0.2,0.7-0.4c0.2-0.1,0.5-0.3,0.7-0.4c-0.3,0.1-0.5,0.2-0.8,0.3c-0.3,0.1-0.5,0.1-0.8,0.2c-0.5,0.1-1.1,0.2-1.7,0.3
				c-0.1,0-0.2,0-0.3,0s-0.3,0-0.4,0c-0.2,0-0.4,0-0.6,0s-0.5,0-0.7,0c-0.1,0-0.3,0-0.5,0s-0.4,0-0.6,0s-0.3,0-0.4,0s-0.2,0-0.2,0
				s-0.1,0-0.2,0s-0.3,0-0.5,0s-0.4,0-0.6-0.1c-0.2,0-0.4,0-0.5-0.1c-0.2,0-0.4,0-0.5-0.1c-0.1,0-0.3,0-0.4-0.1c-0.1,0-0.2,0-0.3,0
				c-0.1,0-0.1,0-0.2,0c-0.7-0.1-1.2-0.2-1.7-0.3c-0.3-0.1-0.5-0.1-0.8-0.2C70.1,113.4,69.8,113.3,69.6,113.2z"/>
		</g>
		<g>
			<path class="st3" d="M73.3,116.8c0.1,0.1,0.2,0.2,0.3,0.3c0.1,0.1,0.2,0.2,0.4,0.3c0,0,0.1,0.1,0.2,0.1c0,0,0.1,0,0.1,0.1
				c0,0,0.1,0,0.2,0.1c0.1,0,0.3,0.1,0.4,0.1s0.1,0,0.2,0s0.1,0,0.2,0s0.1,0,0.2,0s0.1,0,0.2,0s0.3,0,0.4,0s0.2,0,0.3,0
				c0.1,0,0.1,0,0.1,0s0.1,0,0.3,0c0.2,0,0.5-0.1,0.8-0.1c0.3-0.1,0.6-0.2,0.8-0.3s0.4-0.2,0.5-0.2c0.4-0.2,0.5-0.4,0.8-0.5
				c-0.3,0.1-0.6,0-0.9,0c-0.1,0-0.3,0-0.6,0c-0.2,0-0.5,0-0.8,0.1s-0.5,0-0.7,0.1c-0.2,0-0.3,0-0.3,0s0,0-0.1,0c0,0-0.1,0-0.2,0
				s-0.2,0-0.3,0c-0.1,0-0.1,0-0.2,0s-0.1,0-0.2,0s-0.1,0-0.2,0s-0.1,0-0.2,0s-0.3,0-0.4,0s-0.1,0-0.2,0s-0.1,0-0.1,0
				c-0.1,0-0.2,0-0.2,0c-0.2,0-0.3,0-0.5,0C73.6,116.9,73.5,116.8,73.3,116.8z"/>
		</g>
		<g>
			<path class="st3" d="M63.8,88.5c0.1,0,0.2,0.1,0.3,0.2s0.2,0.1,0.3,0.2c0.1,0,0.2,0.1,0.3,0.2c0.1,0.1,0.3,0.2,0.5,0.4
				c0.2,0.1,0.3,0.2,0.4,0.3c0.1,0.1,0.2,0.1,0.2,0.1s0.1,0,0.2,0.1s0.3,0.2,0.4,0.3c0.3,0.2,0.7,0.5,0.8,0.6
				c0.2,0.1,0.4,0.2,0.6,0.3c-0.2-0.2-0.2-0.3-0.4-0.6c0-0.1-0.1-0.2-0.3-0.3c-0.1-0.1-0.3-0.3-0.4-0.4s-0.3-0.3-0.4-0.4
				s-0.2-0.1-0.2-0.1s-0.1,0-0.2-0.1s-0.3-0.2-0.5-0.3c-0.2-0.1-0.4-0.2-0.6-0.3c-0.2-0.1-0.3-0.1-0.4-0.1
				C64.2,88.5,64,88.6,63.8,88.5z"/>
		</g>
		<g>
			<path class="st3" d="M85.8,90.3c0.1-0.1,0.2-0.1,0.3-0.1s0.2-0.1,0.4-0.1c0.1,0,0.2-0.1,0.4-0.2c0.2-0.1,0.4-0.1,0.6-0.2
				s0.4-0.1,0.5-0.2c0.1,0,0.2-0.1,0.2-0.1s0,0,0.1,0c0,0,0.1,0,0.2,0s0.2,0,0.3-0.1h0.1c0,0,0.1,0,0.2,0s0.2-0.1,0.3-0.1h0.1h0.1
				c0.2,0,0.3-0.1,0.4-0.1s0.3-0.1,0.4-0.1s0.2-0.1,0.3-0.1c-0.2,0-0.4-0.1-0.7-0.1c-0.1,0-0.3,0-0.5,0c0,0-0.1,0-0.2,0
				c0,0-0.1,0-0.2,0s-0.2,0-0.3,0c-0.1,0-0.1,0-0.2,0c0,0-0.1,0-0.2,0s-0.2,0-0.3,0.1c-0.1,0-0.1,0-0.2,0h-0.1c0,0-0.1,0-0.3,0.1
				c-0.1,0.1-0.4,0.1-0.6,0.3c-0.2,0.1-0.4,0.2-0.6,0.4S86,89.9,85.9,90C86.1,90,86,90.2,85.8,90.3z"/>
		</g>
		<g>
			<path class="st3" d="M55.2,91.1c0.1-0.1,0.2-0.2,0.3-0.3c0.1,0,0.1-0.1,0.2-0.1c0.1,0,0.1-0.1,0.2-0.1c0,0,0.1-0.1,0.2-0.1
				c0.1-0.1,0.2-0.1,0.3-0.2c0,0,0.1-0.1,0.2-0.1c0.1,0,0.1,0,0.2-0.1c0.1,0,0.1-0.1,0.2-0.1c0.1,0,0.1,0,0.2-0.1s0.1,0,0.2-0.1
				c0.1,0,0.1,0,0.2,0c0.1,0,0.2-0.1,0.3-0.1c0.2,0,0.3-0.1,0.3-0.1s0.1,0,0.3,0c0.1,0,0.2,0,0.3,0s0.1,0,0.2,0c0.1,0,0.1,0,0.2,0
				c0.1,0,0.3,0,0.4,0s0.3,0,0.4,0c0.2,0,0.5,0,0.6,0s0.2,0,0.3,0s0.1,0,0.2,0c0.1,0,0.3,0,0.4,0.1c-0.1,0-0.3-0.1-0.4-0.2
				c-0.1-0.1-0.3-0.2-0.5-0.2c-0.1,0-0.3-0.1-0.6-0.2c-0.1,0-0.3,0-0.4-0.1c-0.1,0-0.1,0-0.2,0c-0.1,0-0.1,0-0.2,0s-0.1,0-0.2,0
				c-0.1,0-0.1,0-0.2,0c-0.1,0-0.3,0-0.4,0c-0.2,0-0.3,0-0.3,0s-0.1,0-0.3,0.1c-0.1,0-0.2,0.1-0.4,0.1c-0.1,0-0.1,0-0.2,0.1
				s-0.1,0.1-0.2,0.1c-0.1,0-0.1,0.1-0.2,0.1c-0.1,0-0.1,0.1-0.2,0.1c-0.1,0-0.1,0.1-0.2,0.1c0,0-0.1,0.1-0.2,0.1
				c-0.2,0.2-0.3,0.4-0.4,0.4c-0.1,0.2-0.2,0.3-0.3,0.4C55.3,90.9,55.3,91,55.2,91.1z"/>
		</g>
		<g>
			<path class="st3" d="M93.6,89.2c0.3,0,0.5,0.2,0.8,0.3c0.2,0.1,0.7,0.3,1.1,0.5c0.2,0.1,0.4,0.2,0.5,0.3c0.1,0.1,0.2,0.2,0.2,0.2
				s0.1,0.1,0.2,0.2s0.3,0.2,0.4,0.4c0.1,0.2,0.3,0.4,0.4,0.6s0.1,0.3,0.2,0.4c0,0.1,0.1,0.3,0.1,0.4s0,0.1,0,0.2s0,0.1,0,0.2
				c0.1-0.3,0.2-0.5,0.2-0.8c0-0.1,0-0.3-0.1-0.5s-0.2-0.5-0.3-0.7c-0.2-0.2-0.3-0.4-0.5-0.5c-0.1-0.1-0.2-0.2-0.2-0.2
				s-0.1-0.1-0.3-0.2s-0.4-0.2-0.6-0.3s-0.5-0.2-0.7-0.2s-0.4-0.1-0.5-0.1C94.1,89.2,93.9,89.3,93.6,89.2z"/>
		</g>
	</g>
	<path class="st1" d="M88.3,79.8C86.9,77.2,76.7,77,76.7,77c-1.2-0.1-10.4,0.7-11.6,2.8c0,0-1.5,2.8,0.7,5.4c0,0,8.9-1.5,10.9-1.5
		l0,0l0,0c2.1,0,10.9,1.5,10.9,1.5C89.8,82.6,88.3,79.8,88.3,79.8z"/>
	<path class="st9" d="M87.3,80.5c-1.6-1.7-10.6-1.8-10.6-1.8l0,0l0,0l0,0l0,0c0,0-9,0.1-10.6,1.8c0,0-0.5,1.8,0.4,2.9
		c0,0,8.5-1.4,10.2-1.5l0,0c1.7,0.1,10.2,1.5,10.2,1.5C87.8,82.4,87.3,80.5,87.3,80.5z"/>
	<path class="st1" d="M56.9,116.8c0,0,1.9,5.1,1.4,7.7l2.3,1.7C60.5,126.2,60.4,119.3,56.9,116.8z"/>
	<path class="st1" d="M76.3,125.6c0,0-5.5-1.4-10.9-6.3c0,0,2.7,5.2,10.9,7.3c8.2-2,10.9-7.3,10.9-7.3
		C81.8,124.2,76.3,125.6,76.3,125.6z"/>
	<path class="st1" d="M67.2,80.4c0,0-0.5,1.1,0,2C67.2,82.4,67.5,81.5,67.2,80.4z"/>
	<path class="st1" d="M68,80.3c0,0-0.5,1.1,0,2C68,82.2,68.3,81.3,68,80.3z"/>
	<path class="st1" d="M69.1,80.1c0,0-0.5,1.1,0,2C69.1,82.1,69.4,81.2,69.1,80.1z"/>
	<path class="st1" d="M85.5,80.4c0,0,0.3,1.2-0.4,1.9C85.1,82.4,85,81.5,85.5,80.4z"/>
	<path class="st1" d="M84.6,80.3c0,0,0.3,1.2-0.4,1.9C84.3,82.2,84.2,81.3,84.6,80.3z"/>
	<path class="st1" d="M86.4,80.7c0,0,0.3,1.2-0.4,1.9C86.1,82.6,85.9,81.7,86.4,80.7z"/>
</g>
<g class="st0">
	<g class="st2">
		<g>
			<path class="st3" d="M189.4,93.4c1.3-0.5,7.1,1.3,7.1,1.3c5.8,4.3,10.4,20.8,10.4,20.8c-1.3,9.3,1.4,21.4,1.4,21.4
				c1.1-6.1,28.8-21.7,28.8-21.7c-0.4-0.6-0.8-1.3-1.2-2.1c2.3-1.4,2.8-5.9,2.8-5.9l-4-4.4c0,0,2.4-3,2.4-5.2
				c-1-1.7-3.8-2.9-3.8-2.9s1.5-3.3,2.1-4.9c-1.1-3.2-3.8-4.8-4.7-5.3c-1-6.7-5-7.6-5-7.6c-0.5-2.7-4.6,1.4-4.6,1.4
				c-1.7-5.7-3.9-1.4-3.9-1.4c-3.6,2.2-3.1,5.7-3.1,5.7c-6.8,7.1-15.8-3.2-15.8-3.2C189.3,79.8,189.4,93.4,189.4,93.4z"/>
			<path class="st4" d="M191.2,91.9c0.9-0.1,8,1.7,8,1.7c12.4,1.6,20.4-0.5,23.4-1.5c0,0,0.5-0.3,1.2-0.5c0.1,0,0.1,0,0.1,0l0,0
				c1.2-0.3,2.7-0.3,3.6,1.2c0,0-2.5-0.9-3.8,0.7l0,0c-2.5,12.7-24.5,2.2-24.5,2.2c4.4,2.7,9.8,19.7,9.8,19.7
				c-1.4,5.7,0,17.3,0,17.3c3.3-5.2,25.4-18.4,25.4-18.4c-4.4-6.2-4.7-26.9-4.7-26.9c-0.6-8-3.6-7.9-3.6-7.9
				c0.2-1.3-1.2-1.7-1.2-1.7c-1.3,0.1-4.3,1.9-4.3,1.9c-0.9-4.3-2.9-1.8-2.9-1.8c-2,1.3-2.2,5.6-2.2,5.6c-6.2,8.8-17.4-2.3-17.4-2.3
				C192,81.6,191.2,91.9,191.2,91.9z"/>
			<path class="st3" d="M212,102.2c8.4,2.7,11.2-2.8,11.2-2.8C221.1,106.9,212.1,102.2,212,102.2z"/>
			<path class="st4" d="M231.8,93.4c1.3-1.6,1.9-3.9,1.9-3.9c-1-1.4-2.8-2.8-2.8-2.8L231.8,93.4z"/>
			<path class="st3" d="M231,89.7c0.4-0.3,1.8,0.1,1.8,0.1c-0.2,0.6-1.7,1.1-1.7,1.1L231,89.7z"/>
			<path class="st4" d="M233.1,102.2c1.5-1.6,2.4-3.8,2.4-3.8c-1-1.5-3.4-2.8-3.4-2.8L233.1,102.2z"/>
			<path class="st3" d="M232.3,98.4c0.4-0.3,1.8,0.1,1.8,0.1c-0.2,0.6-1.7,1.1-1.7,1.1L232.3,98.4z"/>
			<path class="st4" d="M235.4,111.5c1.3-1.8,1.9-4.2,1.9-4.2c-1.2-1.3-3.7-2.9-3.7-2.9L235.4,111.5z"/>
			<path class="st3" d="M234.2,107.9c0.3-0.4,1.8-0.1,1.8-0.1c-0.1,0.7-1.5,1.3-1.5,1.3L234.2,107.9z"/>
			<path class="st3" d="M207.8,115.5c2.6,5.4,8.6,3.1,8.6,3.1c-5.7,0.7-7.9-4.8-7.9-4.8L207.8,115.5z"/>
			<path class="st5" d="M200.1,94.7c0,0,13.6,6.7,19.8,2c-3.9,1.1-8.7-0.1-8.7-0.1c4.8,0.2,8.3-0.7,10.1-1.3c0.4-0.5,0.7-1.1,1-1.8
				C222.2,93.4,209.5,97.2,200.1,94.7z"/>
			<path class="st3" d="M222,88.4c0,0-1.1-0.3-1.8-1.3c0.2,0.1,0.3,0.1,0.5,0.2c1.5,0.2,3-1.4,3.4-3.7c0.3-2-0.3-3.8-1.5-4.4
				c1.4-0.1,2.5,1.3,2.5,1.3c-1.3-3.9-4.8-1-4.8-1l0,0c-0.8,0.6-1.5,1.8-1.7,3.2c0,0.3-0.1,0.6-0.1,0.8l0,0
				C218.5,83.5,218.2,88.7,222,88.4z"/>
			<path class="st3" d="M214.9,85.1c1.4,1.2,3.2-0.7,3.2-0.7l0,0c0.6-0.6,1.1-1.6,1.3-2.7c0.3-2.1-0.5-3.9-1.8-4.2
				c-1.3-0.2-2.7,1.3-3.1,3.4c-0.3,1.9,0.4,3.6,1.5,4.1C215.4,85.2,214.9,85.1,214.9,85.1z"/>
			<path class="st5" d="M221.7,79.7c1.1,0.2,1.7,1.9,1.4,3.7c-0.3,1.8-1.5,3.2-2.6,3s-1.7-1.9-1.4-3.7
				C219.5,80.9,220.6,79.5,221.7,79.7z"/>
			<path class="st5" d="M217.5,78.4c1,0.2,1.5,1.7,1.2,3.3s-1.4,2.9-2.3,2.7c-1-0.2-1.5-1.7-1.2-3.3
				C215.5,79.4,216.5,78.2,217.5,78.4z"/>
			<ellipse transform="matrix(0.2045 -0.9789 0.9789 0.2045 73.3014 264.6029)" class="st3" cx="199.4" cy="87.2" rx="2.2" ry="1"/>
			<ellipse transform="matrix(0.2046 -0.9788 0.9788 0.2046 70.8289 259.404)" class="st3" cx="195" cy="86.1" rx="2.2" ry="1"/>
			<path class="st3" d="M220.1,82.4c0.6,0,1.1,0.9,1.1,2s-0.5,2-1.1,2s-1.1-0.9-1.1-2S219.5,82.3,220.1,82.4z"/>
			<ellipse class="st3" cx="216" cy="82.5" rx="1.1" ry="2"/>
			<path class="st3" d="M199.5,84.1c-0.7,0.1-1.2,0.9-1.2,0.9c0.2-1.1,1.1-1.2,1.1-1.2c3,0,2.2,3.4,2.2,3.4
				C201.4,83.9,199.5,84.1,199.5,84.1z"/>
			<path class="st3" d="M194.9,82.5c-0.7,0.1-1.1,0.8-1.1,0.8c0.2-1,1-1.1,1-1.1c2.8,0,2.1,3.3,2.1,3.3
				C196.8,82.3,194.9,82.5,194.9,82.5z"/>
		</g>
		<g>
			<path class="st3" d="M229.7,95c0.2-0.5,0.4-1,0.5-1.7c0-0.1,0-0.1,0-0.2s0-0.2,0-0.3c0-0.1,0-0.2,0-0.4s0-0.3,0-0.5
				c0-0.1,0-0.2,0-0.3s0-0.3-0.1-0.4c0-0.1-0.1-0.2-0.1-0.3c0-0.1,0-0.1,0-0.1s0,0,0-0.1s0-0.2-0.1-0.3c0-0.1-0.1-0.2-0.1-0.3
				c-0.1-0.1-0.1-0.2-0.2-0.3c-0.1-0.1-0.1-0.2-0.2-0.3c-0.1-0.1-0.1-0.2-0.2-0.3c-0.1-0.1-0.1-0.2-0.2-0.2
				c-0.1-0.1-0.1-0.1-0.2-0.2c-0.1-0.1-0.3-0.2-0.4-0.3c-0.1-0.1-0.2-0.1-0.3-0.2c-0.3-0.2-0.6-0.3-0.9-0.4c-0.1,0-0.1,0-0.2,0
				c-0.1,0-0.1,0-0.2,0c-0.1,0-0.1,0-0.2,0h-0.2c-0.5,0-1,0.1-1.5,0.2c0.6-0.1,1,0,1.5,0.1s0.9,0.4,1.4,0.7c0,0,0.1,0.1,0.2,0.2
				c0.1,0.1,0.2,0.2,0.3,0.3c0,0.1,0.1,0.1,0.2,0.2c0,0.1,0.1,0.1,0.2,0.2c0,0.1,0.1,0.2,0.2,0.2c0,0.1,0.1,0.2,0.2,0.3
				c0,0.1,0.1,0.2,0.1,0.3c0,0.1,0.1,0.2,0.1,0.3c0,0.1,0.1,0.2,0.1,0.2c0,0.1,0,0.1,0,0.1s0,0,0,0.1s0,0.2,0.1,0.3
				c0,0.1,0,0.2,0.1,0.3c0,0.1,0,0.2,0,0.3c0,0.2,0,0.3,0,0.5c0,0.1,0,0.3,0,0.4s0,0.2,0,0.3c0,0.1,0,0.1,0,0.2c0,0.6,0,1.2-0.1,1.6
				c-0.1,0.5-0.2,1-0.4,1.5C229.2,95.9,229.5,95.5,229.7,95z"/>
		</g>
		<g>
			<path class="st3" d="M214.4,122.3c-0.1,0-0.3,0-0.4,0c0,0-0.1,0-0.2,0h-0.1h-0.1c-0.1,0-0.2,0-0.3,0s-0.2,0-0.3,0s-0.2,0-0.3,0
				s-0.2,0-0.3,0s-0.2,0-0.2,0s-0.1,0-0.2-0.1c-0.1,0-0.2,0-0.3-0.1c-0.1,0-0.2,0-0.3-0.1c-0.1,0-0.2-0.1-0.3-0.1s-0.2-0.1-0.3-0.1
				c-0.2-0.1-0.4-0.1-0.4-0.1c-0.1-0.1-0.3-0.1-0.4-0.1c-0.1,0-0.2-0.1-0.3-0.1c0.1,0.1,0.2,0.2,0.2,0.3c0.1,0.1,0.1,0.2,0.3,0.3
				c0.1,0.1,0.2,0.2,0.4,0.3c0.1,0.1,0.2,0.1,0.3,0.2s0.2,0.1,0.3,0.2s0.2,0.1,0.3,0.1s0.2,0.1,0.3,0.1c0.2,0,0.3,0.1,0.3,0.1
				s0.1,0,0.3,0c0.1,0,0.2,0,0.3,0s0.2,0,0.4,0c0.1,0,0.3,0,0.4,0c0.1,0,0.2-0.1,0.4-0.1c0.1,0,0.1,0,0.2,0c0,0,0.1,0,0.1-0.1
				c0.1,0,0.1-0.1,0.2-0.1c0.1-0.1,0.3-0.2,0.4-0.3c0.1-0.1,0.2-0.2,0.3-0.2C214.6,122.3,214.5,122.3,214.4,122.3z"/>
		</g>
		<g>
			<path class="st3" d="M211.7,124.7L211.7,124.7c-0.1-0.1-0.2-0.2-0.2-0.2s-0.1,0-0.1-0.1l0,0l0,0h-0.1c0,0,0,0-0.1,0
				c0,0,0,0-0.1,0s-0.1,0-0.1,0c-0.1,0-0.3,0-0.3,0c0,0.1,0,0.2,0,0.3c0,0,0,0.1,0,0.2s0.1,0.2,0.1,0.2c0,0.1,0.1,0.1,0.2,0.2
				c0,0,0,0,0.1,0l0,0c0,0,0,0,0.1,0s0.1,0,0.2,0h0.1h0.1c0.1,0,0.1-0.1,0.2-0.1c0.1-0.1,0.1-0.2,0.2-0.3
				C211.9,124.9,211.8,124.8,211.7,124.7z"/>
		</g>
		<g>
			<path class="st3" d="M205.5,88.7c0-0.5-0.1-1.1-0.4-1.7c0-0.1-0.1-0.2-0.2-0.5c0-0.1-0.1-0.2-0.2-0.4c-0.1-0.1-0.2-0.3-0.3-0.5
				c0-0.1-0.1-0.1-0.1-0.2c-0.1-0.1-0.1-0.2-0.2-0.3c0-0.1-0.1-0.2-0.1-0.2l-0.1-0.1c0,0-0.1-0.1-0.2-0.3c-0.1-0.1-0.3-0.3-0.4-0.4
				c-0.2-0.2-0.3-0.4-0.5-0.5s-0.3-0.3-0.4-0.4c-0.1-0.1-0.2-0.2-0.3-0.3c-0.1-0.1-0.2-0.1-0.2-0.2c-0.6-0.4-1.1-0.7-1.5-0.9
				c-0.5-0.2-0.9-0.3-1.5-0.5c0.5,0.2,0.9,0.5,1.3,0.8c0.4,0.3,0.7,0.7,1.2,1.1c0,0.1,0.1,0.1,0.2,0.2c0.1,0.1,0.2,0.2,0.3,0.3
				c0.1,0.1,0.2,0.3,0.4,0.4c0.1,0.2,0.3,0.3,0.4,0.5c0.1,0.1,0.2,0.3,0.3,0.4s0.2,0.2,0.2,0.2s0,0,0.1,0.1c0,0,0.1,0.1,0.1,0.2
				s0.1,0.2,0.2,0.2c0.1,0.1,0.1,0.2,0.1,0.2c0.1,0.1,0.2,0.3,0.3,0.4s0.1,0.2,0.2,0.3c0.1,0.2,0.2,0.3,0.2,0.4
				c0.3,0.6,0.5,1,0.7,1.5s0.3,0.9,0.3,1.5C205.5,89.7,205.6,89.2,205.5,88.7z"/>
		</g>
	</g>
	<path class="st1" d="M205.3,123.1c-0.4,3.5,0,8.4,2.5,15c0,0,22.6-4.9,28-21.4c4.2,3.2,8.2,0.3,8.2,0.3c-0.7-1-1.5-1.8-2.2-2.3
		c1.3-0.7,1.9-1.7,1.9-1.7c-3.6-2.8-6.8-1.7-8.4-0.8l-1-1.5c0,0-14.4,10.9-25.8,8.4c0,0-0.8,0-1.2,0
		C207.2,119.1,204.5,119.4,205.3,123.1z"/>
	<path class="st9" d="M233.6,113.2c-12.5,9.9-25.8,7.8-25.8,7.8c-0.9,0-1.1,1-0.7,2.6c-1,6,1.9,12.1,1.9,12.1
		c22.7-6.3,25.5-20.2,25.5-20.2L233.6,113.2z"/>
	<path class="st9" d="M235.2,114c3.6,1.4,7-0.8,7-0.8c-3-2.3-7.4,0-7.4,0L235.2,114z"/>
	<path class="st9" d="M242.4,116.9c-3.1,1.4-6.4-1-6.4-1v-0.7c1.1,0.5,4.7,0,4.7,0C241.3,115.1,242.4,116.9,242.4,116.9z"/>
	<path class="st1" d="M206,124.8c14.5,2.1,22.8-5.7,22.8-5.7c-11.8,6.8-23.1,3.9-23.1,3.9L206,124.8z"/>
	<path class="st1" d="M234.3,113.9c2,0.6,4.7-0.6,4.7-0.6c-1.6-0.4-4.3,0.2-4.3,0.2L234.3,113.9z"/>
	<path class="st1" d="M235.5,115c1.6,1.2,5,1.2,5,1.2c-0.6-1-4.7-1.4-4.7-1.4L235.5,115z"/>
</g>
<g class="st0">
	<path class="st1" d="M202,51.3l-7.4-1.6c0,0-4,0.6-1.7,3.7c0,0-3.2,2.8-0.6,4.5c0,0-2.2,3.3,1.3,4.8c0,0,4.7,1.6,11.6,0.3
		c4.2,0.3,6-0.4,7.9-2.3L202,51.3z"/>
	<path class="st1" d="M203.7,60.4c0,0,8.5,3.8,17.6,2.9l-3.2-11.9l-16.9,1.8L203.7,60.4z"/>
	<path class="st10" d="M204.5,53.5c0,0-0.5,3.2,0.9,4.6l1.7,1.2c0,0-0.9,0.1-2.2-0.7c0,0-0.3,2.9,1.2,3.1c0,0,3.1-0.1,4.6-1.3
		c0,0,2.1,1.7,5,0.9l-7.4-8.1L204.5,53.5z"/>
	<g class="st2">
		<g>
			<g>
				<path class="st3" d="M235.6,34.6L235.6,34.6L235.6,34.6c-0.6-0.8-1.9-1.3-3.1-1.6c0.5-0.3,0.8-0.6,0.9-1
					c0.1-0.5-0.1-0.8-0.1-0.8l0,0l0,0c-0.8-0.7-2.5-1-4-1.1c0.6-0.3,1-0.7,1.1-1.2s-0.1-0.8-0.1-0.8l0,0l0,0c-1.2-1-4.2-1.1-5.8-1.1
					l0,0l-1.1-1c-0.1-0.3-0.4-1.5-1.1-2.7c-1-1.9-2.3-2.9-3.8-2.9c-0.8,0-1.6,0.3-2.5,0.9c-0.1,0-0.4,0-0.6,0
					c-1.2,0-2.1-0.2-2.2-0.6l0,0c0-0.1-0.6-1.4-1.8-1.4c-1.1,0-2.3,1.2-3.6,3.6l-2,3c-0.4-0.1-1.4-0.2-2.5-0.2
					c-2.1,0-4.9,0.5-5.8,2.8c-0.4,0.3-1.6,1.9,0,7.5c-0.6,0.6-3.2,3.2-5.5,3.2l0,0c-0.5,0-1-0.1-1.4-0.4h-0.1h-0.1
					c-0.1,0-3.7,0.4-5.5,3c-1.2,1.7-1.4,3.8-0.6,6.5v0.1l0,0c0.2,0.2,4,4,9.9,4c1.2,0,2.4-0.2,3.5-0.5c0.6,0.3,3.7,1.9,6.8,1.9
					c1.1,0.9,11.8,9.3,16.6,9.8h0.1l0.1-0.1c0.1-0.1,2.6-1.9,5.3-5.8c2.5-3.6,5.5-9.6,6-18c0.4-0.3,1.3-1.2,0.9-2.7
					c1.1-0.3,1.7-0.7,2-1.2C235.8,35.1,235.7,34.7,235.6,34.6z"/>
				<path class="st4" d="M225.6,44.8c0,0,4.9-1.1,5.5-4.9c0-0.2,0-0.4,0-0.6c0.4-3.3-4.1-4.9-4.1-4.9c3.4,0.7,4.6,2.8,4.9,3.8
					c0.3-0.7,0.2-1.7-0.8-2.9l-8.8-8c0,0-1.7-7.6-6.1-4.6c0,0-2.6,0.3-3.8-0.9c0,0-1.5-2.1-2.5,0.2l-3.4,5.5c0,0-6.3-1.9-8.1,2
					c0,0-0.3,2.6,0.6,5.5c0,0,3.1-3.1,5.4-4c-0.4-0.4-1.4-0.9-3.8-1.1c0,0,3.6-1,4.8,0.8c0.7-0.1,1.8-0.3,2.5-0.1
					c0,0-4.3,0.5-8.4,5.3c0,0-2.4,3.3-6,4.1l0,0l0,0c-0.1,0-0.3,0-0.4,0.1c-0.7,0.1-2.2,0.5-3.7,1.3c0,0,0.5-0.7,1.8-1.2
					c-0.2,0-0.5-0.1-0.7-0.1c0,0-4.9,0.4-4.6,7c0,0,4.3,3.9,11.8,2.3c0,0,4.3-0.3,6.1-3s9.1-10.2,17.2-10.7c0,0,7.6,0.9,8.8,2.4
					c0,0,3.6,5.1-12.2,5.9c0,0-8,0.5-12.1,3c0,0-3.1,3.6-4.8,4c0,0,3.5,2.4,8.9-0.9c0,0-1.3,2-3.4,2.7c0,0,4,3.3,8.9,6.1
					c2-1.2,7.3-4.9,10.4-10c-0.8,3.4-4.9,9.2-8.7,11c1.2,0.6,2.4,1.2,3.7,1.6c0,0,8.1-4.9,10.2-18.6
					C229.8,43.6,228.2,44.8,225.6,44.8z"/>
				<path class="st3" d="M209.3,22c0,0,1.9-0.9,1.9,2.3c0,0-0.9,4.4-2.5,5.8c0,0-1.9-1.2-2.8-0.5c0,0,0-4.9,3.2-6.4
					c0,0,1-0.2,1.3,0.5C210.5,23.7,210.4,21.6,209.3,22z"/>
				<path class="st3" d="M212.3,29.3c0,0,1.6-6.9,6.2-5.7c0,0,1,0.6,1.2,1.7c0,0-1.5-1.5-2.4-0.8c0,0,2.5,1.3,1.3,4.3
					c0,0-1.3,3.1-2.6,4c0,0-2.7-2.3-4.1-2.4L212.3,29.3z"/>
				<path class="st3" d="M195,45.8c0,0,3.9-3,4.7-1.2C199.7,44.5,199.9,46,195,45.8z"/>
				<path class="st5" d="M206.8,28.6c0,0,1.7-5.9,3.3-4.1c0,0,0.1,2.4-1.6,4.4C208.5,28.9,207.4,28.4,206.8,28.6z"/>
				<path class="st5" d="M213.2,29.6c0,0,1.3-4.3,3-4.6c0,0,1.9-0.2,1.7,2.7c0,0-0.4,2.2-2.1,3.9C215.9,31.7,214.8,30.3,213.2,29.6z
					"/>
				<path class="st5" d="M213.6,41.3c6.4-3.5,13-2.8,15.2-2.5c-0.1-0.2-0.2-0.3-0.2-0.3c-1.5-0.9-7.9-1.7-7.9-1.7
					c-8,1.1-15.3,8.9-15.3,8.9c5.3-2.7,14.2-3.1,14.2-3.1c2.1,0.1,6.1-1.1,6.1-1.1c1.8-0.6,2.7-1.3,3.1-1.8
					C224.1,38.4,213.6,41.3,213.6,41.3z"/>
				<path class="st3" d="M208.6,27.5c-0.3,1-0.9,1.6-1.4,1.5s-0.7-1.1-0.4-2c0.3-1,0.9-1.6,1.4-1.5
					C208.8,25.6,208.9,26.5,208.6,27.5z"/>
				<path class="st3" d="M215.5,28.9c-0.3,1.1-1.1,1.8-1.8,1.6c-0.7-0.2-0.9-1.2-0.6-2.3c0.3-1.1,1.1-1.8,1.8-1.6
					C215.5,26.8,215.8,27.8,215.5,28.9z"/>
				<path class="st3" d="M198.4,42.4c0,0,5.2,0,2.3,3.3C200.7,45.8,202.4,42.9,198.4,42.4z"/>
				<path class="st4" d="M225.1,28.3c0,0,3.3-0.2,3.7,0.4c0,0-0.1,0.4-2,0.9L225.1,28.3z"/>
				<path class="st4" d="M228.6,31.3c0,0,3.1-0.1,3.4,0.3c0,0,0.4,0.7-1.8,1.2L228.6,31.3z"/>
				<path class="st4" d="M231.3,34c0,0,3.2,0.5,3.4,1c0,0-0.1,0.8-2.1,0.6C232.6,35.6,231.5,34.2,231.3,34z"/>
			</g>
			<g>
				<path class="st3" d="M188.1,47.1c0.1-0.2,0.1-0.3,0.2-0.5c0.1-0.1,0.2-0.3,0.3-0.4c0.2-0.3,0.4-0.6,0.6-0.9
					c0-0.1,0.1-0.1,0.2-0.2c0.1-0.1,0.2-0.3,0.3-0.5c0.1-0.1,0.2-0.3,0.3-0.4c0.1-0.1,0.2-0.2,0.2-0.2s0,0,0-0.1l0.1-0.1
					c0-0.1,0.1-0.1,0.2-0.2c0-0.1,0.1-0.1,0.2-0.2c0.1-0.1,0.2-0.2,0.3-0.3s0.2-0.2,0.3-0.2c0.1-0.1,0.1-0.1,0.2-0.2
					c0.1,0,0.1-0.1,0.1-0.1c0.2-0.1,0.3-0.2,0.5-0.3c0.1-0.1,0.3-0.2,0.4-0.3c0.1-0.1,0.3-0.2,0.4-0.2s0.3-0.1,0.5-0.2
					c-0.2,0-0.3,0.1-0.5,0.1s-0.3,0.1-0.5,0.1s-0.3,0.1-0.5,0.2c-0.2,0.1-0.4,0.2-0.6,0.3c0,0-0.1,0.1-0.2,0.1
					c-0.1,0-0.1,0.1-0.2,0.2c-0.1,0.1-0.2,0.1-0.3,0.2c-0.1,0.1-0.2,0.2-0.4,0.3c0,0-0.1,0.1-0.2,0.2c-0.1,0.1-0.1,0.1-0.2,0.2
					c-0.1,0.1-0.1,0.1-0.1,0.2v0.1c0,0-0.1,0.1-0.2,0.3c-0.1,0.1-0.2,0.3-0.3,0.4c-0.1,0.1-0.1,0.2-0.2,0.3c0,0.1-0.1,0.1-0.1,0.2
					c-0.1,0.1-0.1,0.2-0.1,0.3C188.4,45.9,188.3,46.4,188.1,47.1z"/>
			</g>
			<g>
				<path class="st3" d="M213.1,49.4c0.3-0.1,0.6-0.2,0.9-0.3s0.6-0.2,1.1-0.3c0.1,0,0.4-0.1,0.8-0.2c0.1,0,0.1,0,0.2-0.1
					c0.1,0,0.2,0,0.3-0.1c0.2,0,0.3-0.1,0.3-0.1s0.1,0,0.3-0.1c0.2,0,0.4-0.1,0.5-0.1c0.2,0,0.3-0.1,0.4-0.1c0.1,0,0.2,0,0.3-0.1
					c0.2,0,0.4-0.1,0.5-0.1c0.4-0.1,0.7-0.2,1.1-0.3c0.3-0.1,0.6-0.1,1-0.2c-0.4,0-0.7,0-1,0s-0.7,0-1.1,0c-0.1,0-0.3,0-0.5,0.1
					c-0.1,0-0.2,0-0.4,0c-0.1,0-0.3,0-0.5,0.1c-0.1,0-0.4,0.1-0.5,0.1c-0.2,0-0.3,0.1-0.3,0.1s-0.2,0-0.4,0.1
					c-0.1,0-0.2,0.1-0.3,0.1s-0.2,0.1-0.2,0.1c-0.5,0.2-0.7,0.3-0.8,0.3c-0.4,0.2-0.7,0.4-1,0.5C213.6,49.1,213.4,49.3,213.1,49.4z"
					/>
			</g>
			<g>
				<path class="st3" d="M227.3,46.9c0.1-0.1,0.3-0.1,0.4-0.2s0.3-0.1,0.5-0.2c0.1-0.1,0.3-0.2,0.5-0.4c0.1-0.1,0.2-0.2,0.3-0.3
					s0.2-0.2,0.3-0.3s0.2-0.2,0.3-0.3s0.2-0.2,0.2-0.3c0.1-0.2,0.2-0.3,0.2-0.3s0.1-0.1,0.2-0.3c0.1-0.2,0.3-0.4,0.4-0.7
					c0.3-0.6,0.5-1.2,0.6-1.4c0.1-0.4,0.1-0.6,0.3-1c-0.2,0.3-0.4,0.4-0.7,0.7c-0.1,0.1-0.2,0.3-0.4,0.5s-0.3,0.5-0.5,0.7
					c-0.3,0.5-0.6,1-0.6,1s-0.1,0.1-0.2,0.3c0,0.1-0.1,0.2-0.2,0.3c-0.1,0.1-0.1,0.2-0.2,0.4c-0.1,0.1-0.2,0.2-0.2,0.4
					c-0.1,0.1-0.2,0.2-0.2,0.3c-0.1,0.2-0.3,0.4-0.3,0.5c-0.1,0.2-0.2,0.3-0.3,0.4C227.6,46.7,227.5,46.8,227.3,46.9z"/>
			</g>
			<g>
				<path class="st3" d="M201.3,36.1c0.1,0,0.2,0,0.2,0.1c0.1,0,0.2,0.1,0.3,0.1c0,0,0.2,0.1,0.3,0.1s0.3,0.1,0.4,0.1
					c0.1,0,0.3,0.1,0.4,0.1h0.1l0,0c0,0,0.1,0,0.2,0.1c0.1,0,0.2,0.1,0.4,0.1c0.1,0.1,0.3,0.1,0.4,0.2c0.1,0,0.2,0.1,0.3,0.1
					s0.2,0.1,0.3,0.1s0.2,0,0.2,0.1c-0.1-0.1-0.2-0.3-0.3-0.4c0,0-0.1-0.1-0.2-0.2c-0.1-0.1-0.3-0.2-0.4-0.3
					c-0.1-0.1-0.3-0.1-0.4-0.2c-0.1,0-0.2-0.1-0.2-0.1s-0.1,0-0.2-0.1c-0.1,0-0.3-0.1-0.4-0.1c-0.2,0-0.3,0-0.5,0
					c-0.1,0-0.3,0-0.3,0C201.6,36,201.5,36.1,201.3,36.1z"/>
			</g>
			<g>
				<path class="st3" d="M203.6,34.6c0.1,0,0.2,0.1,0.3,0.1c0,0,0.1,0,0.2,0.1c0.1,0,0.2,0.1,0.3,0.1c0,0,0,0,0.1,0c0,0,0,0,0.1,0
					h0.1h0.1l0,0c0,0,0,0,0.1,0s0.1,0,0.2,0.1c0.1,0,0.2,0.1,0.3,0.1s0.2,0,0.2,0c0.1,0,0.3,0,0.4,0.1c-0.1-0.1-0.1-0.2-0.2-0.3
					c0,0-0.1-0.1-0.1-0.2c-0.1-0.1-0.2-0.1-0.3-0.2c-0.1-0.1-0.2-0.1-0.3-0.1s-0.1,0-0.1,0l0,0c0,0,0,0-0.1,0s-0.2,0-0.3,0
					s-0.2,0-0.3,0s-0.2,0-0.2,0C203.8,34.5,203.7,34.6,203.6,34.6z"/>
			</g>
			<g>
				<path class="st3" d="M206,33.3c0,0,0,0.1,0,0.2v0.1l0.1,0.1c0.1,0.1,0.2,0.1,0.2,0.1s0.1,0,0.2,0.1h0.1h0.1c0.1,0,0.2,0,0.2,0
					s0-0.1,0-0.2v-0.1l-0.1-0.1c-0.1-0.1-0.2-0.1-0.2-0.1s-0.1,0-0.2-0.1h-0.1h-0.1C206.2,33.3,206.1,33.3,206,33.3z"/>
			</g>
		</g>
		<g>
			<g>
				<path class="st3" d="M236.1,23.7c0,0-0.3-1.2-1.7-2c-2.5-1.5-6.5-0.9-9.5-0.1l-0.6-2.9l0,0c0-0.1-0.9-2.8-3.1-3.5
					c-0.2-0.1-2.6-1.3-3.4-2.2l0,0l0,0c0,0-5.1-2.9-8.7,1.2v0.1v0.1c-0.6,2.3-1.5,5-1.9,5.5c-0.8-0.1-4.6-0.7-6.3-1.7l0,0
					c-0.1,0-2.5-0.9-3.7,0.1c-0.5,0.4-0.7,1.1-0.6,2.1c0,0.4,0.2,1.9,4.3,3.5c0.2,0.1,0.3,0.1,0.5,0.2c1.2,0.5,2.6,1,4.9,1.5l0,0
					l1.2-0.2c0.7,0.2,5.8,1.8,14.1,0.4c0.2,0.1,0.7,0.4,2.1,1.8c0,0,0.1,0.1,0.2,0.2c1.3,1.8,1.7,2.1,2.1,2h0.1
					c0.3,0.1,0.7,0.4,1,0.6l0,0l0,0c0.1,0,1.2,0.2,2.6,0.2c2,0,4.5-0.4,5.9-1.9C236.5,27.2,236.7,25.7,236.1,23.7z"/>
				<g>
					<path class="st7" d="M223.2,24.4c6.1-1.3,9.7-2.4,11.1-0.1c0,0,1.8,2.6-1.8,4c-1.6,0.6-1.9,0.6-5.1,0.3
						C226,26.7,224.5,25.5,223.2,24.4z"/>
				</g>
				<g>
					<path class="st7" d="M223.2,21.5c0,0,0.2-3.5-1.9-4.6c0,0-2.5-1.3-3.8-2.4c-1.4-1.1-4.7-2.6-7.4,0.3c0,0-0.9,5.3-2,6.5
						c0,0,7.8,0.4,9.9-0.1C219.3,21,222.3,20.8,223.2,21.5z"/>
				</g>
				<g>
					<path class="st7" d="M222.7,22.7c0,0-3.3-0.4-4.9,0c0,0-10.6,0.9-13.2-1.5l1.9,0.4l0.3-0.5c0,0-4.7-1.1-6.5-2.2
						c0,0-2.3-1-2.3,0.9c0,0,0.6,2,6.1,3c0,0,8.9,2,14.7,0.4C218.8,23.5,220.2,23.1,222.7,22.7z"/>
				</g>
				<g>
					<g>
						<path class="st3" d="M220.8,19.7C220.8,19.7,220.8,19.8,220.8,19.7c0.1,0.1,0.1,0.1,0.1,0.1s0.1,0,0.1,0.1
							c0.1,0,0.1,0.1,0.1,0.1h0.1h0.1h0.1c0.1,0,0.1,0,0.1,0s-0.1,0-0.1-0.1c0,0,0,0-0.1,0c0,0-0.1,0-0.1-0.1h-0.1l0,0H221h-0.1
							h-0.1C220.9,19.7,220.8,19.7,220.8,19.7z"/>
					</g>
				</g>
				<g>
					<g>
						<path class="st3" d="M220.9,19.2C221,19.2,221,19.3,220.9,19.2c0.1,0.1,0.1,0.1,0.1,0.1s0,0,0.1,0c0,0,0,0,0.1,0l0,0
							c0,0,0,0,0.1,0h0.1c0,0,0,0,0.1,0h0.1c0,0,0,0-0.1-0.1l0,0c0,0,0,0-0.1,0s-0.1,0-0.1,0h-0.1h-0.1c0,0,0,0-0.1,0
							C221,19.2,221,19.2,220.9,19.2z"/>
					</g>
				</g>
				<g>
					<g>
						<path class="st3" d="M221,18.6L221,18.6L221,18.6C221.1,18.6,221.1,18.7,221,18.6c0.1,0.1,0.1,0.1,0.1,0.1l0,0l0,0l0,0l0,0
							l0,0C221.1,18.7,221.1,18.6,221,18.6L221,18.6L221,18.6L221,18.6L221,18.6C221.1,18.5,221.1,18.5,221,18.6
							C221.1,18.5,221.1,18.6,221,18.6c0.1,0,0.1,0,0.1,0l0,0l0,0l0,0l0,0l0,0l0,0l0,0l0,0l0,0l0,0l0,0l0,0l0,0
							C221,18.5,221,18.5,221,18.6C221,18.5,221,18.5,221,18.6L221,18.6z"/>
					</g>
				</g>
				<path class="st3" d="M216.5,13.8c0,0,1.1,1,1.9,2.3c0.2,0.3,0.9,1.1,1.7,0.9c-0.5-0.1-1.2-0.9-1.4-2.1L216.5,13.8z"/>
			</g>
			<path class="st3" d="M233.3,25.8c0,0-0.1-2.8-9.2-0.1l0.7,0.6C224.8,26.3,232,23.8,233.3,25.8z"/>
		</g>
	</g>
	<path class="st1" d="M233.5,36.8c0,0,12.3,10,13.7,16.7l2.3,9l-28.3,0.9c0,0,8.4-11.3,11-22.2C231.7,38.7,233.4,38.1,233.5,36.8z"
		/>
	<path class="st6" d="M233.3,39.8c0,0,3.9,4.3,3.2,9.6c0,0-2.5,9-13.2,12.2C223.3,61.5,233.9,48.9,233.3,39.8z"/>
	<path class="st6" d="M235.7,41.2c0,0,8.1,7.1,9.4,11.3l2.4,8.6l-19.7,0.4c0,0,8.3-4.8,9.8-9.9C237.6,51.6,240,46.5,235.7,41.2z"/>
	<path class="st10" d="M194.4,50.8c0,0-1,1.1,0,2.5c0,0,4.7,0.9,7.6,0.7c0,0-0.8-1.8-2.3-2.6L194.4,50.8z"/>
	<path class="st10" d="M194.3,54.1c0,0-2.6,2-0.3,3.4c0,0,5.4,1.4,9.2,0c0,0-0.7-1.6-2-1.9C201.2,55.5,195.7,54.7,194.3,54.1z"/>
	<path class="st10" d="M193.5,58.5c0,0-1,1.8,0.6,3.1c0,0,5.2,1.2,10.2,0c0,0-1.1-1.8-2.6-2.1C201.6,59.5,196,59.5,193.5,58.5z"/>
	<path class="st1" d="M210.5,56.9c0,0,0.6,2.1,0.3,2.9c0,0,1-1,0.9-2.4L210.5,56.9z"/>
	<path class="st1" d="M212.4,58.5c0,0,0.1,2.6-0.4,3.1c0,0,3.5,1.3,4.6,0.1l-0.2-1.5L212.4,58.5z"/>
	<path class="st6" d="M213.7,59.5c0-0.1-0.1,1.4-0.3,2c0,0,3.8,0.7,5.2,0.5C218.5,62.1,214.7,60.5,213.7,59.5z"/>
	<path class="st1" d="M196,58.5c0,0-0.7,0.6-0.7,1.6c0,0,1-1.1,1.8-1.1L196,58.5z"/>
	<path class="st1" d="M196,54.2c0,0-0.7,0.6-0.7,1.6c0,0,1-1.1,1.8-1.1L196,54.2z"/>
	<path class="st1" d="M196.2,50.5c0,0-0.7,0.6-0.7,1.6c0,0,1-1.1,1.8-1.1L196.2,50.5z"/>
</g>
<g class="st0">
	<g class="st2">
		<path class="st11" d="M208.6,36.2c-0.6,0-1.1-0.2-1.6-0.7c-0.8-0.9-0.8-2.3,0.1-3.1c4.9-4.7,6.2-11.9,3.3-18
			c-3.7-7.8-13-11.1-20.8-7.4c-6.4,3-9.9,10-8.7,16.9c0.2,1.2-0.6,2.3-1.8,2.5s-2.3-0.6-2.5-1.8c-1.6-8.9,3-17.7,11.1-21.6
			c9.9-4.7,21.9-0.5,26.6,9.5c3.7,7.8,2,17.1-4.2,23C209.7,36,209.1,36.2,208.6,36.2L208.6,36.2z"/>
	</g>
	<g class="st2">
		<path class="st12" d="M151.6,58l20.5,1.6l1.6-6.9l-5-5.1h-17.1l-3,5.1L151.6,58z"/>
	</g>
	<g class="st2">
		<path class="st13" d="M139.7,58.7c0,2,2.1,3.3,4.1,2.5l7.7-3.2V47.5l-7.7-3.2c-2-0.8-4.1,0.4-4.1,2.5V58.7z"/>
	</g>
	<g class="st2">
		<path class="st14" d="M143.9,56.4c-2,0.8-4.1-0.4-4.1-2.5v4.7c0,2,2.1,3.3,4.1,2.5l7.7-3.2v-4.7l-1.5,0.6L143.9,56.4z"/>
	</g>
	<g class="st2">
		<path class="st15" d="M163.6,54.1l-12-0.9V58l20.5,1.6l-3.5-12h-4.3l0.8,2.9C165.9,53.2,166.5,54.4,163.6,54.1L163.6,54.1z"/>
	</g>
	<g class="st2">
		<path class="st13" d="M173.9,65.7c0.7,2.5,3.9,3.3,6.2,2.2l34.1-16.2c2.3-1.1,3.7-4.1,2.2-6.2l-7.9-11.4l-6.5-9.4l-20.2,7l-15,9.8
			l1.8,6.1l3.5,12L173.9,65.7z"/>
	</g>
	<g class="st2">
		<path class="st12" d="M166.8,41.4l16.6-7.9l18.6-8.9l-3.2-4.7c-1.5-2.1-3.9-3.3-6.3-2.2l-13.8,6.6l-11.3,5.4
			c-2.3,1.1-2.9,3.8-2.2,6.2L166.8,41.4z"/>
	</g>
	<g class="st2">
		<path class="st15" d="M192.6,17.8l-7.4,3.5c2.3-1.1,4.8,0.1,6.2,2.2l2.7,3.9l0.5,0.8l7.4-3.5l-3.2-4.7
			C197.4,17.9,194.9,16.7,192.6,17.8z"/>
	</g>
	<g class="st2">
		<path class="st14" d="M202.1,24.7l-7.4,3.5l6.5,9.4l0.4,0.6l7.5,10.8c1.5,2.1,0.1,5.1-2.2,6.2l7.4-3.5c2.3-1.1,3.7-4.1,2.2-6.2
			l-7.9-11.4L202.1,24.7z"/>
	</g>
	<g class="st2">
		<path class="st16" d="M79,148h137.7c1.9,0,3.4-1.5,3.5-3.4v-0.1v-13.2v-0.1c0-1.9-1.6-3.4-3.5-3.4H200h-52.2H95.6H79
			c-1.9,0-3.4,1.5-3.5,3.4v0.1v13.2v0.1C75.5,146.5,77.1,148,79,148L79,148z"/>
	</g>
	<g class="st2">
		<path class="st17" d="M109.2,140.1c-0.6,0-1.1-0.2-1.5-0.6l0,0c-0.9-0.9-0.9-2.2,0-3.1c0.9-0.9,2.2-0.9,3.1,0s0.9,2.2,0,3.1
			C110.3,139.9,109.8,140.1,109.2,140.1z"/>
	</g>
	<g class="st2">
		<path class="st17" d="M130.4,141.2c-0.6,0-1.1-0.2-1.5-0.6l0,0c-0.9-0.9-0.9-2.2,0-3.1c0.9-0.9,2.2-0.9,3.1,0
			c0.9,0.9,0.9,2.2,0,3.1C131.5,141,131,141.2,130.4,141.2L130.4,141.2z"/>
	</g>
	<g class="st2">
		<path class="st17" d="M164.5,140.1c-0.6,0-1.1-0.2-1.5-0.6l0,0c-0.9-0.9-0.9-2.2,0-3.1c0.9-0.9,2.2-0.9,3.1,0
			c0.9,0.9,0.9,2.2,0,3.1C165.6,139.9,165,140.1,164.5,140.1z"/>
	</g>
	<g class="st2">
		<path class="st17" d="M182.8,141.2c-0.6,0-1.1-0.2-1.5-0.6l0,0c-0.9-0.9-0.9-2.2,0-3.1c0.9-0.9,2.2-0.9,3.1,0
			c0.9,0.9,0.9,2.2,0,3.1C183.9,141,183.4,141.2,182.8,141.2z"/>
	</g>
	<g class="st2">
		<path class="st18" d="M111.2,83c-1.2,0-2.2-1-2.2-2.2v-7.2c0-1.2,1-2.2,2.2-2.2s2.2,1,2.2,2.2v7.2C113.3,82.1,112.4,83,111.2,83z
			 M111.2,66.2c-1.2,0-2.2-1-2.2-2.2v-4.9c0-6.1,4.9-11,11-11h4.5c1.2,0,2.2,1,2.2,2.2s-1,2.2-2.2,2.2H120c-3.7,0-6.6,3-6.6,6.6V64
			C113.3,65.2,112.4,66.2,111.2,66.2z"/>
	</g>
	<g class="st2">
		<path class="st18" d="M121.4,74.7c-1.2,0-2.2-1-2.2-2.2V62c0-3.4,2.8-6.1,6.1-6.1h3.9c1.2,0,2.2,1,2.2,2.2s-1,2.2-2.2,2.2h-3.9
			c-1,0-1.8,0.8-1.8,1.8v10.6C123.6,73.8,122.6,74.7,121.4,74.7z"/>
	</g>
	<g class="st2">
		<path class="st19" d="M95.6,119.2l10.1-1c5.5-0.6,10-5.6,10-11.1v-8.4c0-1-0.8-1.7-1.7-1.6l-8.4,0.8c-5.5,0.6-10,5.6-10,11.1v2.6
			V119.2z"/>
	</g>
	<g class="st2">
		<path class="st20" d="M105.8,118.2c5.5-0.6,10-5.6,10-11.1v-8.4c0-1-0.8-1.7-1.7-1.6l-2.6,0.3v6.7c0,5.6-3.9,9.6-9.5,10.1
			l-2.9,0.3l-3.4,0.3v4.3L105.8,118.2z"/>
	</g>
	<g class="st2">
		<path class="st21" d="M96.2,120.8c-0.5,0-1-0.2-1.5-0.6c-0.9-0.8-1-2.2-0.2-3.1l8.8-9.8c0.8-0.9,2.2-1,3.1-0.2s1,2.2,0.2,3.1
			l-8.8,9.8C97.3,120.6,96.7,120.8,96.2,120.8L96.2,120.8z"/>
	</g>
	<g class="st2">
		<path class="st22" d="M211,131.3v13.2c0,1.9-1.6,3.5-3.5,3.5h9.1c1.9,0,3.4-1.5,3.5-3.4v-0.1v-13.2v-0.1c0-1.9-1.6-3.4-3.5-3.4
			h-9.1C209.4,127.8,211,129.4,211,131.3z"/>
	</g>
	<g class="st2">
		<path class="st19" d="M95.7,108l-10.1-1c-5.5-0.6-10-5.6-10-11.1v-8.4c0-1,0.8-1.7,1.7-1.6l8.4,0.8c5.5,0.6,10,5.6,10,11.1v2.6
			V108z"/>
	</g>
	<g class="st2">
		<path class="st20" d="M85.6,106.9c-5.5-0.6-10-5.6-10-11.1v-8.4c0-1,0.8-1.7,1.7-1.6l2.6,0.3v6.7c0,5.6,3.9,9.6,9.5,10.1l2.9,0.3
			l3.4,0.3v4.3L85.6,106.9z"/>
	</g>
	<g class="st2">
		<path class="st21" d="M95.2,109.6c-0.6,0-1.2-0.2-1.6-0.7l-8.8-9.8C84,98.2,84.1,96.8,85,96s2.3-0.7,3.1,0.2l8.8,9.8
			c0.8,0.9,0.7,2.3-0.2,3.1C96.2,109.4,95.7,109.6,95.2,109.6L95.2,109.6z"/>
	</g>
	<g class="st2">
		<path class="st23" d="M97.8,97.8V130h-4.4V97.8c0-1.2,1-2.2,2.2-2.2C96.9,95.6,97.8,96.6,97.8,97.8L97.8,97.8z"/>
	</g>
	<g class="st2">
		<path class="st19" d="M147.8,119.2l10.1-1c5.5-0.6,10-5.6,10-11.1v-8.4c0-1-0.8-1.7-1.7-1.6l-8.4,0.8c-5.5,0.6-10,5.6-10,11.1v2.6
			L147.8,119.2L147.8,119.2z"/>
	</g>
	<g class="st2">
		<path class="st20" d="M157.9,118.2c5.5-0.6,10-5.6,10-11.1v-8.4c0-1-0.8-1.7-1.7-1.6l-2.6,0.3v6.7c0,5.6-3.9,9.6-9.5,10.1
			l-2.9,0.3l-3.4,0.3v4.3L157.9,118.2z"/>
	</g>
	<g class="st2">
		<path class="st21" d="M148.3,120.8c-0.5,0-1-0.2-1.5-0.6c-0.9-0.8-1-2.2-0.2-3.1l8.8-9.8c0.8-0.9,2.2-1,3.1-0.2
			c0.9,0.8,1,2.2,0.2,3.1l-8.8,9.8C149.5,120.6,148.9,120.8,148.3,120.8L148.3,120.8z"/>
	</g>
	<g class="st2">
		<path class="st19" d="M147.9,108l-10.1-1c-5.5-0.6-10-5.6-10-11.1v-8.4c0-1,0.8-1.7,1.7-1.6l8.4,0.8c5.5,0.6,10,5.6,10,11.1v2.6
			L147.9,108L147.9,108z"/>
	</g>
	<g class="st2">
		<path class="st20" d="M137.7,106.9c-5.5-0.6-10-5.6-10-11.1v-8.4c0-1,0.8-1.7,1.7-1.6l2.6,0.3v6.7c0,5.6,3.9,9.6,9.5,10.1l2.9,0.3
			l3.4,0.3v4.3L137.7,106.9z"/>
	</g>
	<g class="st2">
		<path class="st21" d="M147.4,109.6c-0.6,0-1.2-0.2-1.6-0.7l-8.8-9.8c-0.8-0.9-0.7-2.3,0.2-3.1s2.3-0.7,3.1,0.2l8.8,9.8
			c0.8,0.9,0.7,2.3-0.2,3.1C148.4,109.4,147.9,109.6,147.4,109.6L147.4,109.6z"/>
	</g>
	<g class="st2">
		<path class="st23" d="M150,130v-4.4V97.8c0-1.2-1-2.2-2.2-2.2s-2.2,1-2.2,2.2v27.8v4.4H150z"/>
	</g>
	<g class="st2">
		<path class="st19" d="M200,119.2l10.1-1c5.5-0.6,10-5.6,10-11.1v-8.4c0-1-0.8-1.7-1.7-1.6l-8.4,0.8c-5.5,0.6-10,5.6-10,11.1v2.6
			L200,119.2L200,119.2z"/>
	</g>
	<g class="st2">
		<path class="st20" d="M210.1,118.2c5.5-0.6,10-5.6,10-11.1v-8.4c0-1-0.8-1.7-1.7-1.6l-2.6,0.3v6.7c0,5.6-3.9,9.6-9.5,10.1
			l-2.9,0.3l-3.4,0.3v4.3L210.1,118.2z"/>
	</g>
	<g class="st2">
		<path class="st21" d="M200.5,120.8c-0.5,0-1-0.2-1.5-0.6c-0.9-0.8-1-2.2-0.2-3.1l8.8-9.8c0.8-0.9,2.2-1,3.1-0.2
			c0.9,0.8,1,2.2,0.2,3.1l-8.8,9.8C201.7,120.6,201.1,120.8,200.5,120.8L200.5,120.8z"/>
	</g>
	<g class="st2">
		<path class="st19" d="M200,108l-10.1-1c-5.5-0.6-10-5.6-10-11.1v-8.4c0-1,0.8-1.7,1.7-1.6l8.4,0.8c5.5,0.6,10,5.6,10,11.1v2.6
			L200,108L200,108z"/>
	</g>
	<g class="st2">
		<path class="st20" d="M189.9,106.9c-5.5-0.6-10-5.6-10-11.1v-8.4c0-1,0.8-1.7,1.7-1.6l2.6,0.3v6.7c0,5.6,3.9,9.6,9.5,10.1l2.9,0.3
			l3.4,0.3v4.3L189.9,106.9z"/>
	</g>
	<g class="st2">
		<path class="st21" d="M199.5,109.6c-0.6,0-1.2-0.2-1.6-0.7l-8.8-9.8c-0.8-0.9-0.7-2.3,0.2-3.1s2.3-0.7,3.1,0.2l8.8,9.8
			c0.8,0.9,0.7,2.3-0.2,3.1C200.6,109.4,200,109.6,199.5,109.6L199.5,109.6z"/>
	</g>
	<g class="st2">
		<path class="st23" d="M202.2,97.8V130h-4.4V97.8c0-1.2,1-2.2,2.2-2.2C201.2,95.6,202.2,96.6,202.2,97.8L202.2,97.8z"/>
	</g>
</g>
<circle class="st24" cx="105.8" cy="129.1" r="7.1"/>
<path class="st17" d="M153.2,124.3h-4.7v-4.7h4.7V124.3z"/>
<path class="st17" d="M148.5,17.8h-4.7v-4.7h4.7V17.8z"/>
<path class="st25" d="M139,93.6l14.2-14.2"/>
<path class="st26" d="M197.5,58.1c4.3,0,7.7,3.5,7.7,7.7v8.9l0,0h-8.9l0,0c-4.3,0-7.7-3.5-7.7-7.7v-8.9l0,0H197.5L197.5,58.1z"/>
<path class="st27" d="M205.3,69.9V61l0,0c0-4.3,3.5-7.7,7.7-7.7h8.9l0,0v8.9l0,0c0,4.3-3.5,7.7-7.7,7.7L205.3,69.9L205.3,69.9z"/>
<g>
	<path class="st21" d="M205.4,69.1c-0.4-0.1-0.7-0.3-1.1-0.7c-0.6-0.8-0.5-1.9,0.3-2.4l8.3-6.3c0.8-0.6,1.9-0.5,2.4,0.3
		c0.6,0.8,0.5,1.9-0.3,2.4l-8.3,6.3C206.3,69.1,205.8,69.1,205.4,69.1L205.4,69.1z"/>
</g>
<g>
	<path class="st21" d="M196,67.4c0-0.4,0.1-0.8,0.4-1.2c0.5-0.7,1.6-0.9,2.3-0.4l8,6c0.7,0.5,0.9,1.6,0.4,2.3
		c-0.5,0.7-1.6,0.9-2.3,0.4l-8-6C196.2,68.3,196,67.9,196,67.4L196,67.4z"/>
</g>
<path class="st23" d="M207.6,86.5h-4.7v-45h4.7V86.5z"/>
<path class="st26" d="M199.1,40.1c-1.8-1.8-1.8-4.8,0-6.7l6.1-8.5l6.1,8.5c1.8,1.8,1.8,4.8,0,6.7l-6.1,6.1L199.1,40.1z"/>
<path class="st27" d="M166.8,27.3c4.3,0,7.7,3.5,7.7,7.7v8.9l0,0h-8.9l0,0c-4.3,0-7.7-3.5-7.7-7.7v-8.9l0,0L166.8,27.3L166.8,27.3z"
	/>
<path class="st26" d="M174.5,48.6v-8.9l0,0c0-4.3,3.5-7.7,7.7-7.7h8.9l0,0v8.9l0,0c0,4.3-3.5,7.7-7.7,7.7L174.5,48.6L174.5,48.6z"/>
<g>
	<path class="st24" d="M201.2,115.4c0,0,6.4,7,6.7,10.2c0.2,3.3-2.2,6.1-5.5,6.3s-6.1-2.2-6.3-5.5
		C195.9,123.1,201.2,115.4,201.2,115.4z"/>
	<path class="st24" d="M216.6,130.9c0,0,6.4,7,6.7,10.2c0.2,3.3-2.2,6.1-5.5,6.3s-6.1-2.2-6.3-5.5
		C211.2,138.7,216.6,130.9,216.6,130.9z"/>
	<path class="st24" d="M214,95.5c0,0,6.4,7,6.7,10.2c0.2,3.3-2.2,6.1-5.5,6.3s-6.1-2.2-6.3-5.5C208.6,103.3,214,95.5,214,95.5z"/>
</g>
<g>
	<path class="st21" d="M174,48.9c-0.4-0.1-0.7-0.3-1.1-0.7c-0.6-0.8-0.5-1.9,0.3-2.4l8.3-6.3c0.8-0.6,1.9-0.5,2.4,0.3
		c0.6,0.8,0.5,1.9-0.3,2.4l-8.3,6.3C174.9,48.9,174.4,49,174,48.9L174,48.9z"/>
</g>
<g>
	<path class="st21" d="M176.6,41.9c0,0.4-0.1,0.8-0.4,1.2c-0.6,0.8-1.7,0.9-2.4,0.3l-8.2-6.4c-0.8-0.6-0.9-1.7-0.3-2.4
		c0.6-0.8,1.7-0.9,2.4-0.3l8.2,6.4C176.4,41,176.6,41.4,176.6,41.9L176.6,41.9z"/>
</g>
<path class="st23" d="M176.9,133.8h-4.7v-116h4.7V133.8z"/>
<path class="st28" d="M72.7,148h132.5c0,0-16.6-21.3-42.6-11.8s-80.5,9.5-80.5,9.5l-9.5-0.3L72.7,148L72.7,148z"/>
<path class="st11" d="M143.7,97.5l46.8-6.1l1.7,11.7l-60,7.5L143.7,97.5z"/>
<path class="st11" d="M86.8,57.9c-0.3-0.3-0.5-0.6-0.6-1s-3.2-10.5-3-21.3c0-0.3,0.1-0.6,0.2-0.8l9-22.6c0.1-0.3,0.3-0.6,0.5-0.8
	c0.8-0.8,1.6-1.5,2.4-2.2c5.7-4.7,11.4-6.4,16.8-5c9.6,2.3,15,13.4,15.7,14.9l4.3,6.9l-4,2.5l-4.4-7.1c-0.1-0.1-0.1-0.2-0.2-0.3
	c0-0.1-4.7-10.5-12.6-12.4c-3.9-1-8.2,0.4-12.7,4.1c-0.6,0.5-1.2,1-1.7,1.5L88,36.1c-0.1,8.5,2,16.6,2.6,18.8l5.2,4.9l-3.3,3.4
	L86.8,57.9z"/>
<path class="st29" d="M72.7,29.7h2.4l14.1,8c1.4,0.8,3.1,0.3,4-1l4.2-7.1c0.8-1.3,2.4-1.8,3.8-1.1c1.3,0.7,2.9,0.2,3.7-1l1.7-2.5
	c0.9-1.3,0.5-3.2-0.8-4.1L94,13.2c11.8-7.1,7.1-11.9,7.1-11.9L79.8,6h-7.1"/>
<path class="st18" d="M174.3,74.2l-41,41c-3.5,3.5-9.1,3.5-12.6,0L81.4,75.9c-3.5-3.5-3.5-9.1,0-12.6l41-41c3.5-3.5,9.1-3.5,12.6,0
	l39.3,39.3C177.7,65.1,177.7,70.8,174.3,74.2z"/>
<path class="st17" d="M136.6,74.2l-7.4,4l-4,7.4l-4-7.4l-7.4-4l7.4-4l4-7.4l4,7.4L136.6,74.2z"/>
<path class="st30" d="M162.7,69.9H158v-4.7h4.7V69.9z"/>
<path class="st31" d="M120,24.7c8.4,7.6,36.2,34.4,30.8,51.2c-4.1,12.7-10.3,27.3-14.2,36l37.6-37.6l0,0c3.5-3.5,3.5-9.1,0-12.6
	l-39.3-39.3c-3.5-3.5-9.1-3.5-12.6,0L120,24.7L120,24.7z"/>
<path class="st26" d="M168.4,16.4c-1.8-1.8-1.8-4.8,0-6.7l6.1-8.5l6.1,8.5c1.8,1.8,1.8,4.8,0,6.7l-6.1,6.1L168.4,16.4z"/>
<g>
	<path class="st17" d="M185.5,144.3c-0.6,0-1.1-0.2-1.5-0.6l0,0c-0.9-0.9-0.9-2.2,0-3.1c0.9-0.9,2.2-0.9,3.1,0
		c0.9,0.9,0.9,2.2,0,3.1C186.6,144.1,186,144.3,185.5,144.3z"/>
</g>
<g>
	<path class="st17" d="M154.1,147.3c-0.6,0-1.1-0.2-1.5-0.6l0,0c-0.9-0.9-0.9-2.2,0-3.1c0.9-0.9,2.2-0.9,3.1,0
		c0.9,0.9,0.9,2.2,0,3.1C155.2,147.1,154.6,147.3,154.1,147.3z"/>
</g>
<g>
	<path class="st13" d="M202.3,88.9c-0.3-2.2-2.9-3.3-5-2.1l-8.1,4.8l1.7,11.6l9.2,2.2c2.4,0.5,4.5-1.1,4.2-3.4L202.3,88.9z"/>
</g>
</svg>
