<?xml version="1.0" encoding="utf-8"?>
<!-- Generator: Adobe Illustrator 24.2.3, SVG Export Plug-In . SVG Version: 6.00 Build 0)  -->
<svg version="1.1" id="Слой_1" xmlns="http://www.w3.org/2000/svg" xmlns:xlink="http://www.w3.org/1999/xlink" x="0px" y="0px"
	 viewBox="0 0 1352 587" style="enable-background:new 0 0 1352 587;" xml:space="preserve">
<style type="text/css">
	.st0{display:none;}
	.st1{display:inline;}
	.st2{fill:#013927;}
	.st3{fill:#A97C50;}
	.st4{fill:#70C387;}
	.st5{fill:#FFECBD;}
	.st6{fill:#F15C22;}
	.st7{fill:url(#SVGID_1_);}
	.st8{fill:url(#SVGID_2_);}
	.st9{fill:url(#SVGID_3_);}
	.st10{fill:url(#SVGID_4_);}
	.st11{fill:url(#SVGID_5_);}
	.st12{fill:url(#SVGID_6_);}
	.st13{fill:url(#SVGID_7_);}
	.st14{fill:url(#SVGID_8_);}
	.st15{fill:url(#SVGID_9_);}
	.st16{fill:url(#SVGID_10_);}
	.st17{fill:#1CA56F;}
	.st18{fill:#6C3328;}
	.st19{fill:#FCB44D;}
	.st20{fill:#FB9927;}
	.st21{fill:#A3E440;}
	.st22{fill:#64B9FC;}
	.st23{fill:#31A7FB;}
	.st24{fill:#FFD496;}
	.st25{fill:#FCC16D;}
	.st26{fill:#96756F;}
	.st27{fill:#80635E;}
	.st28{fill:#D6A59D;}
	.st29{fill:#AC8380;}
	.st30{fill:#C4E1FF;}
	.st31{fill:#8DCAFC;}
</style>
<g class="st0">
	<g class="st1">
		<path class="st2" d="M452.3,439c0,0-36.1,16.1-62.1,13.2c-26,2.9-62.1-13.2-62.1-13.2c-32.8-8.1-49.8,21.1-49.8,21.1
			s43,51.6,111.9,62.7c69-11.1,111.9-62.7,111.9-62.7S485.1,430.9,452.3,439z"/>
		<path class="st3" d="M493.5,459.2c-26.5-33.6-103.3,5.5-103.3,5.5s-76.8-39.2-103.3-5.5c0,0,39.3,43.8,103.3,55.7l0,0l0,0l0,0l0,0
			C454.1,503,493.5,459.2,493.5,459.2z"/>
		<path class="st2" d="M465.7,458.5c0,0-7.4,19.4-5.2,29.4l-8.6,6.5C451.8,494.4,452.1,468,465.7,458.5z"/>
		<g>
			<g>
				<path class="st2" d="M478.9,343.3c-3.8-3.9-8.8-5.9-15-5.9c-10,0-19.7,5.3-21.7,6.5c-4.9-0.7-8.3-4-10.1-9.7
					c-1.4-4.6-1.2-9-1.2-9v-0.4l-0.2-0.3c-8.4-14.6-17.4-22-26.4-22c-7,0-12.1,4.6-14.1,6.7c-2-2.2-7.1-6.7-14.1-6.7
					c-9.1,0-18,7.4-26.4,22l-0.2,0.3v0.4c0,0.1,0.2,4.5-1.2,9c-1.8,5.7-5.2,8.9-10.1,9.7c-2-1.2-11.7-6.5-21.7-6.5
					c-6.1,0-11.2,2-15,5.9c-6,6.2-8.9,17.2-8.4,32.7v0.2c0.1,0.2,3.9,18.2,16.5,39.7c11.5,19.8,32.8,46.8,69.2,62.7l10.4,2.9v0.7
					l1.2-0.3l1.2,0.3v-0.7l10.2-2.8l0.2-0.1c36.4-15.9,57.7-42.8,69.2-62.7c12.4-21.5,16.4-39.5,16.5-39.7V376
					C487.8,360.5,485,349.5,478.9,343.3z"/>
				<path class="st4" d="M466.2,346.4c-14.7-1.5-41.5,19.7-41.5,19.7c4.1-6.4,12.6-13.4,12.6-13.4c-17.2-7.6-14.6-26.7-14.6-26.7
					c-13.9-21.4-26.2-11.6-26.2-11.6l-6.3,4.7l-6.3-4.7c0,0-12.3-9.9-26.2,11.5c0,0,2.6,19.2-14.6,26.7c0,0,8.5,7,12.6,13.4
					c0,0-26.7-21.2-41.5-19.7c0,0-16.6,4.8-14.3,29.8c0,0,4.3,13.9,13.9,31.4c1.5,2.5,13.5,22.5,33.9,25c0,0-8.8,3.2-19.7-3.1
					c14.4,19,34.7,37.5,62.1,44.4l0,0l0,0l0,0l0,0c27.4-7,47.8-25.4,62.1-44.4c-11,6.3-19.7,3.1-19.7,3.1
					c20.4-2.5,32.5-22.5,33.9-25c9.7-17.4,13.9-31.4,13.9-31.4C482.8,351.3,466.2,346.4,466.2,346.4z M461.4,364.5
					c-1.4,51.6-32.7,59.5-45.5,60.6c-2,4.9-6.5,14.7-11.5,17.4c0,0-4.8-6.5-4.9-17.7c-2.8-0.6-5.9-1.6-9.2-3.3l0,0l0,0l0,0l0,0l0,0
					l0,0c-3.4,1.7-6.5,2.7-9.2,3.3c-0.1,11.3-4.9,17.7-4.9,17.7c-5.1-2.7-9.6-12.6-11.5-17.4c-12.8-1-44.1-8.9-45.5-60.6
					c-0.9-0.7-1.7-0.9-4.3-1.2c0,0,8.6-4,14,3.3c0,0-4.3-1.7-7.2-1.5c0,0,7.3,26,34.3,39.2c-2-7.6-1.9-13.6-1.9-13.6
					c2.8-22.2,31.9-20,31.9-20l4,0.2l0,0c0.1,0,0.2,0,0.3,0c0.1,0,0.2,0,0.3,0l0,0l4-0.2c0,0,29.2-2.2,31.9,20c0,0,0.1,5.9-1.9,13.6
					c27-13.2,34.3-39.2,34.3-39.2c-2.9-0.1-7.2,1.5-7.2,1.5c5.4-7.3,14-3.3,14-3.3C463.2,363.6,462.3,363.8,461.4,364.5z"/>
				<path class="st4" d="M419.8,389.9c-2.3-12.8-23.5-14.5-23.5-14.5l-5.9-0.3l0,0h-0.1h-0.1l0,0l-5.9,0.3c0,0-21.1,1.7-23.5,14.5
					c-1.4,7.8,0.1,17.9,8.5,29.3c0,0,5.9,5.4,21.1-5.1c15.2,10.5,21.1,5.1,21.1,5.1C419.7,407.8,421.2,397.6,419.8,389.9z"/>
				<path class="st2" d="M382.4,326.9c0,0-6.1-7.1-15.5-0.7c0,0,8.5-1.7,11.2,2.6c0,0-17.3-7.3-16.1,21.6l1.4,7.1
					c0,0,14.8,5.4,20.8,3.4C384.3,360.9,388,339,382.4,326.9z"/>
				<path class="st5" d="M380,333.6c0,0-12.3-7.5-14.7,11.2c0,0,0.1,7.5,1.2,9.2l14.3,3.2C380.8,357.2,383.7,337.8,380,333.6z"/>
				<path class="st2" d="M384.8,350.2c-0.3,5.9-3.3,10.5-6.7,10.4c-3.4-0.2-5.9-5.1-5.6-11s3.3-10.5,6.7-10.4
					C382.5,339.4,385.1,344.4,384.8,350.2z"/>
				<path class="st5" d="M357.8,410.4c-13.7-3.6-24.3-16-30-24.3c3.6,6.9,8.9,15.8,13.9,20.1c0,0-9.3-6.3-16.5-20
					c11.1,32.7,37.1,34.6,37.1,34.6L357.8,410.4z"/>
				
					<ellipse transform="matrix(0.9802 -0.1978 0.1978 0.9802 -71.5475 82.1397)" class="st2" cx="375.4" cy="399.2" rx="5.4" ry="9.6"/>
				<path class="st5" d="M376.5,424.7c0,0-1.3,0.3-2.9,0.5l-0.3,6.8c-0.7-1.7-1.5-4.9-1.8-6.6c-0.9,0.1-1.8,0.1-2.6-0.1
					c0,0,2.8,8.4,6.1,12.3C374.9,437.6,377.2,428.9,376.5,424.7z"/>
				<path class="st2" d="M373.2,411.8c0,0,7.3,4.4,10.1-5.3C383.4,406.5,381.9,418.9,373.2,411.8z"/>
				<path class="st2" d="M398,326.9c0,0,6.1-7.1,15.5-0.7c0,0-8.5-1.7-11.2,2.6c0,0,17.3-7.3,16.1,21.6l-1.4,7.1
					c0,0-14.8,5.4-20.8,3.4C396.1,360.9,392.4,339,398,326.9z"/>
				<path class="st5" d="M400.4,333.6c0,0,12.3-7.5,14.7,11.2c0,0-0.1,7.5-1.2,9.2l-14.3,3.2C399.6,357.2,396.8,337.8,400.4,333.6z"
					/>
				<path class="st2" d="M395.6,350.2c0.3,5.9,3.3,10.5,6.7,10.4c3.4-0.2,5.9-5.1,5.6-11s-3.3-10.5-6.7-10.4
					C397.8,339.4,395.3,344.4,395.6,350.2z"/>
				<path class="st5" d="M422.6,410.4c13.7-3.6,24.3-16,30-24.3c-3.6,6.9-8.9,15.8-13.9,20.1c0,0,9.3-6.3,16.5-20
					C444.1,419,418,420.8,418,420.8L422.6,410.4z"/>
				
					<ellipse transform="matrix(0.1978 -0.9802 0.9802 0.1978 -66.4967 717.2782)" class="st2" cx="405" cy="399.3" rx="9.6" ry="5.4"/>
				<path class="st5" d="M403.9,424.7c0,0,1.3,0.3,2.9,0.5l0.3,6.8c0.7-1.7,1.5-4.9,1.8-6.6c0.9,0.1,1.8,0.1,2.6-0.1
					c0,0-2.8,8.4-6.1,12.3C405.5,437.6,403.2,428.9,403.9,424.7z"/>
				<path class="st2" d="M407.1,411.8c0,0-7.3,4.4-10.1-5.3C397.1,406.5,398.4,418.9,407.1,411.8z"/>
			</g>
			<g>
				<path class="st2" d="M363,444.8c4,1.9,6.5,3.9,11.7,5.7c0.2,0.1,0.5,0.2,0.8,0.2c0.3,0.1,0.7,0.2,1.1,0.3s0.9,0.2,1.5,0.4
					s1.2,0.3,2,0.4c0.6,0.1,1.2,0.2,2,0.4c0.8,0.1,1.7,0.2,2.4,0.3c0.8,0.1,1.5,0.1,2,0.2s0.9,0.1,0.9,0.1s0.2,0,0.7,0.1
					c0.4,0.1,1,0,1.8,0.1c0.7,0,1.5,0,2.2,0c0.7-0.1,1.5-0.1,2.1-0.1c1-0.1,2-0.2,2.8-0.3c0.9-0.1,1.6-0.2,2.3-0.4
					c0.7-0.1,1.2-0.2,1.7-0.4c0.5-0.1,0.9-0.2,1.2-0.3c2.7-0.7,4.6-1.7,6.4-2.5c0.9-0.4,1.7-0.9,2.7-1.4c0.9-0.5,1.8-1,2.8-1.4
					c-1,0.4-2,0.7-3,1c-1,0.2-1.9,0.4-2.9,0.6c-2,0.4-4,0.7-6.6,1c-0.3,0.1-0.7,0.1-1.2,0.2s-1,0.1-1.7,0.2
					c-0.6,0.1-1.4,0.1-2.2,0.2c-0.8,0.1-1.7,0.2-2.7,0.2c-0.6,0-1.2,0.1-2,0.1c-0.7,0-1.4,0-2.1,0s-1.2,0-1.7,0s-0.7-0.1-0.7-0.1
					s-0.3,0-0.8-0.1s-1.2-0.1-1.9-0.1c-0.7-0.1-1.5-0.1-2.3-0.2c-0.7-0.1-1.4-0.2-2-0.2c-0.7-0.1-1.4-0.2-2-0.3
					c-0.6-0.1-1-0.2-1.5-0.2c-0.4-0.1-0.7-0.1-1-0.2s-0.6-0.1-0.7-0.2c-2.6-0.5-4.6-0.9-6.5-1.3c-1-0.2-1.9-0.4-2.9-0.7
					C365,445.6,364,445.2,363,444.8z"/>
			</g>
			<g>
				<path class="st2" d="M377.2,458.5c0.5,0.3,0.9,0.7,1.3,1.1s0.9,0.8,1.5,1.2c0.2,0.1,0.4,0.2,0.8,0.4c0.2,0.1,0.4,0.2,0.6,0.3
					c0.2,0.1,0.4,0.2,0.7,0.2c0.5,0.2,1,0.4,1.5,0.5c0.3,0.1,0.6,0.1,0.9,0.2s0.6,0.1,0.9,0.1c0.3,0.1,0.6,0.1,0.9,0.1
					c0.2,0,0.6,0.1,0.8,0.1c0.5,0,1,0.1,1.4,0.1s0.7,0,1-0.1c0.2,0,0.4,0,0.4,0s0.5-0.1,1.3-0.1c0.8-0.1,1.8-0.3,3-0.6
					s2.2-0.6,3.1-1s1.7-0.7,2-0.9c1.4-0.7,2-1.4,3.1-1.8c-1.2,0.3-2.1-0.1-3.6,0.1c-0.4,0-1.2,0.1-2.2,0.2c-0.9,0.1-2,0.2-3.1,0.3
					s-2,0.2-2.7,0.3c-0.7,0.1-1.2,0.1-1.2,0.1s-0.1,0-0.3,0s-0.5,0-0.9,0.1s-0.8,0.1-1.2,0.1c-0.2,0-0.5,0-0.7,0s-0.5,0-0.7,0
					s-0.5,0-0.7,0s-0.5,0-0.7-0.1c-0.5,0-1-0.1-1.4-0.1c-0.2,0-0.4-0.1-0.6-0.1s-0.4-0.1-0.6-0.1c-0.4-0.1-0.6-0.1-0.8-0.1
					c-0.7-0.1-1.3-0.2-1.8-0.2C378.3,458.9,377.8,458.7,377.2,458.5z"/>
			</g>
			<g>
				<path class="st2" d="M341,351c0.4,0.2,0.7,0.4,1,0.7c0.3,0.2,0.6,0.6,1,0.9c0.2,0.2,0.6,0.6,1.2,0.9c0.6,0.4,1.1,0.9,1.7,1.4
					c0.6,0.4,1.2,0.9,1.5,1.2c0.4,0.3,0.7,0.5,0.7,0.5s0.2,0.2,0.7,0.6c0.4,0.3,1,0.7,1.6,1.2c1.2,0.9,2.7,1.8,3.1,2.2
					c0.9,0.6,1.6,0.6,2.3,1.2c-0.6-0.6-0.8-1.2-1.5-2.1c-0.2-0.2-0.6-0.7-1-1.2c-0.4-0.6-1-1.1-1.5-1.7c-0.6-0.6-1.1-1-1.5-1.4
					s-0.7-0.6-0.7-0.6s-0.3-0.2-0.7-0.6c-0.4-0.3-1-0.8-1.8-1.2c-0.7-0.4-1.4-0.8-2.1-1s-1.2-0.4-1.5-0.6
					C342.6,351.3,341.8,351.4,341,351z"/>
			</g>
			<g>
				<path class="st2" d="M424.8,358.2c0.4-0.2,0.8-0.4,1.2-0.6c0.4-0.1,0.9-0.3,1.4-0.5c0.3-0.1,0.9-0.3,1.5-0.6s1.5-0.6,2.3-0.9
					c0.7-0.3,1.5-0.6,2-0.7c0.6-0.2,0.9-0.3,0.9-0.3s0.1-0.1,0.2-0.1c0.2-0.1,0.4-0.1,0.7-0.2c0.2-0.1,0.6-0.2,1-0.3
					c0.2-0.1,0.4-0.1,0.6-0.2s0.4-0.1,0.6-0.2c0.4-0.1,0.8-0.2,1.2-0.4c0.2-0.1,0.4-0.1,0.6-0.2s0.4-0.1,0.6-0.1
					c0.7-0.2,1.3-0.4,1.6-0.4c0.6-0.2,1-0.3,1.4-0.4s0.8-0.2,1.3-0.3c-0.9,0-1.6-0.4-2.8-0.4c-0.3,0-1,0-1.7,0c-0.2,0-0.4,0-0.6,0
					s-0.4,0.1-0.6,0.1c-0.4,0.1-0.9,0.1-1.3,0.2c-0.2,0.1-0.4,0.1-0.6,0.1c-0.2,0.1-0.4,0.1-0.6,0.1c-0.4,0.1-0.7,0.2-1,0.3
					c-0.3,0.1-0.6,0.2-0.7,0.2c-0.2,0.1-0.2,0.1-0.2,0.1s-0.4,0.1-1,0.4c-0.6,0.2-1.4,0.6-2.2,1c-0.7,0.4-1.6,0.9-2.2,1.4
					s-1.1,0.9-1.4,1.1C425.8,356.9,425.5,357.6,424.8,358.2z"/>
			</g>
			<g>
				<path class="st2" d="M308.4,361.1c0.3-0.5,0.7-0.9,1.1-1.2c0.2-0.2,0.4-0.4,0.7-0.5c0.2-0.2,0.4-0.4,0.7-0.6
					c0.2-0.1,0.4-0.2,0.7-0.5c0.2-0.2,0.6-0.4,1-0.6c0.2-0.1,0.4-0.2,0.6-0.4c0.2-0.1,0.4-0.2,0.7-0.3s0.4-0.2,0.7-0.3
					s0.5-0.2,0.7-0.2c0.2-0.1,0.5-0.2,0.7-0.2c0.2-0.1,0.5-0.1,0.7-0.2c0.4-0.1,0.9-0.2,1.2-0.4c0.7-0.2,1.2-0.2,1.2-0.2
					s0.4-0.1,1.2-0.2c0.4-0.1,0.8-0.1,1.2-0.2c0.2,0,0.5-0.1,0.7-0.1s0.5-0.1,0.7-0.1c0.5-0.1,1-0.1,1.5-0.1s1-0.1,1.5,0
					c0.9,0,1.7,0.1,2.1,0.1s0.7,0,1,0.1c0.3,0,0.6,0,0.9,0.1c0.6,0.1,1,0.1,1.6,0.3c-0.6-0.2-1-0.5-1.5-0.8c-0.5-0.2-1-0.6-1.7-0.8
					c-0.4-0.1-1.2-0.4-2.2-0.6c-0.5-0.1-1-0.2-1.6-0.2c-0.3,0-0.6-0.1-0.9-0.1s-0.6,0-0.9,0s-0.6,0-0.9,0c-0.2,0-0.6,0.1-0.8,0.1
					c-0.5,0.1-1,0.1-1.4,0.1c-0.8,0.1-1.3,0.2-1.3,0.2s-0.5,0.1-1.3,0.3c-0.4,0.1-0.9,0.2-1.4,0.4c-0.2,0.1-0.5,0.2-0.7,0.3
					c-0.2,0.1-0.5,0.2-0.7,0.4c-0.2,0.1-0.5,0.2-0.8,0.4c-0.2,0.2-0.5,0.3-0.7,0.5s-0.5,0.3-0.7,0.5s-0.4,0.4-0.6,0.5
					c-0.8,0.6-1.3,1.4-1.6,1.6c-0.5,0.6-0.7,1.2-1,1.7C308.9,360.1,308.7,360.6,308.4,361.1z"/>
			</g>
			<g>
				<path class="st2" d="M454.4,354c1,0.1,1.7,0.6,2.9,1c0.6,0.2,2.5,1,4.1,1.9c0.8,0.4,1.5,0.9,2,1.2c0.6,0.4,0.9,0.6,0.9,0.6
					s0.3,0.2,0.8,0.6s1.1,0.9,1.7,1.6s1,1.4,1.4,2.1s0.6,1.3,0.6,1.6c0.2,0.6,0.3,1,0.4,1.5c0.1,0.2,0.1,0.5,0.1,0.7s0,0.5-0.1,0.7
					c0.2-1,0.7-1.7,0.7-3.1c0-0.4,0-1.1-0.2-2s-0.7-1.9-1.3-2.8c-0.6-0.9-1.3-1.6-1.8-2c-0.6-0.5-0.9-0.7-0.9-0.7s-0.4-0.3-1-0.7
					c-0.6-0.4-1.5-0.9-2.4-1.2c-0.9-0.4-1.9-0.7-2.8-0.9c-0.9-0.2-1.6-0.2-1.9-0.2C456.3,353.8,455.5,354.1,454.4,354z"/>
			</g>
		</g>
		<path class="st2" d="M434.1,318c-5.4-9.7-43.9-10.6-43.9-10.6c-4.4-0.2-39.3,2.6-43.9,10.6c0,0-5.7,10.6,2.5,20.4
			c0,0,33.6-5.8,41.4-5.9l0,0l0,0c7.8,0.1,41.4,5.9,41.4,5.9C439.9,328.6,434.1,318,434.1,318z"/>
		<path class="st6" d="M430.5,320.9c-6-6.5-40.3-6.8-40.3-6.8l0,0l0,0l0,0l0,0c0,0-34.3,0.3-40.3,6.8c0,0-1.7,6.9,1.5,11
			c0,0,32.4-5.4,38.8-5.7l0,0c6.3,0.3,38.8,5.7,38.8,5.7C432.2,327.8,430.5,320.9,430.5,320.9z"/>
		<path class="st2" d="M314.7,458.5c0,0,7.4,19.4,5.2,29.4l8.6,6.5C328.6,494.4,328.3,468,314.7,458.5z"/>
		<path class="st2" d="M388.5,492.1c0,0-20.8-5.2-41.5-23.9c0,0,10.2,19.8,41.5,27.7c31.3-7.8,41.5-27.7,41.5-27.7
			C409.3,486.9,388.5,492.1,388.5,492.1z"/>
		<path class="st2" d="M354,320.5c0,0-2,4.3,0,7.5C354,328,355.1,324.6,354,320.5z"/>
		<path class="st2" d="M357,319.8c0,0-2,4.3,0,7.5C357,327.3,358.1,324,357,319.8z"/>
		<path class="st2" d="M361.2,319.3c0,0-2,4.3,0,7.5C361.2,326.7,362.3,323.4,361.2,319.3z"/>
		<path class="st2" d="M423.4,320.5c0,0,1.2,4.6-1.4,7.4C422.1,327.8,421.6,324.4,423.4,320.5z"/>
		<path class="st2" d="M420.2,319.9c0,0,1.2,4.6-1.4,7.4C418.9,327.2,418.4,323.7,420.2,319.9z"/>
		<path class="st2" d="M426.9,321.5c0,0,1.2,4.6-1.4,7.4C425.6,328.8,425.1,325.3,426.9,321.5z"/>
	</g>
	<g class="st1">
		<path class="st2" d="M729.6,446.6c0,0-36.1,16.1-62.1,13.2c-26,2.9-62.1-13.2-62.1-13.2c-32.8-8.1-49.8,21.1-49.8,21.1
			s43,51.6,111.9,62.7c69-11.1,111.9-62.7,111.9-62.7S762.3,438.5,729.6,446.6z"/>
		<path class="st3" d="M770.7,466.8c-26.5-33.6-103.3,5.5-103.3,5.5s-76.8-39.2-103.3-5.5c0,0,39.3,43.8,103.3,55.7l0,0l0,0l0,0l0,0
			C731.3,510.6,770.7,466.8,770.7,466.8z"/>
		<path class="st2" d="M742.9,466.1c0,0-7.4,19.4-5.2,29.4l-8.6,6.5C729.1,502,729.3,475.6,742.9,466.1z"/>
		<g>
			<g>
				<path class="st2" d="M756.2,350.9c-3.8-3.9-8.8-5.9-15-5.9c-10,0-19.7,5.3-21.7,6.5c-4.9-0.7-8.3-4-10.1-9.7
					c-1.4-4.6-1.2-9-1.2-9v-0.4l-0.2-0.3c-8.4-14.6-17.4-22-26.4-22c-7,0-12.1,4.6-14.1,6.7c-2-2.2-7.1-6.7-14.1-6.7
					c-9.1,0-18,7.4-26.4,22l-0.2,0.3v0.4c0,0.1,0.2,4.5-1.2,9c-1.8,5.7-5.2,8.9-10.1,9.7c-2-1.2-11.7-6.5-21.7-6.5
					c-6.1,0-11.2,2-15,5.9c-6,6.2-8.9,17.2-8.4,32.7v0.2c0.1,0.2,3.9,18.2,16.5,39.7c11.5,19.8,32.8,46.8,69.2,62.7l10.4,2.9v0.7
					l1.2-0.3l1.2,0.3v-0.7l10.2-2.8l0.2-0.1c36.4-15.9,57.7-42.8,69.2-62.7c12.4-21.5,16.4-39.5,16.5-39.7v-0.2
					C765.1,368.1,762.2,357.1,756.2,350.9z"/>
				<path class="st4" d="M743.4,354c-14.7-1.5-41.5,19.7-41.5,19.7c4.1-6.4,12.6-13.4,12.6-13.4c-17.2-7.6-14.6-26.7-14.6-26.7
					C686,312.2,673.7,322,673.7,322l-6.3,4.7l-6.3-4.7c0,0-12.3-9.9-26.2,11.5c0,0,2.6,19.2-14.6,26.7c0,0,8.5,7,12.6,13.4
					c0,0-26.7-21.2-41.5-19.7c0,0-16.6,4.8-14.3,29.8c0,0,4.3,13.9,13.9,31.4c1.5,2.5,13.5,22.5,33.9,25c0,0-8.8,3.2-19.7-3.1
					c14.4,19,34.7,37.5,62.1,44.4l0,0l0,0l0,0l0,0c27.4-7,47.8-25.4,62.1-44.4c-11,6.3-19.7,3.1-19.7,3.1
					c20.4-2.5,32.5-22.5,33.9-25c9.7-17.4,13.9-31.4,13.9-31.4C760.1,358.8,743.4,354,743.4,354z M738.7,372.1
					c-1.4,51.6-32.7,59.5-45.5,60.6c-2,4.9-6.5,14.7-11.5,17.4c0,0-4.8-6.5-4.9-17.7c-2.8-0.6-5.9-1.6-9.2-3.3l0,0l0,0l0,0l0,0l0,0
					l0,0c-3.4,1.7-6.5,2.7-9.2,3.3c-0.1,11.3-4.9,17.7-4.9,17.7c-5.1-2.7-9.6-12.6-11.5-17.4c-12.8-1-44.1-8.9-45.5-60.6
					c-0.9-0.7-1.7-0.9-4.3-1.2c0,0,8.6-4,14,3.3c0,0-4.3-1.7-7.2-1.5c0,0,7.3,26,34.3,39.2c-2-7.6-1.9-13.6-1.9-13.6
					c2.8-22.2,31.9-20,31.9-20l4,0.2l0,0c0.1,0,0.2,0,0.3,0s0.2,0,0.3,0l0,0l4-0.2c0,0,29.2-2.2,31.9,20c0,0,0.1,5.9-1.9,13.6
					c27-13.2,34.3-39.2,34.3-39.2c-2.9-0.1-7.2,1.5-7.2,1.5c5.4-7.3,14-3.3,14-3.3C740.4,371.2,739.5,371.4,738.7,372.1z"/>
				<path class="st4" d="M697,397.5c-2.3-12.8-23.5-14.5-23.5-14.5l-5.9-0.3l0,0h-0.1h-0.1l0,0l-5.9,0.3c0,0-21.1,1.7-23.5,14.5
					c-1.4,7.8,0.1,17.9,8.5,29.3c0,0,5.9,5.4,21.1-5.1c15.2,10.5,21.1,5.1,21.1,5.1C697,415.4,698.4,405.2,697,397.5z"/>
				<path class="st2" d="M659.7,334.5c0,0-6.1-7.1-15.5-0.7c0,0,8.5-1.7,11.2,2.6c0,0-17.3-7.3-16.1,21.6l1.4,7.1
					c0,0,14.8,5.4,20.8,3.4C661.5,368.5,665.2,346.6,659.7,334.5z"/>
				<path class="st5" d="M657.3,341.2c0,0-12.3-7.5-14.7,11.2c0,0,0.1,7.5,1.2,9.2l14.3,3.2C658,364.8,660.9,345.4,657.3,341.2z"/>
				<path class="st2" d="M662.1,357.8c-0.3,5.9-3.3,10.5-6.7,10.4c-3.4-0.2-5.9-5.1-5.6-11c0.3-5.9,3.3-10.5,6.7-10.4
					C659.8,347,662.3,351.9,662.1,357.8z"/>
				<path class="st5" d="M635.1,418c-13.7-3.6-24.3-16-30-24.3c3.6,6.9,8.9,15.8,13.9,20.1c0,0-9.3-6.3-16.5-20
					c11.1,32.7,37.1,34.6,37.1,34.6L635.1,418z"/>
				
					<ellipse transform="matrix(0.9802 -0.1978 0.1978 0.9802 -67.57 137.1396)" class="st2" cx="652.7" cy="406.8" rx="5.4" ry="9.6"/>
				<path class="st5" d="M653.8,432.2c0,0-1.3,0.3-2.9,0.5l-0.3,6.8c-0.7-1.7-1.5-4.9-1.8-6.6c-0.9,0.1-1.8,0.1-2.6-0.1
					c0,0,2.8,8.4,6.1,12.3C652.2,445.2,654.4,436.5,653.8,432.2z"/>
				<path class="st2" d="M650.5,419.4c0,0,7.3,4.4,10.1-5.3C660.6,414.1,659.2,426.5,650.5,419.4z"/>
				<path class="st2" d="M675.3,334.5c0,0,6.1-7.1,15.5-0.7c0,0-8.5-1.7-11.2,2.6c0,0,17.3-7.3,16.1,21.6l-1.4,7.1
					c0,0-14.8,5.4-20.8,3.4C673.4,368.5,669.7,346.6,675.3,334.5z"/>
				<path class="st5" d="M677.7,341.2c0,0,12.3-7.5,14.7,11.2c0,0-0.1,7.5-1.2,9.2l-14.3,3.2C676.9,364.8,674,345.4,677.7,341.2z"/>
				<path class="st2" d="M672.9,357.8c0.3,5.9,3.3,10.5,6.7,10.4c3.4-0.2,5.9-5.1,5.6-11c-0.3-5.9-3.3-10.5-6.7-10.4
					C675.1,347,672.5,351.9,672.9,357.8z"/>
				<path class="st5" d="M699.9,418c13.7-3.6,24.3-16,30-24.3c-3.6,6.9-8.9,15.8-13.9,20.1c0,0,9.3-6.3,16.5-20
					c-11.1,32.7-37.1,34.6-37.1,34.6L699.9,418z"/>
				
					<ellipse transform="matrix(0.1978 -0.9802 0.9802 0.1978 148.4007 995.1743)" class="st2" cx="682.2" cy="406.9" rx="9.6" ry="5.4"/>
				<path class="st5" d="M681.2,432.2c0,0,1.3,0.3,2.9,0.5l0.3,6.8c0.7-1.7,1.5-4.9,1.8-6.6c0.9,0.1,1.8,0.1,2.6-0.1
					c0,0-2.8,8.4-6.1,12.3C682.7,445.2,680.4,436.5,681.2,432.2z"/>
				<path class="st2" d="M684.4,419.4c0,0-7.3,4.4-10.1-5.3C674.3,414.1,675.7,426.5,684.4,419.4z"/>
			</g>
			<g>
				<path class="st2" d="M640.3,452.4c4,1.9,6.5,3.9,11.7,5.7c0.2,0.1,0.5,0.2,0.8,0.2c0.3,0.1,0.7,0.2,1.1,0.3s0.9,0.2,1.5,0.4
					c0.6,0.2,1.2,0.3,2,0.4c0.6,0.1,1.2,0.2,2,0.4c0.8,0.1,1.7,0.2,2.4,0.3c0.8,0.1,1.5,0.1,2,0.2s0.9,0.1,0.9,0.1s0.2,0,0.7,0.1
					c0.4,0.1,1,0,1.8,0.1c0.7,0,1.5,0,2.2,0c0.7-0.1,1.5-0.1,2.1-0.1c1-0.1,2-0.2,2.8-0.3c0.9-0.1,1.6-0.2,2.3-0.4
					c0.7-0.1,1.2-0.2,1.7-0.4c0.5-0.1,0.9-0.2,1.2-0.3c2.7-0.7,4.6-1.7,6.4-2.5c0.9-0.4,1.7-0.9,2.7-1.4c0.9-0.5,1.8-1,2.8-1.4
					c-1,0.4-2,0.7-3,1c-1,0.2-1.9,0.4-2.9,0.6c-2,0.4-4,0.7-6.6,1c-0.3,0.1-0.7,0.1-1.2,0.2s-1,0.1-1.7,0.2s-1.4,0.1-2.2,0.2
					s-1.7,0.2-2.7,0.2c-0.6,0-1.2,0.1-2,0.1c-0.7,0-1.4,0-2.1,0s-1.2,0-1.7,0s-0.7-0.1-0.7-0.1s-0.3,0-0.8-0.1s-1.2-0.1-1.9-0.1
					c-0.7-0.1-1.5-0.1-2.3-0.2c-0.7-0.1-1.4-0.2-2-0.2c-0.7-0.1-1.4-0.2-2-0.3c-0.6-0.1-1-0.2-1.5-0.2c-0.4-0.1-0.7-0.1-1-0.2
					s-0.6-0.1-0.7-0.2c-2.6-0.5-4.6-0.9-6.5-1.3c-1-0.2-1.9-0.4-2.9-0.7C642.2,453.2,641.2,452.8,640.3,452.4z"/>
			</g>
			<g>
				<path class="st2" d="M654.5,466.1c0.5,0.3,0.9,0.7,1.3,1.1c0.4,0.4,0.9,0.8,1.5,1.2c0.2,0.1,0.4,0.2,0.8,0.4
					c0.2,0.1,0.4,0.2,0.6,0.3c0.2,0.1,0.4,0.2,0.7,0.2c0.5,0.2,1,0.4,1.5,0.5c0.3,0.1,0.6,0.1,0.9,0.2c0.3,0.1,0.6,0.1,0.9,0.1
					c0.3,0.1,0.6,0.1,0.9,0.1c0.2,0,0.6,0.1,0.8,0.1c0.5,0,1,0.1,1.4,0.1s0.7,0,1-0.1c0.2,0,0.4,0,0.4,0s0.5-0.1,1.3-0.1
					c0.8-0.1,1.8-0.3,3-0.6c1.1-0.2,2.2-0.6,3.1-1c0.9-0.4,1.7-0.7,2-0.9c1.4-0.7,2-1.4,3.1-1.8c-1.2,0.3-2.1-0.1-3.6,0.1
					c-0.4,0-1.2,0.1-2.2,0.2c-0.9,0.1-2,0.2-3.1,0.3c-1,0.1-2,0.2-2.7,0.3c-0.7,0.1-1.2,0.1-1.2,0.1s-0.1,0-0.3,0s-0.5,0-0.9,0.1
					s-0.8,0.1-1.2,0.1c-0.2,0-0.5,0-0.7,0s-0.5,0-0.7,0s-0.5,0-0.7,0s-0.5,0-0.7-0.1c-0.5,0-1-0.1-1.4-0.1c-0.2,0-0.4-0.1-0.6-0.1
					c-0.2,0-0.4-0.1-0.6-0.1c-0.4-0.1-0.6-0.1-0.8-0.1c-0.7-0.1-1.3-0.2-1.8-0.2C655.5,466.5,655,466.3,654.5,466.1z"/>
			</g>
			<g>
				<path class="st2" d="M618.3,358.6c0.4,0.2,0.7,0.4,1,0.7c0.3,0.2,0.6,0.6,1,0.9c0.2,0.2,0.6,0.6,1.2,0.9s1.1,0.9,1.7,1.4
					c0.6,0.4,1.2,0.9,1.5,1.2c0.4,0.3,0.7,0.5,0.7,0.5s0.2,0.2,0.7,0.6c0.4,0.3,1,0.7,1.6,1.2c1.2,0.9,2.7,1.8,3.1,2.2
					c0.9,0.6,1.6,0.6,2.3,1.2c-0.6-0.6-0.8-1.2-1.5-2.1c-0.2-0.2-0.6-0.7-1-1.2c-0.4-0.6-1-1.1-1.5-1.7c-0.6-0.6-1.1-1-1.5-1.4
					s-0.7-0.6-0.7-0.6s-0.3-0.2-0.7-0.6c-0.4-0.3-1-0.8-1.8-1.2c-0.7-0.4-1.4-0.8-2.1-1s-1.2-0.4-1.5-0.6
					C619.8,358.8,619.1,359,618.3,358.6z"/>
			</g>
			<g>
				<path class="st2" d="M702,365.8c0.4-0.2,0.8-0.4,1.2-0.6s0.9-0.3,1.4-0.5c0.3-0.1,0.9-0.3,1.5-0.6c0.7-0.3,1.5-0.6,2.3-0.9
					c0.7-0.3,1.5-0.6,2-0.7c0.6-0.2,0.9-0.3,0.9-0.3s0.1-0.1,0.2-0.1c0.2-0.1,0.4-0.1,0.7-0.2c0.2-0.1,0.6-0.2,1-0.3
					c0.2-0.1,0.4-0.1,0.6-0.2s0.4-0.1,0.6-0.2c0.4-0.1,0.8-0.2,1.2-0.4c0.2-0.1,0.4-0.1,0.6-0.2c0.2-0.1,0.4-0.1,0.6-0.1
					c0.7-0.2,1.3-0.4,1.6-0.4c0.6-0.2,1-0.3,1.4-0.4s0.8-0.2,1.3-0.3c-0.9,0-1.6-0.4-2.8-0.4c-0.3,0-1,0-1.7,0c-0.2,0-0.4,0-0.6,0
					s-0.4,0.1-0.6,0.1c-0.4,0.1-0.9,0.1-1.3,0.2c-0.2,0.1-0.4,0.1-0.6,0.1c-0.2,0.1-0.4,0.1-0.6,0.1c-0.4,0.1-0.7,0.2-1,0.3
					c-0.3,0.1-0.6,0.2-0.7,0.2c-0.2,0.1-0.2,0.1-0.2,0.1s-0.4,0.1-1,0.4c-0.6,0.2-1.4,0.6-2.2,1c-0.7,0.4-1.6,0.9-2.2,1.4
					s-1.1,0.9-1.4,1.1C703.1,364.5,702.7,365.2,702,365.8z"/>
			</g>
			<g>
				<path class="st2" d="M585.7,368.7c0.3-0.5,0.7-0.9,1.1-1.2c0.2-0.2,0.4-0.4,0.7-0.5c0.2-0.2,0.4-0.4,0.7-0.6
					c0.2-0.1,0.4-0.2,0.7-0.5c0.2-0.2,0.6-0.4,1-0.6c0.2-0.1,0.4-0.2,0.6-0.4c0.2-0.1,0.4-0.2,0.7-0.3c0.2-0.1,0.4-0.2,0.7-0.3
					c0.2-0.1,0.5-0.2,0.7-0.2c0.2-0.1,0.5-0.2,0.7-0.2c0.2-0.1,0.5-0.1,0.7-0.2c0.4-0.1,0.9-0.2,1.2-0.4c0.7-0.2,1.2-0.2,1.2-0.2
					s0.4-0.1,1.2-0.2c0.4-0.1,0.8-0.1,1.2-0.2c0.2,0,0.5-0.1,0.7-0.1s0.5-0.1,0.7-0.1c0.5-0.1,1-0.1,1.5-0.1s1-0.1,1.5,0
					c0.9,0,1.7,0.1,2.1,0.1c0.4,0,0.7,0,1,0.1c0.3,0,0.6,0,0.9,0.1c0.6,0.1,1,0.1,1.6,0.3c-0.6-0.2-1-0.5-1.5-0.8
					c-0.5-0.2-1-0.6-1.7-0.8c-0.4-0.1-1.2-0.4-2.2-0.6c-0.5-0.1-1-0.2-1.6-0.2c-0.3,0-0.6-0.1-0.9-0.1c-0.3,0-0.6,0-0.9,0
					c-0.3,0-0.6,0-0.9,0c-0.2,0-0.6,0.1-0.8,0.1c-0.5,0.1-1,0.1-1.4,0.1c-0.8,0.1-1.3,0.2-1.3,0.2s-0.5,0.1-1.3,0.3
					c-0.4,0.1-0.9,0.2-1.4,0.4c-0.2,0.1-0.5,0.2-0.7,0.3s-0.5,0.2-0.7,0.4c-0.2,0.1-0.5,0.2-0.8,0.4c-0.2,0.2-0.5,0.3-0.7,0.5
					s-0.5,0.3-0.7,0.5s-0.4,0.4-0.6,0.5c-0.8,0.6-1.3,1.4-1.6,1.6c-0.5,0.6-0.7,1.2-1,1.7C586.1,367.7,586,368.2,585.7,368.7z"/>
			</g>
			<g>
				<path class="st2" d="M731.7,361.6c1,0.1,1.7,0.6,2.9,1c0.6,0.2,2.5,1,4.1,1.9c0.8,0.4,1.5,0.9,2,1.2c0.6,0.4,0.9,0.6,0.9,0.6
					s0.3,0.2,0.8,0.6s1.1,0.9,1.7,1.6c0.6,0.7,1,1.4,1.4,2.1s0.6,1.3,0.6,1.6c0.2,0.6,0.3,1,0.4,1.5c0.1,0.2,0.1,0.5,0.1,0.7
					s0,0.5-0.1,0.7c0.2-1,0.7-1.7,0.7-3.1c0-0.4,0-1.1-0.2-2s-0.7-1.9-1.3-2.8s-1.3-1.6-1.8-2c-0.6-0.5-0.9-0.7-0.9-0.7
					s-0.4-0.3-1-0.7s-1.5-0.9-2.4-1.2s-1.9-0.7-2.8-0.9c-0.9-0.2-1.6-0.2-1.9-0.2C733.5,361.4,732.7,361.7,731.7,361.6z"/>
			</g>
		</g>
		<path class="st2" d="M711.4,325.6c-5.4-9.7-43.9-10.6-43.9-10.6c-4.4-0.2-39.3,2.7-43.9,10.6c0,0-5.7,10.6,2.5,20.4
			c0,0,33.6-5.8,41.4-5.9l0,0l0,0c7.8,0.1,41.4,5.9,41.4,5.9C717.2,336.2,711.4,325.6,711.4,325.6z"/>
		<path class="st6" d="M707.7,328.5c-6-6.5-40.3-6.8-40.3-6.8l0,0l0,0l0,0l0,0c0,0-34.3,0.3-40.3,6.8c0,0-1.7,6.9,1.5,11
			c0,0,32.4-5.4,38.8-5.7l0,0c6.3,0.3,38.8,5.7,38.8,5.7C709.5,335.4,707.7,328.5,707.7,328.5z"/>
		<path class="st2" d="M591.9,466.1c0,0,7.4,19.4,5.2,29.4l8.6,6.5C605.8,502,605.6,475.6,591.9,466.1z"/>
		<path class="st2" d="M665.8,499.7c0,0-20.8-5.2-41.5-23.9c0,0,10.2,19.8,41.5,27.7c31.3-7.8,41.5-27.7,41.5-27.7
			C686.5,494.5,665.8,499.7,665.8,499.7z"/>
		<path class="st2" d="M631.2,328.1c0,0-2,4.3,0,7.5C631.2,335.6,632.3,332.2,631.2,328.1z"/>
		<path class="st2" d="M634.2,327.4c0,0-2,4.3,0,7.5C634.2,334.9,635.4,331.5,634.2,327.4z"/>
		<path class="st2" d="M638.5,326.9c0,0-2,4.3,0,7.5C638.5,334.3,639.6,331,638.5,326.9z"/>
		<path class="st2" d="M700.7,328.1c0,0,1.2,4.6-1.4,7.4C699.3,335.4,698.8,332,700.7,328.1z"/>
		<path class="st2" d="M697.4,327.5c0,0,1.2,4.6-1.4,7.4C696.2,334.8,695.6,331.3,697.4,327.5z"/>
		<path class="st2" d="M704.2,329.1c0,0,1.2,4.6-1.4,7.4C702.9,336.4,702.3,332.9,704.2,329.1z"/>
	</g>
	<g class="st1">
		<path class="st2" d="M999.2,442.8c0,0-36.1,16.1-62.1,13.2c-26,2.9-62.1-13.2-62.1-13.2c-32.8-8.1-49.8,21.1-49.8,21.1
			s43,51.6,111.9,62.7c69-11.1,111.9-62.7,111.9-62.7S1032,434.7,999.2,442.8z"/>
		<path class="st3" d="M1040.4,463c-26.5-33.6-103.3,5.5-103.3,5.5s-76.8-39.2-103.3-5.5c0,0,39.3,43.8,103.3,55.7l0,0l0,0l0,0l0,0
			C1001,506.8,1040.4,463,1040.4,463z"/>
		<path class="st2" d="M1012.6,462.3c0,0-7.4,19.4-5.2,29.4l-8.6,6.5C998.7,498.2,999,471.8,1012.6,462.3z"/>
		<g>
			<g>
				<path class="st2" d="M1025.8,347.1c-3.8-3.9-8.8-5.9-15-5.9c-10,0-19.7,5.3-21.7,6.5c-4.9-0.7-8.3-4-10.1-9.7
					c-1.4-4.6-1.2-9-1.2-9v-0.4l-0.2-0.3c-8.4-14.6-17.4-22-26.4-22c-7,0-12.1,4.6-14.1,6.7c-2-2.2-7.1-6.7-14.1-6.7
					c-9.1,0-18,7.4-26.4,22l-0.2,0.3v0.4c0,0.1,0.2,4.5-1.2,9c-1.8,5.7-5.2,8.9-10.1,9.7c-2-1.2-11.7-6.5-21.7-6.5
					c-6.1,0-11.2,2-15,5.9c-6,6.2-8.9,17.2-8.4,32.7v0.2c0.1,0.2,3.9,18.2,16.5,39.7c11.5,19.8,32.8,46.8,69.2,62.7l10.4,2.9v0.7
					l1.2-0.3l1.2,0.3v-0.7l10.2-2.8l0.2-0.1c36.4-15.9,57.7-42.8,69.2-62.7c12.4-21.5,16.4-39.5,16.5-39.7v-0.2
					C1034.7,364.3,1031.9,353.3,1025.8,347.1z"/>
				<path class="st4" d="M1013.1,350.2c-14.7-1.5-41.5,19.7-41.5,19.7c4.1-6.4,12.6-13.4,12.6-13.4c-17.2-7.6-14.6-26.7-14.6-26.7
					c-13.9-21.4-26.2-11.6-26.2-11.6l-6.3,4.7l-6.3-4.7c0,0-12.3-9.9-26.2,11.5c0,0,2.6,19.2-14.6,26.7c0,0,8.5,7,12.6,13.4
					c0,0-26.7-21.2-41.5-19.7c0,0-16.6,4.8-14.3,29.8c0,0,4.3,13.9,13.9,31.4c1.5,2.5,13.5,22.5,33.9,25c0,0-8.8,3.2-19.7-3.1
					c14.4,19,34.7,37.5,62.1,44.4l0,0l0,0l0,0l0,0c27.4-7,47.8-25.4,62.1-44.4c-11,6.3-19.7,3.1-19.7,3.1
					c20.4-2.5,32.5-22.5,33.9-25c9.7-17.4,13.9-31.4,13.9-31.4C1029.7,355.1,1013.1,350.2,1013.1,350.2z M1008.3,368.3
					c-1.4,51.6-32.7,59.5-45.5,60.6c-2,4.9-6.5,14.7-11.5,17.4c0,0-4.8-6.5-4.9-17.7c-2.8-0.6-5.9-1.6-9.2-3.3l0,0l0,0l0,0l0,0l0,0
					l0,0c-3.4,1.7-6.5,2.7-9.2,3.3c-0.1,11.3-4.9,17.7-4.9,17.7c-5.1-2.7-9.6-12.6-11.5-17.4c-12.8-1-44.1-8.9-45.5-60.6
					c-0.9-0.7-1.7-0.9-4.3-1.2c0,0,8.6-4,14,3.3c0,0-4.3-1.7-7.2-1.5c0,0,7.3,26,34.3,39.2c-2-7.6-1.9-13.6-1.9-13.6
					c2.8-22.2,31.9-20,31.9-20l4,0.2l0,0c0.1,0,0.2,0,0.3,0s0.2,0,0.3,0l0,0l4-0.2c0,0,29.2-2.2,31.9,20c0,0,0.1,5.9-1.9,13.6
					c27-13.2,34.3-39.2,34.3-39.2c-2.9-0.1-7.2,1.5-7.2,1.5c5.4-7.3,14-3.3,14-3.3C1010.1,367.4,1009.2,367.6,1008.3,368.3z"/>
				<path class="st4" d="M966.7,393.7c-2.3-12.8-23.5-14.5-23.5-14.5l-5.9-0.3l0,0h-0.1H937l0,0l-5.9,0.3c0,0-21.1,1.7-23.5,14.5
					c-1.4,7.8,0.1,17.9,8.5,29.3c0,0,5.9,5.4,21.1-5.1c15.2,10.5,21.1,5.1,21.1,5.1C966.6,411.6,968.1,401.4,966.7,393.7z"/>
				<path class="st2" d="M929.3,330.7c0,0-6.1-7.1-15.5-0.7c0,0,8.5-1.7,11.2,2.6c0,0-17.3-7.3-16.1,21.6l1.4,7.1
					c0,0,14.8,5.4,20.8,3.4C931.2,364.7,934.9,342.8,929.3,330.7z"/>
				<path class="st5" d="M926.9,337.4c0,0-12.3-7.5-14.7,11.2c0,0,0.1,7.5,1.2,9.2l14.3,3.2C927.7,361,930.5,341.6,926.9,337.4z"/>
				<path class="st2" d="M931.7,354c-0.3,5.9-3.3,10.5-6.7,10.4c-3.4-0.2-5.9-5.1-5.6-11c0.3-5.9,3.3-10.5,6.7-10.4
					C929.4,343.2,932,348.1,931.7,354z"/>
				<path class="st5" d="M904.7,414.2c-13.7-3.6-24.3-16-30-24.3c3.6,6.9,8.9,15.8,13.9,20.1c0,0-9.3-6.3-16.5-20
					c11.1,32.7,37.1,34.6,37.1,34.6L904.7,414.2z"/>
				
					<ellipse transform="matrix(0.9802 -0.1978 0.1978 0.9802 -61.4938 190.3918)" class="st2" cx="922.3" cy="403" rx="5.4" ry="9.6"/>
				<path class="st5" d="M923.4,428.5c0,0-1.3,0.3-2.9,0.5l-0.3,6.8c-0.7-1.7-1.5-4.9-1.8-6.6c-0.9,0.1-1.8,0.1-2.6-0.1
					c0,0,2.8,8.4,6.1,12.3C921.8,441.4,924.1,432.7,923.4,428.5z"/>
				<path class="st2" d="M920.1,415.6c0,0,7.3,4.4,10.1-5.3C930.2,410.3,928.8,422.7,920.1,415.6z"/>
				<path class="st2" d="M944.9,330.7c0,0,6.1-7.1,15.5-0.7c0,0-8.5-1.7-11.2,2.6c0,0,17.3-7.3,16.1,21.6l-1.4,7.1
					c0,0-14.8,5.4-20.8,3.4C943,364.7,939.3,342.8,944.9,330.7z"/>
				<path class="st5" d="M947.3,337.4c0,0,12.3-7.5,14.7,11.2c0,0-0.1,7.5-1.2,9.2l-14.3,3.2C946.5,361,943.7,341.6,947.3,337.4z"/>
				<path class="st2" d="M942.5,354c0.3,5.9,3.3,10.5,6.7,10.4c3.4-0.2,5.9-5.1,5.6-11c-0.3-5.9-3.3-10.5-6.7-10.4
					C944.7,343.2,942.2,348.1,942.5,354z"/>
				<path class="st5" d="M969.5,414.2c13.7-3.6,24.3-16,30-24.3c-3.6,6.9-8.9,15.8-13.9,20.1c0,0,9.3-6.3,16.5-20
					C991,422.7,965,424.6,965,424.6L969.5,414.2z"/>
				
					<ellipse transform="matrix(0.1978 -0.9802 0.9802 0.1978 368.4775 1256.4214)" class="st2" cx="951.9" cy="403.1" rx="9.6" ry="5.4"/>
				<path class="st5" d="M950.8,428.5c0,0,1.3,0.3,2.9,0.5l0.3,6.8c0.7-1.7,1.5-4.9,1.8-6.6c0.9,0.1,1.8,0.1,2.6-0.1
					c0,0-2.8,8.4-6.1,12.3C952.4,441.4,950.1,432.7,950.8,428.5z"/>
				<path class="st2" d="M954,415.6c0,0-7.3,4.4-10.1-5.3C944,410.3,945.3,422.7,954,415.6z"/>
			</g>
			<g>
				<path class="st2" d="M909.9,448.6c4,1.9,6.5,3.9,11.7,5.7c0.2,0.1,0.5,0.2,0.8,0.2c0.3,0.1,0.7,0.2,1.1,0.3s0.9,0.2,1.5,0.4
					c0.6,0.2,1.2,0.3,2,0.4c0.6,0.1,1.2,0.2,2,0.4c0.8,0.1,1.7,0.2,2.4,0.3c0.8,0.1,1.5,0.1,2,0.2s0.9,0.1,0.9,0.1s0.2,0,0.7,0.1
					c0.4,0.1,1,0,1.8,0.1c0.7,0,1.5,0,2.2,0c0.7-0.1,1.5-0.1,2.1-0.1c1-0.1,2-0.2,2.8-0.3c0.9-0.1,1.6-0.2,2.3-0.4
					c0.7-0.1,1.2-0.2,1.7-0.4c0.5-0.1,0.9-0.2,1.2-0.3c2.7-0.7,4.6-1.7,6.4-2.5c0.9-0.4,1.7-0.9,2.7-1.4c0.9-0.5,1.8-1,2.8-1.4
					c-1,0.4-2,0.7-3,1c-1,0.2-1.9,0.4-2.9,0.6c-2,0.4-4,0.7-6.6,1c-0.3,0.1-0.7,0.1-1.2,0.2s-1,0.1-1.7,0.2s-1.4,0.1-2.2,0.2
					s-1.7,0.2-2.7,0.2c-0.6,0-1.2,0.1-2,0.1c-0.7,0-1.4,0-2.1,0s-1.2,0-1.7,0s-0.7-0.1-0.7-0.1s-0.3,0-0.8-0.1s-1.2-0.1-1.9-0.1
					c-0.7-0.1-1.5-0.1-2.3-0.2c-0.7-0.1-1.4-0.2-2-0.2c-0.7-0.1-1.4-0.2-2-0.3c-0.6-0.1-1-0.2-1.5-0.2c-0.4-0.1-0.7-0.1-1-0.2
					s-0.6-0.1-0.7-0.2c-2.6-0.5-4.6-0.9-6.5-1.3c-1-0.2-1.9-0.4-2.9-0.7C911.9,449.4,910.9,449,909.9,448.6z"/>
			</g>
			<g>
				<path class="st2" d="M924.1,462.3c0.5,0.3,0.9,0.7,1.3,1.1c0.4,0.4,0.9,0.8,1.5,1.2c0.2,0.1,0.4,0.2,0.8,0.4
					c0.2,0.1,0.4,0.2,0.6,0.3c0.2,0.1,0.4,0.2,0.7,0.2c0.5,0.2,1,0.4,1.5,0.5c0.3,0.1,0.6,0.1,0.9,0.2c0.3,0.1,0.6,0.1,0.9,0.1
					c0.3,0.1,0.6,0.1,0.9,0.1c0.2,0,0.6,0.1,0.8,0.1c0.5,0,1,0.1,1.4,0.1s0.7,0,1-0.1c0.2,0,0.4,0,0.4,0s0.5-0.1,1.3-0.1
					c0.8-0.1,1.8-0.3,3-0.6c1.1-0.2,2.2-0.6,3.1-1c0.9-0.4,1.7-0.7,2-0.9c1.4-0.7,2-1.4,3.1-1.8c-1.2,0.3-2.1-0.1-3.6,0.1
					c-0.4,0-1.2,0.1-2.2,0.2c-0.9,0.1-2,0.2-3.1,0.3c-1,0.1-2,0.2-2.7,0.3c-0.7,0.1-1.2,0.1-1.2,0.1s-0.1,0-0.3,0s-0.5,0-0.9,0.1
					s-0.8,0.1-1.2,0.1c-0.2,0-0.5,0-0.7,0s-0.5,0-0.7,0s-0.5,0-0.7,0s-0.5,0-0.7-0.1c-0.5,0-1-0.1-1.4-0.1c-0.2,0-0.4-0.1-0.6-0.1
					c-0.2,0-0.4-0.1-0.6-0.1c-0.4-0.1-0.6-0.1-0.8-0.1c-0.7-0.1-1.3-0.2-1.8-0.2C925.2,462.7,924.7,462.5,924.1,462.3z"/>
			</g>
			<g>
				<path class="st2" d="M887.9,354.8c0.4,0.2,0.7,0.4,1,0.7c0.3,0.2,0.6,0.6,1,0.9c0.2,0.2,0.6,0.6,1.2,0.9s1.1,0.9,1.7,1.4
					s1.2,0.9,1.5,1.2c0.4,0.3,0.7,0.5,0.7,0.5s0.2,0.2,0.7,0.6c0.4,0.3,1,0.7,1.6,1.2c1.2,0.9,2.7,1.8,3.1,2.2
					c0.9,0.6,1.6,0.6,2.3,1.2c-0.6-0.6-0.8-1.2-1.5-2.1c-0.2-0.2-0.6-0.7-1-1.2c-0.4-0.6-1-1.1-1.5-1.7c-0.6-0.6-1.1-1-1.5-1.4
					s-0.7-0.6-0.7-0.6s-0.3-0.2-0.7-0.6c-0.4-0.3-1-0.8-1.8-1.2c-0.7-0.4-1.4-0.8-2.1-1c-0.7-0.2-1.2-0.4-1.5-0.6
					C889.4,355.1,888.7,355.2,887.9,354.8z"/>
			</g>
			<g>
				<path class="st2" d="M971.7,362c0.4-0.2,0.8-0.4,1.2-0.6s0.9-0.3,1.4-0.5c0.3-0.1,0.9-0.3,1.5-0.6s1.5-0.6,2.3-0.9
					c0.7-0.3,1.5-0.6,2-0.7c0.6-0.2,0.9-0.3,0.9-0.3s0.1-0.1,0.2-0.1c0.2-0.1,0.4-0.1,0.7-0.2c0.2-0.1,0.6-0.2,1-0.3
					c0.2-0.1,0.4-0.1,0.6-0.2s0.4-0.1,0.6-0.2c0.4-0.1,0.8-0.2,1.2-0.4c0.2-0.1,0.4-0.1,0.6-0.2c0.2-0.1,0.4-0.1,0.6-0.1
					c0.7-0.2,1.3-0.4,1.6-0.4c0.6-0.2,1-0.3,1.4-0.4s0.8-0.2,1.3-0.3c-0.9,0-1.6-0.4-2.8-0.4c-0.3,0-1,0-1.7,0c-0.2,0-0.4,0-0.6,0
					s-0.4,0.1-0.6,0.1c-0.4,0.1-0.9,0.1-1.3,0.2c-0.2,0.1-0.4,0.1-0.6,0.1c-0.2,0.1-0.4,0.1-0.6,0.1c-0.4,0.1-0.7,0.2-1,0.3
					c-0.3,0.1-0.6,0.2-0.7,0.2c-0.2,0.1-0.2,0.1-0.2,0.1s-0.4,0.1-1,0.4c-0.6,0.2-1.4,0.6-2.2,1c-0.7,0.4-1.6,0.9-2.2,1.4
					s-1.1,0.9-1.4,1.1C972.7,360.7,972.4,361.4,971.7,362z"/>
			</g>
			<g>
				<path class="st2" d="M855.3,364.9c0.3-0.5,0.7-0.9,1.1-1.2c0.2-0.2,0.4-0.4,0.7-0.5c0.2-0.2,0.4-0.4,0.7-0.6
					c0.2-0.1,0.4-0.2,0.7-0.5c0.2-0.2,0.6-0.4,1-0.6c0.2-0.1,0.4-0.2,0.6-0.4c0.2-0.1,0.4-0.2,0.7-0.3c0.2-0.1,0.4-0.2,0.7-0.3
					c0.2-0.1,0.5-0.2,0.7-0.2c0.2-0.1,0.5-0.2,0.7-0.2c0.2-0.1,0.5-0.1,0.7-0.2c0.4-0.1,0.9-0.2,1.2-0.4c0.7-0.2,1.2-0.2,1.2-0.2
					s0.4-0.1,1.2-0.2c0.4-0.1,0.8-0.1,1.2-0.2c0.2,0,0.5-0.1,0.7-0.1s0.5-0.1,0.7-0.1c0.5-0.1,1-0.1,1.5-0.1s1-0.1,1.5,0
					c0.9,0,1.7,0.1,2.1,0.1c0.4,0,0.7,0,1,0.1c0.3,0,0.6,0,0.9,0.1c0.6,0.1,1,0.1,1.6,0.3c-0.6-0.2-1-0.5-1.5-0.8
					c-0.5-0.2-1-0.6-1.7-0.8c-0.4-0.1-1.2-0.4-2.2-0.6c-0.5-0.1-1-0.2-1.6-0.2c-0.3,0-0.6-0.1-0.9-0.1c-0.3,0-0.6,0-0.9,0
					c-0.3,0-0.6,0-0.9,0c-0.2,0-0.6,0.1-0.8,0.1c-0.5,0.1-1,0.1-1.4,0.1c-0.8,0.1-1.3,0.2-1.3,0.2s-0.5,0.1-1.3,0.3
					c-0.4,0.1-0.9,0.2-1.4,0.4c-0.2,0.1-0.5,0.2-0.7,0.3c-0.2,0.1-0.5,0.2-0.7,0.4c-0.2,0.1-0.5,0.2-0.8,0.4
					c-0.2,0.2-0.5,0.3-0.7,0.5s-0.5,0.3-0.7,0.5s-0.4,0.4-0.6,0.5c-0.8,0.6-1.3,1.4-1.6,1.6c-0.5,0.6-0.7,1.2-1,1.7
					C855.8,363.9,855.6,364.4,855.3,364.9z"/>
			</g>
			<g>
				<path class="st2" d="M1001.3,357.8c1,0.1,1.7,0.6,2.9,1c0.6,0.2,2.5,1,4.1,1.9c0.8,0.4,1.5,0.9,2,1.2c0.6,0.4,0.9,0.6,0.9,0.6
					s0.3,0.2,0.8,0.6s1.1,0.9,1.7,1.6c0.6,0.7,1,1.4,1.4,2.1s0.6,1.3,0.6,1.6c0.2,0.6,0.3,1,0.4,1.5c0.1,0.2,0.1,0.5,0.1,0.7
					s0,0.5-0.1,0.7c0.2-1,0.7-1.7,0.7-3.1c0-0.4,0-1.1-0.2-2s-0.7-1.9-1.3-2.8s-1.3-1.6-1.8-2c-0.6-0.5-0.9-0.7-0.9-0.7
					s-0.4-0.3-1-0.7s-1.5-0.9-2.4-1.2s-1.9-0.7-2.8-0.9c-0.9-0.2-1.6-0.2-1.9-0.2C1003.1,357.6,1002.3,357.9,1001.3,357.8z"/>
			</g>
		</g>
		<path class="st2" d="M981,321.8c-5.4-9.7-43.9-10.6-43.9-10.6c-4.4-0.2-39.3,2.7-43.9,10.6c0,0-5.7,10.6,2.5,20.4
			c0,0,33.6-5.8,41.4-5.9l0,0l0,0c7.8,0.1,41.4,5.9,41.4,5.9C986.8,332.4,981,321.8,981,321.8z"/>
		<path class="st6" d="M977.4,324.7c-6-6.5-40.3-6.8-40.3-6.8l0,0l0,0l0,0l0,0c0,0-34.3,0.3-40.3,6.8c0,0-1.7,6.9,1.5,11
			c0,0,32.4-5.4,38.8-5.7l0,0c6.3,0.3,38.8,5.7,38.8,5.7C979.1,331.6,977.4,324.7,977.4,324.7z"/>
		<path class="st2" d="M861.6,462.3c0,0,7.4,19.4,5.2,29.4l8.6,6.5C875.5,498.2,875.2,471.8,861.6,462.3z"/>
		<path class="st2" d="M935.4,495.9c0,0-20.8-5.2-41.5-23.9c0,0,10.2,19.8,41.5,27.7C966.7,491.9,977,472,977,472
			C956.2,490.7,935.4,495.9,935.4,495.9z"/>
		<path class="st2" d="M900.8,324.3c0,0-2,4.3,0,7.5C900.8,331.8,902,328.4,900.8,324.3z"/>
		<path class="st2" d="M903.9,323.6c0,0-2,4.3,0,7.5C903.9,331.1,905,327.8,903.9,323.6z"/>
		<path class="st2" d="M908.1,323.1c0,0-2,4.3,0,7.5C908.1,330.5,909.2,327.2,908.1,323.1z"/>
		<path class="st2" d="M970.3,324.3c0,0,1.2,4.6-1.4,7.4C968.9,331.6,968.5,328.2,970.3,324.3z"/>
		<path class="st2" d="M967.1,323.7c0,0,1.2,4.6-1.4,7.4C965.8,331,965.2,327.5,967.1,323.7z"/>
		<path class="st2" d="M973.8,325.3c0,0,1.2,4.6-1.4,7.4C972.5,332.6,972,329.1,973.8,325.3z"/>
	</g>
	<g class="st1">
		<path class="st2" d="M991.6,192.2c0,0-36.1,16.1-62.1,13.2c-26,2.9-62.1-13.2-62.1-13.2c-32.8-8.1-49.8,21.1-49.8,21.1
			s43,51.6,111.9,62.7c69-11.1,111.9-62.7,111.9-62.7S1024.4,184,991.6,192.2z"/>
		<path class="st3" d="M1032.8,212.4c-26.5-33.6-103.3,5.5-103.3,5.5s-76.8-39.2-103.3-5.5c0,0,39.3,43.8,103.3,55.7l0,0l0,0l0,0
			l0,0C993.4,256.1,1032.8,212.4,1032.8,212.4z"/>
		<path class="st2" d="M1005,211.6c0,0-7.4,19.4-5.2,29.4l-8.6,6.5C991.1,247.5,991.4,221.1,1005,211.6z"/>
		<g>
			<g>
				<path class="st2" d="M1018.2,96.4c-3.8-3.9-8.8-5.9-15-5.9c-10,0-19.7,5.3-21.7,6.5c-4.9-0.7-8.3-4-10.1-9.7
					c-1.4-4.6-1.2-9-1.2-9V78l-0.2-0.3c-8.4-14.6-17.4-22-26.4-22c-7,0-12.1,4.6-14.1,6.7c-2-2.2-7.1-6.7-14.1-6.7
					c-9.1,0-18,7.4-26.4,22l-0.2,0.3v0.4c0,0.1,0.2,4.5-1.2,9c-1.8,5.7-5.2,8.9-10.1,9.7c-2-1.2-11.7-6.5-21.7-6.5
					c-6.1,0-11.2,2-15,5.9c-6,6.2-8.9,17.2-8.4,32.7v0.2c0.1,0.2,3.9,18.2,16.5,39.7c11.5,19.8,32.8,46.8,69.2,62.7l10.4,2.9v0.7
					l1.2-0.3l1.2,0.3v-0.7l10.2-2.8l0.2-0.1c36.4-15.9,57.7-42.8,69.2-62.7c12.4-21.5,16.4-39.5,16.5-39.7v-0.2
					C1027.1,113.6,1024.3,102.7,1018.2,96.4z"/>
				<path class="st4" d="M1005.5,99.6c-14.7-1.5-41.5,19.7-41.5,19.7c4.1-6.4,12.6-13.4,12.6-13.4C959.4,98.3,962,79.2,962,79.2
					c-13.9-21.4-26.2-11.6-26.2-11.6l-6.3,4.7l-6.3-4.7c0,0-12.3-9.9-26.2,11.5c0,0,2.6,19.2-14.6,26.7c0,0,8.5,7,12.6,13.4
					c0,0-26.7-21.2-41.5-19.7c0,0-16.6,4.8-14.3,29.8c0,0,4.3,13.9,13.9,31.4c1.5,2.5,13.5,22.5,33.9,25c0,0-8.8,3.2-19.7-3.1
					c14.4,19,34.7,37.5,62.1,44.4l0,0l0,0l0,0l0,0c27.4-7,47.8-25.4,62.1-44.4c-11,6.3-19.7,3.1-19.7,3.1
					c20.4-2.5,32.5-22.5,33.9-25c9.7-17.4,13.9-31.4,13.9-31.4C1022.1,104.4,1005.5,99.6,1005.5,99.6z M1000.7,117.6
					c-1.4,51.6-32.7,59.5-45.5,60.6c-2,4.9-6.5,14.7-11.5,17.4c0,0-4.8-6.5-4.9-17.7c-2.8-0.6-5.9-1.6-9.2-3.3l0,0l0,0l0,0l0,0l0,0
					l0,0c-3.4,1.7-6.5,2.7-9.2,3.3c-0.1,11.3-4.9,17.7-4.9,17.7c-5.1-2.7-9.6-12.6-11.5-17.4c-12.8-1-44.1-8.9-45.5-60.6
					c-0.9-0.7-1.7-0.9-4.3-1.2c0,0,8.6-4,14,3.3c0,0-4.3-1.7-7.2-1.5c0,0,7.3,26,34.3,39.2c-2-7.6-1.9-13.6-1.9-13.6
					c2.8-22.2,31.9-20,31.9-20l4,0.2l0,0c0.1,0,0.2,0,0.3,0s0.2,0,0.3,0l0,0l4-0.2c0,0,29.2-2.2,31.9,20c0,0,0.1,5.9-1.9,13.6
					c27-13.2,34.3-39.2,34.3-39.2c-2.9-0.1-7.2,1.5-7.2,1.5c5.4-7.3,14-3.3,14-3.3C1002.5,116.8,1001.6,116.9,1000.7,117.6z"/>
				<path class="st4" d="M959.1,143c-2.3-12.8-23.5-14.5-23.5-14.5l-5.9-0.3l0,0h-0.1h-0.1l0,0l-5.9,0.3c0,0-21.1,1.7-23.5,14.5
					c-1.4,7.8,0.1,17.9,8.5,29.3c0,0,5.9,5.4,21.1-5.1c15.2,10.5,21.1,5.1,21.1,5.1C959,160.9,960.5,150.7,959.1,143z"/>
				<path class="st2" d="M921.7,80c0,0-6.1-7.1-15.5-0.7c0,0,8.5-1.7,11.2,2.6c0,0-17.3-7.3-16.1,21.6l1.4,7.1
					c0,0,14.8,5.4,20.8,3.4C923.6,114.1,927.3,92.1,921.7,80z"/>
				<path class="st5" d="M919.3,86.7c0,0-12.3-7.5-14.7,11.2c0,0,0.1,7.5,1.2,9.2l14.3,3.2C920.1,110.4,923,90.9,919.3,86.7z"/>
				<path class="st2" d="M924.1,103.3c-0.3,5.9-3.3,10.5-6.7,10.4c-3.4-0.2-5.9-5.1-5.6-11c0.3-5.9,3.3-10.5,6.7-10.4
					C921.8,92.6,924.4,97.5,924.1,103.3z"/>
				<path class="st5" d="M897.1,163.6c-13.7-3.6-24.3-16-30-24.3c3.6,6.9,8.9,15.8,13.9,20.1c0,0-9.3-6.3-16.5-20
					c11.1,32.7,37.1,34.6,37.1,34.6L897.1,163.6z"/>
				
					<ellipse transform="matrix(0.9802 -0.1978 0.1978 0.9802 -12.0749 183.9397)" class="st2" cx="914.7" cy="152.4" rx="5.4" ry="9.6"/>
				<path class="st5" d="M915.8,177.8c0,0-1.3,0.3-2.9,0.5l-0.3,6.8c-0.7-1.7-1.5-4.9-1.8-6.6c-0.9,0.1-1.8,0.1-2.6-0.1
					c0,0,2.8,8.4,6.1,12.3C914.2,190.7,916.5,182,915.8,177.8z"/>
				<path class="st2" d="M912.5,164.9c0,0,7.3,4.4,10.1-5.3C922.6,159.6,921.2,172,912.5,164.9z"/>
				<path class="st2" d="M937.3,80c0,0,6.1-7.1,15.5-0.7c0,0-8.5-1.7-11.2,2.6c0,0,17.3-7.3,16.1,21.6l-1.4,7.1
					c0,0-14.8,5.4-20.8,3.4C935.4,114.1,931.7,92.1,937.3,80z"/>
				<path class="st5" d="M939.7,86.7c0,0,12.3-7.5,14.7,11.2c0,0-0.1,7.5-1.2,9.2l-14.3,3.2C938.9,110.4,936.1,90.9,939.7,86.7z"/>
				<path class="st2" d="M934.9,103.3c0.3,5.9,3.3,10.5,6.7,10.4c3.4-0.2,5.9-5.1,5.6-11c-0.3-5.9-3.3-10.5-6.7-10.4
					C937.1,92.6,934.6,97.5,934.9,103.3z"/>
				<path class="st5" d="M961.9,163.6c13.7-3.6,24.3-16,30-24.3c-3.6,6.9-8.9,15.8-13.9,20.1c0,0,9.3-6.3,16.5-20
					c-11.1,32.7-37.1,34.6-37.1,34.6L961.9,163.6z"/>
				
					<ellipse transform="matrix(0.1978 -0.9802 0.9802 0.1978 608.0676 1047.8673)" class="st2" cx="944.3" cy="152.4" rx="9.6" ry="5.4"/>
				<path class="st5" d="M943.2,177.8c0,0,1.3,0.3,2.9,0.5l0.3,6.8c0.7-1.7,1.5-4.9,1.8-6.6c0.9,0.1,1.8,0.1,2.6-0.1
					c0,0-2.8,8.4-6.1,12.3C944.8,190.7,942.5,182,943.2,177.8z"/>
				<path class="st2" d="M946.4,164.9c0,0-7.3,4.4-10.1-5.3C936.4,159.6,937.7,172,946.4,164.9z"/>
			</g>
			<g>
				<path class="st2" d="M902.3,197.9c4,1.9,6.5,3.9,11.7,5.7c0.2,0.1,0.5,0.2,0.8,0.2c0.3,0.1,0.7,0.2,1.1,0.3
					c0.4,0.1,0.9,0.2,1.5,0.4s1.2,0.3,2,0.4c0.6,0.1,1.2,0.2,2,0.4c0.8,0.1,1.7,0.2,2.4,0.3c0.8,0.1,1.5,0.1,2,0.2
					c0.5,0.1,0.9,0.1,0.9,0.1s0.2,0,0.7,0.1c0.4,0.1,1,0,1.8,0.1c0.7,0,1.5,0,2.2,0c0.7-0.1,1.5-0.1,2.1-0.1c1-0.1,2-0.2,2.8-0.3
					c0.9-0.1,1.6-0.2,2.3-0.4c0.7-0.1,1.2-0.2,1.7-0.4c0.5-0.1,0.9-0.2,1.2-0.3c2.6-0.7,4.6-1.7,6.4-2.5c0.9-0.4,1.7-0.9,2.7-1.4
					c0.9-0.5,1.8-1,2.8-1.4c-1,0.4-2,0.7-3,1c-1,0.2-1.9,0.4-2.9,0.6c-2,0.4-4,0.7-6.6,1c-0.3,0.1-0.7,0.1-1.2,0.2s-1,0.1-1.7,0.2
					c-0.6,0.1-1.4,0.1-2.2,0.2c-0.8,0.1-1.7,0.2-2.7,0.2c-0.6,0-1.2,0.1-2,0.1c-0.7,0-1.4,0-2.1,0s-1.2,0-1.7,0
					c-0.4,0-0.7-0.1-0.7-0.1s-0.3,0-0.8-0.1s-1.2-0.1-1.9-0.1c-0.7-0.1-1.5-0.1-2.3-0.2c-0.7-0.1-1.4-0.2-2-0.2
					c-0.7-0.1-1.4-0.2-2-0.3s-1-0.2-1.5-0.2c-0.4-0.1-0.7-0.1-1-0.2c-0.3-0.1-0.6-0.1-0.7-0.2c-2.6-0.5-4.6-0.9-6.5-1.3
					c-1-0.2-1.9-0.4-2.9-0.7C904.3,198.7,903.3,198.4,902.3,197.9z"/>
			</g>
			<g>
				<path class="st2" d="M916.5,211.6c0.5,0.3,0.9,0.7,1.3,1.1c0.4,0.4,0.9,0.8,1.5,1.2c0.2,0.1,0.4,0.2,0.8,0.4
					c0.2,0.1,0.4,0.2,0.6,0.3c0.2,0.1,0.4,0.2,0.7,0.2c0.5,0.2,1,0.4,1.5,0.5c0.3,0.1,0.6,0.1,0.9,0.2c0.3,0.1,0.6,0.1,0.9,0.1
					c0.3,0.1,0.6,0.1,0.9,0.1c0.2,0,0.6,0.1,0.8,0.1c0.5,0,1,0.1,1.4,0.1s0.7,0,1-0.1c0.2,0,0.4,0,0.4,0s0.5-0.1,1.3-0.1
					c0.8-0.1,1.8-0.3,3-0.6c1.1-0.2,2.2-0.6,3.1-1c0.9-0.4,1.7-0.7,2-0.9c1.4-0.7,2-1.4,3.1-1.8c-1.2,0.3-2.1-0.1-3.6,0.1
					c-0.4,0-1.2,0.1-2.2,0.2c-0.9,0.1-2,0.2-3.1,0.3c-1,0.1-2,0.2-2.7,0.3s-1.2,0.1-1.2,0.1s-0.1,0-0.3,0s-0.5,0-0.9,0.1
					s-0.8,0.1-1.2,0.1c-0.2,0-0.5,0-0.7,0s-0.5,0-0.7,0s-0.5,0-0.7,0s-0.5,0-0.7-0.1c-0.5,0-1-0.1-1.4-0.1c-0.2,0-0.4-0.1-0.6-0.1
					c-0.2,0-0.4-0.1-0.6-0.1c-0.4-0.1-0.6-0.1-0.8-0.1c-0.7-0.1-1.3-0.2-1.8-0.2C917.6,212,917.1,211.9,916.5,211.6z"/>
			</g>
			<g>
				<path class="st2" d="M880.3,104.1c0.4,0.2,0.7,0.4,1,0.7c0.3,0.2,0.6,0.6,1,0.9c0.2,0.2,0.6,0.6,1.2,0.9
					c0.6,0.4,1.1,0.9,1.7,1.4c0.6,0.4,1.2,0.9,1.5,1.2c0.4,0.3,0.7,0.5,0.7,0.5s0.2,0.2,0.7,0.6c0.4,0.3,1,0.7,1.6,1.2
					c1.2,0.9,2.7,1.8,3.1,2.2c0.9,0.6,1.6,0.6,2.3,1.2c-0.6-0.6-0.8-1.2-1.5-2.1c-0.2-0.2-0.6-0.7-1-1.2c-0.4-0.6-1-1.1-1.5-1.7
					c-0.6-0.6-1.1-1-1.5-1.4s-0.7-0.6-0.7-0.6s-0.3-0.2-0.7-0.6c-0.4-0.3-1-0.8-1.8-1.2c-0.7-0.4-1.4-0.8-2.1-1
					c-0.7-0.2-1.2-0.4-1.5-0.6C881.8,104.4,881.1,104.5,880.3,104.1z"/>
			</g>
			<g>
				<path class="st2" d="M964.1,111.3c0.4-0.2,0.8-0.4,1.2-0.6c0.4-0.1,0.9-0.3,1.4-0.5c0.3-0.1,0.9-0.3,1.5-0.6s1.5-0.6,2.3-0.9
					c0.7-0.3,1.5-0.6,2-0.7c0.6-0.2,0.9-0.3,0.9-0.3s0.1-0.1,0.2-0.1c0.2-0.1,0.4-0.1,0.7-0.2c0.2-0.1,0.6-0.2,1-0.3
					c0.2-0.1,0.4-0.1,0.6-0.2c0.2-0.1,0.4-0.1,0.6-0.2c0.4-0.1,0.8-0.2,1.2-0.4c0.2-0.1,0.4-0.1,0.6-0.2c0.2-0.1,0.4-0.1,0.6-0.1
					c0.7-0.2,1.3-0.4,1.6-0.4c0.6-0.2,1-0.3,1.4-0.4s0.8-0.2,1.3-0.3c-0.9,0-1.6-0.4-2.8-0.4c-0.3,0-1,0-1.7,0c-0.2,0-0.4,0-0.6,0
					s-0.4,0.1-0.6,0.1c-0.4,0.1-0.9,0.1-1.3,0.2c-0.2,0.1-0.4,0.1-0.6,0.1c-0.2,0.1-0.4,0.1-0.6,0.1c-0.4,0.1-0.7,0.2-1,0.3
					c-0.3,0.1-0.6,0.2-0.7,0.2c-0.2,0.1-0.2,0.1-0.2,0.1s-0.4,0.1-1,0.4c-0.6,0.2-1.4,0.6-2.2,1c-0.7,0.4-1.6,0.9-2.2,1.4
					s-1.1,0.9-1.4,1.1C965.1,110,964.8,110.7,964.1,111.3z"/>
			</g>
			<g>
				<path class="st2" d="M847.7,114.3c0.3-0.5,0.7-0.9,1.1-1.2c0.2-0.2,0.4-0.4,0.7-0.5c0.2-0.2,0.4-0.4,0.7-0.6
					c0.2-0.1,0.4-0.2,0.7-0.5c0.2-0.2,0.6-0.4,1-0.6c0.2-0.1,0.4-0.2,0.6-0.4c0.2-0.1,0.4-0.2,0.7-0.3c0.2-0.1,0.4-0.2,0.7-0.3
					s0.5-0.2,0.7-0.2c0.2-0.1,0.5-0.2,0.7-0.2c0.2-0.1,0.5-0.1,0.7-0.2c0.4-0.1,0.9-0.2,1.2-0.4c0.7-0.2,1.2-0.2,1.2-0.2
					s0.4-0.1,1.2-0.2c0.4-0.1,0.8-0.1,1.2-0.2c0.2,0,0.5-0.1,0.7-0.1s0.5-0.1,0.7-0.1c0.5-0.1,1-0.1,1.5-0.1s1-0.1,1.5,0
					c0.9,0,1.7,0.1,2.1,0.1c0.4,0,0.7,0,1,0.1c0.3,0,0.6,0,0.9,0.1c0.6,0.1,1,0.1,1.6,0.3c-0.6-0.2-1-0.5-1.5-0.8
					c-0.5-0.2-1-0.6-1.7-0.8c-0.4-0.1-1.2-0.4-2.2-0.6c-0.5-0.1-1-0.2-1.6-0.2c-0.3,0-0.6-0.1-0.9-0.1c-0.3,0-0.6,0-0.9,0
					s-0.6,0-0.9,0c-0.2,0-0.6,0.1-0.8,0.1c-0.5,0.1-1,0.1-1.4,0.1c-0.8,0.1-1.3,0.2-1.3,0.2s-0.5,0.1-1.3,0.3
					c-0.4,0.1-0.9,0.2-1.4,0.4c-0.2,0.1-0.5,0.2-0.7,0.3c-0.2,0.1-0.5,0.2-0.7,0.4c-0.2,0.1-0.5,0.2-0.8,0.4
					c-0.2,0.2-0.5,0.3-0.7,0.5s-0.5,0.3-0.7,0.5s-0.4,0.4-0.6,0.5c-0.8,0.6-1.3,1.4-1.6,1.6c-0.5,0.6-0.7,1.2-1,1.7
					C848.2,113.3,848,113.8,847.7,114.3z"/>
			</g>
			<g>
				<path class="st2" d="M993.7,107.1c1,0.1,1.7,0.6,2.9,1c0.6,0.2,2.5,1,4.1,1.9c0.8,0.4,1.5,0.9,2,1.2c0.6,0.4,0.9,0.6,0.9,0.6
					s0.3,0.2,0.8,0.6s1.1,0.9,1.7,1.6c0.6,0.7,1,1.4,1.4,2.1s0.6,1.3,0.6,1.6c0.2,0.6,0.3,1,0.4,1.5c0.1,0.2,0.1,0.5,0.1,0.7
					s0,0.5-0.1,0.7c0.2-1,0.7-1.7,0.7-3.1c0-0.4,0-1.1-0.2-2s-0.7-1.9-1.3-2.8s-1.3-1.6-1.8-2c-0.6-0.5-0.9-0.7-0.9-0.7
					s-0.4-0.3-1-0.7c-0.6-0.4-1.5-0.9-2.4-1.2s-1.9-0.7-2.8-0.9c-0.9-0.2-1.6-0.2-1.9-0.2C995.6,106.9,994.8,107.2,993.7,107.1z"/>
			</g>
		</g>
		<path class="st2" d="M973.4,71.1c-5.4-9.7-43.9-10.6-43.9-10.6c-4.4-0.2-39.3,2.7-43.9,10.6c0,0-5.7,10.6,2.5,20.4
			c0,0,33.6-5.8,41.4-5.9l0,0l0,0c7.8,0.1,41.4,5.9,41.4,5.9C979.2,81.7,973.4,71.1,973.4,71.1z"/>
		<path class="st6" d="M969.8,74.1c-6-6.5-40.3-6.8-40.3-6.8l0,0l0,0l0,0l0,0c0,0-34.3,0.3-40.3,6.8c0,0-1.7,6.9,1.5,11
			c0,0,32.4-5.4,38.8-5.7l0,0c6.3,0.3,38.8,5.7,38.8,5.7C971.5,81,969.8,74.1,969.8,74.1z"/>
		<path class="st2" d="M854,211.6c0,0,7.4,19.4,5.2,29.4l8.6,6.5C867.9,247.5,867.6,221.1,854,211.6z"/>
		<path class="st2" d="M927.8,245.2c0,0-20.8-5.2-41.5-23.9c0,0,10.2,19.8,41.5,27.7c31.3-7.8,41.5-27.7,41.5-27.7
			C948.6,240,927.8,245.2,927.8,245.2z"/>
		<path class="st2" d="M893.2,73.6c0,0-2,4.3,0,7.5C893.2,81.1,894.4,77.7,893.2,73.6z"/>
		<path class="st2" d="M896.3,73c0,0-2,4.3,0,7.5C896.3,80.4,897.4,77.1,896.3,73z"/>
		<path class="st2" d="M900.5,72.4c0,0-2,4.3,0,7.5C900.5,79.9,901.6,76.5,900.5,72.4z"/>
		<path class="st2" d="M962.7,73.6c0,0,1.2,4.6-1.4,7.4C961.3,81,960.9,77.5,962.7,73.6z"/>
		<path class="st2" d="M959.5,73c0,0,1.2,4.6-1.4,7.4C958.2,80.4,957.7,76.8,959.5,73z"/>
		<path class="st2" d="M966.2,74.6c0,0,1.2,4.6-1.4,7.4C964.9,82,964.4,78.4,966.2,74.6z"/>
	</g>
	<g class="st1">
		<path class="st2" d="M729.6,188.4c0,0-36.1,16.1-62.1,13.2c-26,2.9-62.1-13.2-62.1-13.2c-32.8-8.1-49.8,21.1-49.8,21.1
			s43,51.6,111.9,62.7c69-11.1,111.9-62.7,111.9-62.7S762.3,180.2,729.6,188.4z"/>
		<path class="st3" d="M770.7,208.6c-26.5-33.6-103.3,5.5-103.3,5.5s-76.8-39.2-103.3-5.5c0,0,39.3,43.8,103.3,55.7l0,0l0,0l0,0l0,0
			C731.3,252.3,770.7,208.6,770.7,208.6z"/>
		<path class="st2" d="M742.9,207.8c0,0-7.4,19.4-5.2,29.4l-8.6,6.5C729.1,243.7,729.3,217.3,742.9,207.8z"/>
		<g>
			<g>
				<path class="st2" d="M756.2,92.6c-3.8-3.9-8.8-5.9-15-5.9c-10,0-19.7,5.3-21.7,6.5c-4.9-0.7-8.3-4-10.1-9.7
					c-1.4-4.6-1.2-9-1.2-9v-0.4l-0.2-0.3c-8.4-14.6-17.4-22-26.4-22c-7,0-12.1,4.6-14.1,6.7c-2-2.2-7.1-6.7-14.1-6.7
					c-9.1,0-18,7.4-26.4,22l-0.2,0.3v0.4c0,0.1,0.2,4.5-1.2,9c-1.8,5.7-5.2,8.9-10.1,9.7c-2-1.2-11.7-6.5-21.7-6.5
					c-6.1,0-11.2,2-15,5.9c-6,6.2-8.9,17.2-8.4,32.7v0.2c0.1,0.2,3.9,18.2,16.5,39.7c11.5,19.8,32.8,46.8,69.2,62.7l10.4,2.9v0.7
					l1.2-0.3l1.2,0.3v-0.7l10.2-2.8l0.2-0.1c36.4-15.9,57.7-42.8,69.2-62.7c12.4-21.5,16.4-39.5,16.5-39.7v-0.2
					C765.1,109.8,762.2,98.9,756.2,92.6z"/>
				<path class="st4" d="M743.4,95.8c-14.7-1.5-41.5,19.7-41.5,19.7c4.1-6.4,12.6-13.4,12.6-13.4C697.4,94.5,700,75.4,700,75.4
					c-13.9-21.4-26.2-11.6-26.2-11.6l-6.3,4.7l-6.3-4.7c0,0-12.3-9.9-26.2,11.5c0,0,2.6,19.2-14.6,26.7c0,0,8.5,7,12.6,13.4
					c0,0-26.7-21.2-41.5-19.7c0,0-16.6,4.8-14.3,29.8c0,0,4.3,13.9,13.9,31.4c1.5,2.5,13.5,22.5,33.9,25c0,0-8.8,3.2-19.7-3.1
					c14.4,19,34.7,37.5,62.1,44.4l0,0l0,0l0,0l0,0c27.4-7,47.8-25.4,62.1-44.4c-11,6.3-19.7,3.1-19.7,3.1
					c20.4-2.5,32.5-22.5,33.9-25c9.7-17.4,13.9-31.4,13.9-31.4C760.1,100.6,743.4,95.8,743.4,95.8z M738.7,113.8
					c-1.4,51.6-32.7,59.5-45.5,60.6c-2,4.9-6.5,14.7-11.5,17.4c0,0-4.8-6.5-4.9-17.7c-2.8-0.6-5.9-1.6-9.2-3.3l0,0l0,0l0,0l0,0l0,0
					l0,0c-3.4,1.7-6.5,2.7-9.2,3.3c-0.1,11.3-4.9,17.7-4.9,17.7c-5.1-2.7-9.6-12.6-11.5-17.4c-12.8-1-44.1-8.9-45.5-60.6
					c-0.9-0.7-1.7-0.9-4.3-1.2c0,0,8.6-4,14,3.3c0,0-4.3-1.7-7.2-1.5c0,0,7.3,26,34.3,39.2c-2-7.6-1.9-13.6-1.9-13.6
					c2.8-22.2,31.9-20,31.9-20l4,0.2l0,0c0.1,0,0.2,0,0.3,0s0.2,0,0.3,0l0,0l4-0.2c0,0,29.2-2.2,31.9,20c0,0,0.1,5.9-1.9,13.6
					c27-13.2,34.3-39.2,34.3-39.2c-2.9-0.1-7.2,1.5-7.2,1.5c5.4-7.3,14-3.3,14-3.3C740.4,113,739.5,113.1,738.7,113.8z"/>
				<path class="st4" d="M697,139.2c-2.3-12.8-23.5-14.5-23.5-14.5l-5.9-0.3l0,0h-0.1h-0.1l0,0l-5.9,0.3c0,0-21.1,1.7-23.5,14.5
					c-1.4,7.8,0.1,17.9,8.5,29.3c0,0,5.9,5.4,21.1-5.1c15.2,10.5,21.1,5.1,21.1,5.1C697,157.1,698.4,146.9,697,139.2z"/>
				<path class="st2" d="M659.7,76.3c0,0-6.1-7.1-15.5-0.7c0,0,8.5-1.7,11.2,2.6c0,0-17.3-7.3-16.1,21.6l1.4,7.1
					c0,0,14.8,5.4,20.8,3.4C661.5,110.3,665.2,88.3,659.7,76.3z"/>
				<path class="st5" d="M657.3,82.9c0,0-12.3-7.5-14.7,11.2c0,0,0.1,7.5,1.2,9.2l14.3,3.2C658,106.6,660.9,87.1,657.3,82.9z"/>
				<path class="st2" d="M662.1,99.5c-0.3,5.9-3.3,10.5-6.7,10.4c-3.4-0.2-5.9-5.1-5.6-11c0.3-5.9,3.3-10.5,6.7-10.4
					C659.8,88.8,662.3,93.7,662.1,99.5z"/>
				<path class="st5" d="M635.1,159.8c-13.7-3.6-24.3-16-30-24.3c3.6,6.9,8.9,15.8,13.9,20.1c0,0-9.3-6.3-16.5-20
					c11.1,32.7,37.1,34.6,37.1,34.6L635.1,159.8z"/>
				
					<ellipse transform="matrix(0.9802 -0.1978 0.1978 0.9802 -16.4975 132.0405)" class="st2" cx="652.7" cy="148.6" rx="5.4" ry="9.6"/>
				<path class="st5" d="M653.8,174c0,0-1.3,0.3-2.9,0.5l-0.3,6.8c-0.7-1.7-1.5-4.9-1.8-6.6c-0.9,0.1-1.8,0.1-2.6-0.1
					c0,0,2.8,8.4,6.1,12.3C652.2,186.9,654.4,178.2,653.8,174z"/>
				<path class="st2" d="M650.5,161.1c0,0,7.3,4.4,10.1-5.3C660.6,155.8,659.2,168.2,650.5,161.1z"/>
				<path class="st2" d="M675.3,76.3c0,0,6.1-7.1,15.5-0.7c0,0-8.5-1.7-11.2,2.6c0,0,17.3-7.3,16.1,21.6l-1.4,7.1
					c0,0-14.8,5.4-20.8,3.4C673.4,110.3,669.7,88.3,675.3,76.3z"/>
				<path class="st5" d="M677.7,82.9c0,0,12.3-7.5,14.7,11.2c0,0-0.1,7.5-1.2,9.2l-14.3,3.2C676.9,106.6,674,87.1,677.7,82.9z"/>
				<path class="st2" d="M672.9,99.5c0.3,5.9,3.3,10.5,6.7,10.4c3.4-0.2,5.9-5.1,5.6-11c-0.3-5.9-3.3-10.5-6.7-10.4
					C675.1,88.8,672.5,93.7,672.9,99.5z"/>
				<path class="st5" d="M699.9,159.8c13.7-3.6,24.3-16,30-24.3c-3.6,6.9-8.9,15.8-13.9,20.1c0,0,9.3-6.3,16.5-20
					c-11.1,32.7-37.1,34.6-37.1,34.6L699.9,159.8z"/>
				
					<ellipse transform="matrix(0.1978 -0.9802 0.9802 0.1978 401.5318 787.9657)" class="st2" cx="682.2" cy="148.7" rx="9.6" ry="5.4"/>
				<path class="st5" d="M681.2,174c0,0,1.3,0.3,2.9,0.5l0.3,6.8c0.7-1.7,1.5-4.9,1.8-6.6c0.9,0.1,1.8,0.1,2.6-0.1
					c0,0-2.8,8.4-6.1,12.3C682.7,186.9,680.4,178.2,681.2,174z"/>
				<path class="st2" d="M684.4,161.1c0,0-7.3,4.4-10.1-5.3C674.3,155.8,675.7,168.2,684.4,161.1z"/>
			</g>
			<g>
				<path class="st2" d="M640.3,194.1c4,1.9,6.5,3.9,11.7,5.7c0.2,0.1,0.5,0.2,0.8,0.2c0.3,0.1,0.7,0.2,1.1,0.3s0.9,0.2,1.5,0.4
					s1.2,0.3,2,0.4c0.6,0.1,1.2,0.2,2,0.4c0.8,0.1,1.7,0.2,2.4,0.3c0.8,0.1,1.5,0.1,2,0.2c0.5,0.1,0.9,0.1,0.9,0.1s0.2,0,0.7,0.1
					c0.4,0.1,1,0,1.8,0.1c0.7,0,1.5,0,2.2,0c0.7-0.1,1.5-0.1,2.1-0.1c1-0.1,2-0.2,2.8-0.3c0.9-0.1,1.6-0.2,2.3-0.4
					c0.7-0.1,1.2-0.2,1.7-0.4c0.5-0.1,0.9-0.2,1.2-0.3c2.7-0.7,4.6-1.7,6.4-2.5c0.9-0.4,1.7-0.9,2.7-1.4c0.9-0.5,1.8-1,2.8-1.4
					c-1,0.4-2,0.7-3,1c-1,0.2-1.9,0.4-2.9,0.6c-2,0.4-4,0.7-6.6,1c-0.3,0.1-0.7,0.1-1.2,0.2c-0.5,0.1-1,0.1-1.7,0.2
					c-0.6,0.1-1.4,0.1-2.2,0.2c-0.8,0.1-1.7,0.2-2.7,0.2c-0.6,0-1.2,0.1-2,0.1c-0.7,0-1.4,0-2.1,0s-1.2,0-1.7,0s-0.7-0.1-0.7-0.1
					s-0.3,0-0.8-0.1s-1.2-0.1-1.9-0.1c-0.7-0.1-1.5-0.1-2.3-0.2c-0.7-0.1-1.4-0.2-2-0.2c-0.7-0.1-1.4-0.2-2-0.3s-1-0.2-1.5-0.2
					c-0.4-0.1-0.7-0.1-1-0.2c-0.3-0.1-0.6-0.1-0.7-0.2c-2.6-0.5-4.6-0.9-6.5-1.3c-1-0.2-1.9-0.4-2.9-0.7
					C642.2,194.9,641.2,194.6,640.3,194.1z"/>
			</g>
			<g>
				<path class="st2" d="M654.5,207.8c0.5,0.3,0.9,0.7,1.3,1.1c0.4,0.4,0.9,0.8,1.5,1.2c0.2,0.1,0.4,0.2,0.8,0.4
					c0.2,0.1,0.4,0.2,0.6,0.3c0.2,0.1,0.4,0.2,0.7,0.2c0.5,0.2,1,0.4,1.5,0.5c0.3,0.1,0.6,0.1,0.9,0.2c0.3,0.1,0.6,0.1,0.9,0.1
					c0.3,0.1,0.6,0.1,0.9,0.1c0.2,0,0.6,0.1,0.8,0.1c0.5,0,1,0.1,1.4,0.1s0.7,0,1-0.1c0.2,0,0.4,0,0.4,0s0.5-0.1,1.3-0.1
					c0.8-0.1,1.8-0.3,3-0.6c1.1-0.2,2.2-0.6,3.1-1c0.9-0.4,1.7-0.7,2-0.9c1.4-0.7,2-1.4,3.1-1.8c-1.2,0.3-2.1-0.1-3.6,0.1
					c-0.4,0-1.2,0.1-2.2,0.2c-0.9,0.1-2,0.2-3.1,0.3c-1,0.1-2,0.2-2.7,0.3s-1.2,0.1-1.2,0.1s-0.1,0-0.3,0s-0.5,0-0.9,0.1
					s-0.8,0.1-1.2,0.1c-0.2,0-0.5,0-0.7,0s-0.5,0-0.7,0s-0.5,0-0.7,0s-0.5,0-0.7-0.1c-0.5,0-1-0.1-1.4-0.1c-0.2,0-0.4-0.1-0.6-0.1
					c-0.2,0-0.4-0.1-0.6-0.1c-0.4-0.1-0.6-0.1-0.8-0.1c-0.7-0.1-1.3-0.2-1.8-0.2C655.5,208.2,655,208.1,654.5,207.8z"/>
			</g>
			<g>
				<path class="st2" d="M618.3,100.3c0.4,0.2,0.7,0.4,1,0.7c0.3,0.2,0.6,0.6,1,0.9c0.2,0.2,0.6,0.6,1.2,0.9
					c0.6,0.4,1.1,0.9,1.7,1.4c0.6,0.4,1.2,0.9,1.5,1.2c0.4,0.3,0.7,0.5,0.7,0.5s0.2,0.2,0.7,0.6c0.4,0.3,1,0.7,1.6,1.2
					c1.2,0.9,2.7,1.8,3.1,2.2c0.9,0.6,1.6,0.6,2.3,1.2c-0.6-0.6-0.8-1.2-1.5-2.1c-0.2-0.2-0.6-0.7-1-1.2c-0.4-0.6-1-1.1-1.5-1.7
					c-0.6-0.6-1.1-1-1.5-1.4s-0.7-0.6-0.7-0.6s-0.3-0.2-0.7-0.6c-0.4-0.3-1-0.8-1.8-1.2c-0.7-0.4-1.4-0.8-2.1-1s-1.2-0.4-1.5-0.6
					C619.8,100.6,619.1,100.7,618.3,100.3z"/>
			</g>
			<g>
				<path class="st2" d="M702,107.5c0.4-0.2,0.8-0.4,1.2-0.6c0.4-0.1,0.9-0.3,1.4-0.5c0.3-0.1,0.9-0.3,1.5-0.6
					c0.7-0.3,1.5-0.6,2.3-0.9c0.7-0.3,1.5-0.6,2-0.7c0.6-0.2,0.9-0.3,0.9-0.3s0.1-0.1,0.2-0.1c0.2-0.1,0.4-0.1,0.7-0.2
					c0.2-0.1,0.6-0.2,1-0.3c0.2-0.1,0.4-0.1,0.6-0.2c0.2-0.1,0.4-0.1,0.6-0.2c0.4-0.1,0.8-0.2,1.2-0.4c0.2-0.1,0.4-0.1,0.6-0.2
					c0.2-0.1,0.4-0.1,0.6-0.1c0.7-0.2,1.3-0.4,1.6-0.4c0.6-0.2,1-0.3,1.4-0.4s0.8-0.2,1.3-0.3c-0.9,0-1.6-0.4-2.8-0.4
					c-0.3,0-1,0-1.7,0c-0.2,0-0.4,0-0.6,0s-0.4,0.1-0.6,0.1c-0.4,0.1-0.9,0.1-1.3,0.2c-0.2,0.1-0.4,0.1-0.6,0.1
					c-0.2,0.1-0.4,0.1-0.6,0.1c-0.4,0.1-0.7,0.2-1,0.3c-0.3,0.1-0.6,0.2-0.7,0.2c-0.2,0.1-0.2,0.1-0.2,0.1s-0.4,0.1-1,0.4
					c-0.6,0.2-1.4,0.6-2.2,1c-0.7,0.4-1.6,0.9-2.2,1.4s-1.1,0.9-1.4,1.1C703.1,106.2,702.7,106.9,702,107.5z"/>
			</g>
			<g>
				<path class="st2" d="M585.7,110.5c0.3-0.5,0.7-0.9,1.1-1.2c0.2-0.2,0.4-0.4,0.7-0.5c0.2-0.2,0.4-0.4,0.7-0.6
					c0.2-0.1,0.4-0.2,0.7-0.5c0.2-0.2,0.6-0.4,1-0.6c0.2-0.1,0.4-0.2,0.6-0.4c0.2-0.1,0.4-0.2,0.7-0.3c0.2-0.1,0.4-0.2,0.7-0.3
					c0.2-0.1,0.5-0.2,0.7-0.2c0.2-0.1,0.5-0.2,0.7-0.2c0.2-0.1,0.5-0.1,0.7-0.2c0.4-0.1,0.9-0.2,1.2-0.4c0.7-0.2,1.2-0.2,1.2-0.2
					s0.4-0.1,1.2-0.2c0.4-0.1,0.8-0.1,1.2-0.2c0.2,0,0.5-0.1,0.7-0.1s0.5-0.1,0.7-0.1c0.5-0.1,1-0.1,1.5-0.1s1-0.1,1.5,0
					c0.9,0,1.7,0.1,2.1,0.1c0.4,0,0.7,0,1,0.1c0.3,0,0.6,0,0.9,0.1c0.6,0.1,1,0.1,1.6,0.3c-0.6-0.2-1-0.5-1.5-0.8
					c-0.5-0.2-1-0.6-1.7-0.8c-0.4-0.1-1.2-0.4-2.2-0.6c-0.5-0.1-1-0.2-1.6-0.2c-0.3,0-0.6-0.1-0.9-0.1c-0.3,0-0.6,0-0.9,0
					c-0.3,0-0.6,0-0.9,0c-0.2,0-0.6,0.1-0.8,0.1c-0.5,0.1-1,0.1-1.4,0.1c-0.8,0.1-1.3,0.2-1.3,0.2s-0.5,0.1-1.3,0.3
					c-0.4,0.1-0.9,0.2-1.4,0.4c-0.2,0.1-0.5,0.2-0.7,0.3c-0.2,0.1-0.5,0.2-0.7,0.4c-0.2,0.1-0.5,0.2-0.8,0.4
					c-0.2,0.2-0.5,0.3-0.7,0.5s-0.5,0.3-0.7,0.5s-0.4,0.4-0.6,0.5c-0.8,0.6-1.3,1.4-1.6,1.6c-0.5,0.6-0.7,1.2-1,1.7
					C586.1,109.5,586,110,585.7,110.5z"/>
			</g>
			<g>
				<path class="st2" d="M731.7,103.3c1,0.1,1.7,0.6,2.9,1c0.6,0.2,2.5,1,4.1,1.9c0.8,0.4,1.5,0.9,2,1.2c0.6,0.4,0.9,0.6,0.9,0.6
					s0.3,0.2,0.8,0.6s1.1,0.9,1.7,1.6c0.6,0.7,1,1.4,1.4,2.1s0.6,1.3,0.6,1.6c0.2,0.6,0.3,1,0.4,1.5c0.1,0.2,0.1,0.5,0.1,0.7
					s0,0.5-0.1,0.7c0.2-1,0.7-1.7,0.7-3.1c0-0.4,0-1.1-0.2-2s-0.7-1.9-1.3-2.8s-1.3-1.6-1.8-2c-0.6-0.5-0.9-0.7-0.9-0.7
					s-0.4-0.3-1-0.7c-0.6-0.4-1.5-0.9-2.4-1.2s-1.9-0.7-2.8-0.9c-0.9-0.2-1.6-0.2-1.9-0.2C733.5,103.1,732.7,103.4,731.7,103.3z"/>
			</g>
		</g>
		<path class="st2" d="M711.4,67.3c-5.4-9.7-43.9-10.6-43.9-10.6c-4.4-0.2-39.3,2.7-43.9,10.6c0,0-5.7,10.6,2.5,20.4
			c0,0,33.6-5.8,41.4-5.9l0,0l0,0c7.8,0.1,41.4,5.9,41.4,5.9C717.2,77.9,711.4,67.3,711.4,67.3z"/>
		<path class="st6" d="M707.7,70.3c-6-6.5-40.3-6.8-40.3-6.8l0,0l0,0l0,0l0,0c0,0-34.3,0.3-40.3,6.8c0,0-1.7,6.9,1.5,11
			c0,0,32.4-5.4,38.8-5.7l0,0c6.3,0.3,38.8,5.7,38.8,5.7C709.5,77.2,707.7,70.3,707.7,70.3z"/>
		<path class="st2" d="M591.9,207.8c0,0,7.4,19.4,5.2,29.4l8.6,6.5C605.8,243.7,605.6,217.3,591.9,207.8z"/>
		<path class="st2" d="M665.8,241.4c0,0-20.8-5.2-41.5-23.9c0,0,10.2,19.8,41.5,27.7c31.3-7.8,41.5-27.7,41.5-27.7
			C686.5,236.2,665.8,241.4,665.8,241.4z"/>
		<path class="st2" d="M631.2,69.8c0,0-2,4.3,0,7.5C631.2,77.3,632.3,73.9,631.2,69.8z"/>
		<path class="st2" d="M634.2,69.2c0,0-2,4.3,0,7.5C634.2,76.6,635.4,73.3,634.2,69.2z"/>
		<path class="st2" d="M638.5,68.6c0,0-2,4.3,0,7.5C638.5,76.1,639.6,72.7,638.5,68.6z"/>
		<path class="st2" d="M700.7,69.8c0,0,1.2,4.6-1.4,7.4C699.3,77.2,698.8,73.7,700.7,69.8z"/>
		<path class="st2" d="M697.4,69.2c0,0,1.2,4.6-1.4,7.4C696.2,76.6,695.6,73,697.4,69.2z"/>
		<path class="st2" d="M704.2,70.8c0,0,1.2,4.6-1.4,7.4C702.9,78.2,702.3,74.6,704.2,70.8z"/>
	</g>
	<g class="st1">
		<path class="st2" d="M456.1,188.4c0,0-36.1,16.1-62.1,13.2c-26,2.9-62.1-13.2-62.1-13.2c-32.8-8.1-49.8,21.1-49.8,21.1
			S325,261,394,272.1c69-11.1,111.9-62.7,111.9-62.7S488.9,180.2,456.1,188.4z"/>
		<path class="st3" d="M497.3,208.6C470.8,175,394,214.1,394,214.1s-76.8-39.2-103.3-5.5c0,0,39.3,43.8,103.3,55.7l0,0l0,0l0,0l0,0
			C457.9,252.3,497.3,208.6,497.3,208.6z"/>
		<path class="st2" d="M469.5,207.8c0,0-7.4,19.4-5.2,29.4l-8.6,6.5C455.6,243.7,455.9,217.3,469.5,207.8z"/>
		<g>
			<g>
				<path class="st2" d="M482.7,92.6c-3.8-3.9-8.8-5.9-15-5.9c-10,0-19.7,5.3-21.7,6.5c-4.9-0.7-8.3-4-10.1-9.7
					c-1.4-4.6-1.2-9-1.2-9v-0.4l-0.2-0.3c-8.4-14.6-17.4-22-26.4-22c-7,0-12.1,4.6-14.1,6.7c-2-2.2-7.1-6.7-14.1-6.7
					c-9.1,0-18,7.4-26.4,22l-0.2,0.3v0.4c0,0.1,0.2,4.5-1.2,9c-1.8,5.7-5.2,8.9-10.1,9.7c-2-1.2-11.7-6.5-21.7-6.5
					c-6.1,0-11.2,2-15,5.9c-6,6.2-8.9,17.2-8.4,32.7v0.2c0.1,0.2,3.9,18.2,16.5,39.7c11.5,19.8,32.8,46.8,69.2,62.7l10.4,2.9v0.7
					l1.2-0.3l1.2,0.3v-0.7l10.2-2.8l0.2-0.1c36.4-15.9,57.7-42.8,69.2-62.7c12.4-21.5,16.4-39.5,16.5-39.7v-0.2
					C491.6,109.8,488.8,98.9,482.7,92.6z"/>
				<path class="st4" d="M470,95.8c-14.7-1.5-41.5,19.7-41.5,19.7c4.1-6.4,12.6-13.4,12.6-13.4c-17.2-7.6-14.6-26.7-14.6-26.7
					c-13.9-21.4-26.2-11.6-26.2-11.6l-6.3,4.7l-6.3-4.7c0,0-12.3-9.9-26.2,11.5c0,0,2.6,19.2-14.6,26.7c0,0,8.5,7,12.6,13.4
					c0,0-26.7-21.2-41.5-19.7c0,0-16.6,4.8-14.3,29.8c0,0,4.3,13.9,13.9,31.4c1.5,2.5,13.5,22.5,33.9,25c0,0-8.8,3.2-19.7-3.1
					c14.4,19,34.7,37.5,62.1,44.4l0,0l0,0l0,0l0,0c27.4-7,47.8-25.4,62.1-44.4c-11,6.3-19.7,3.1-19.7,3.1
					c20.4-2.5,32.5-22.5,33.9-25c9.7-17.4,13.9-31.4,13.9-31.4C486.6,100.6,470,95.8,470,95.8z M465.2,113.8
					c-1.4,51.6-32.7,59.5-45.5,60.6c-2,4.9-6.5,14.7-11.5,17.4c0,0-4.8-6.5-4.9-17.7c-2.8-0.6-5.9-1.6-9.2-3.3l0,0l0,0l0,0l0,0l0,0
					l0,0c-3.4,1.7-6.5,2.7-9.2,3.3c-0.1,11.3-4.9,17.7-4.9,17.7c-5.1-2.7-9.6-12.6-11.5-17.4c-12.8-1-44.1-8.9-45.5-60.6
					c-0.9-0.7-1.7-0.9-4.3-1.2c0,0,8.6-4,14,3.3c0,0-4.3-1.7-7.2-1.5c0,0,7.3,26,34.3,39.2c-2-7.6-1.9-13.6-1.9-13.6
					c2.8-22.2,31.9-20,31.9-20l4,0.2l0,0c0.1,0,0.2,0,0.3,0c0.1,0,0.2,0,0.3,0l0,0l4-0.2c0,0,29.2-2.2,31.9,20c0,0,0.1,5.9-1.9,13.6
					c27-13.2,34.3-39.2,34.3-39.2c-2.9-0.1-7.2,1.5-7.2,1.5c5.4-7.3,14-3.3,14-3.3C467,113,466.1,113.1,465.2,113.8z"/>
				<path class="st4" d="M423.6,139.2c-2.3-12.8-23.5-14.5-23.5-14.5l-5.9-0.3l0,0h-0.1H394l0,0l-5.9,0.3c0,0-21.1,1.7-23.5,14.5
					c-1.4,7.8,0.1,17.9,8.5,29.3c0,0,5.9,5.4,21.1-5.1c15.2,10.5,21.1,5.1,21.1,5.1C423.5,157.1,425,146.9,423.6,139.2z"/>
				<path class="st2" d="M386.2,76.3c0,0-6.1-7.1-15.5-0.7c0,0,8.5-1.7,11.2,2.6c0,0-17.3-7.3-16.1,21.6l1.4,7.1
					c0,0,14.8,5.4,20.8,3.4C388.1,110.3,391.8,88.3,386.2,76.3z"/>
				<path class="st5" d="M383.8,82.9c0,0-12.3-7.5-14.7,11.2c0,0,0.1,7.5,1.2,9.2l14.3,3.2C384.6,106.6,387.5,87.1,383.8,82.9z"/>
				<path class="st2" d="M388.6,99.5c-0.3,5.9-3.3,10.5-6.7,10.4c-3.4-0.2-5.9-5.1-5.6-11s3.3-10.5,6.7-10.4
					C386.3,88.8,388.9,93.7,388.6,99.5z"/>
				<path class="st5" d="M361.6,159.8c-13.7-3.6-24.3-16-30-24.3c3.6,6.9,8.9,15.8,13.9,20.1c0,0-9.3-6.3-16.5-20
					c11.1,32.7,37.1,34.6,37.1,34.6L361.6,159.8z"/>
				
					<ellipse transform="matrix(0.9802 -0.1978 0.1978 0.9802 -21.9031 77.9425)" class="st2" cx="379.2" cy="148.6" rx="5.4" ry="9.6"/>
				<path class="st5" d="M380.3,174c0,0-1.3,0.3-2.9,0.5l-0.3,6.8c-0.7-1.7-1.5-4.9-1.8-6.6c-0.9,0.1-1.8,0.1-2.6-0.1
					c0,0,2.8,8.4,6.1,12.3C378.7,186.9,381,178.2,380.3,174z"/>
				<path class="st2" d="M377,161.1c0,0,7.3,4.4,10.1-5.3C387.1,155.8,385.7,168.2,377,161.1z"/>
				<path class="st2" d="M401.8,76.3c0,0,6.1-7.1,15.5-0.7c0,0-8.5-1.7-11.2,2.6c0,0,17.3-7.3,16.1,21.6l-1.4,7.1
					c0,0-14.8,5.4-20.8,3.4C399.9,110.3,396.2,88.3,401.8,76.3z"/>
				<path class="st5" d="M404.2,82.9c0,0,12.3-7.5,14.7,11.2c0,0-0.1,7.5-1.2,9.2l-14.3,3.2C403.4,106.6,400.6,87.1,404.2,82.9z"/>
				<path class="st2" d="M399.4,99.5c0.3,5.9,3.3,10.5,6.7,10.4c3.4-0.2,5.9-5.1,5.6-11s-3.3-10.5-6.7-10.4
					C401.6,88.8,399.1,93.7,399.4,99.5z"/>
				<path class="st5" d="M426.4,159.8c13.7-3.6,24.3-16,30-24.3c-3.6,6.9-8.9,15.8-13.9,20.1c0,0,9.3-6.3,16.5-20
					c-11.1,32.7-37.1,34.6-37.1,34.6L426.4,159.8z"/>
				
					<ellipse transform="matrix(0.1978 -0.9802 0.9802 0.1978 182.2398 519.889)" class="st2" cx="408.8" cy="148.6" rx="9.6" ry="5.4"/>
				<path class="st5" d="M407.7,174c0,0,1.3,0.3,2.9,0.5l0.3,6.8c0.7-1.7,1.5-4.9,1.8-6.6c0.9,0.1,1.8,0.1,2.6-0.1
					c0,0-2.8,8.4-6.1,12.3C409.3,186.9,407,178.2,407.7,174z"/>
				<path class="st2" d="M410.9,161.1c0,0-7.3,4.4-10.1-5.3C400.9,155.8,402.2,168.2,410.9,161.1z"/>
			</g>
			<g>
				<path class="st2" d="M366.8,194.1c4,1.9,6.5,3.9,11.7,5.7c0.2,0.1,0.5,0.2,0.8,0.2c0.3,0.1,0.7,0.2,1.1,0.3s0.9,0.2,1.5,0.4
					s1.2,0.3,2,0.4c0.6,0.1,1.2,0.2,2,0.4c0.8,0.1,1.7,0.2,2.4,0.3c0.8,0.1,1.5,0.1,2,0.2c0.5,0.1,0.9,0.1,0.9,0.1s0.2,0,0.7,0.1
					c0.4,0.1,1,0,1.8,0.1c0.7,0,1.5,0,2.2,0c0.7-0.1,1.5-0.1,2.1-0.1c1-0.1,2-0.2,2.8-0.3c0.9-0.1,1.6-0.2,2.3-0.4
					c0.7-0.1,1.2-0.2,1.7-0.4c0.5-0.1,0.9-0.2,1.2-0.3c2.7-0.7,4.6-1.7,6.4-2.5c0.9-0.4,1.7-0.9,2.7-1.4c0.9-0.5,1.8-1,2.8-1.4
					c-1,0.4-2,0.7-3,1c-1,0.2-1.9,0.4-2.9,0.6c-2,0.4-4,0.7-6.6,1c-0.3,0.1-0.7,0.1-1.2,0.2c-0.5,0.1-1,0.1-1.7,0.2
					c-0.6,0.1-1.4,0.1-2.2,0.2c-0.8,0.1-1.7,0.2-2.7,0.2c-0.6,0-1.2,0.1-2,0.1c-0.7,0-1.4,0-2.1,0s-1.2,0-1.7,0s-0.7-0.1-0.7-0.1
					s-0.3,0-0.8-0.1s-1.2-0.1-1.9-0.1c-0.7-0.1-1.5-0.1-2.3-0.2c-0.7-0.1-1.4-0.2-2-0.2c-0.7-0.1-1.4-0.2-2-0.3s-1-0.2-1.5-0.2
					c-0.4-0.1-0.7-0.1-1-0.2c-0.3-0.1-0.6-0.1-0.7-0.2c-2.6-0.5-4.6-0.9-6.5-1.3c-1-0.2-1.9-0.4-2.9-0.7
					C368.8,194.9,367.8,194.6,366.8,194.1z"/>
			</g>
			<g>
				<path class="st2" d="M381,207.8c0.5,0.3,0.9,0.7,1.3,1.1c0.4,0.4,0.9,0.8,1.5,1.2c0.2,0.1,0.4,0.2,0.8,0.4
					c0.2,0.1,0.4,0.2,0.6,0.3s0.4,0.2,0.7,0.2c0.5,0.2,1,0.4,1.5,0.5c0.3,0.1,0.6,0.1,0.9,0.2s0.6,0.1,0.9,0.1
					c0.3,0.1,0.6,0.1,0.9,0.1c0.2,0,0.6,0.1,0.8,0.1c0.5,0,1,0.1,1.4,0.1s0.7,0,1-0.1c0.2,0,0.4,0,0.4,0s0.5-0.1,1.3-0.1
					c0.8-0.1,1.8-0.3,3-0.6c1.1-0.2,2.2-0.6,3.1-1s1.7-0.7,2-0.9c1.4-0.7,2-1.4,3.1-1.8c-1.2,0.3-2.1-0.1-3.6,0.1
					c-0.4,0-1.2,0.1-2.2,0.2c-0.9,0.1-2,0.2-3.1,0.3c-1,0.1-2,0.2-2.7,0.3s-1.2,0.1-1.2,0.1s-0.1,0-0.3,0s-0.5,0-0.9,0.1
					s-0.8,0.1-1.2,0.1c-0.2,0-0.5,0-0.7,0s-0.5,0-0.7,0s-0.5,0-0.7,0s-0.5,0-0.7-0.1c-0.5,0-1-0.1-1.4-0.1c-0.2,0-0.4-0.1-0.6-0.1
					s-0.4-0.1-0.6-0.1c-0.4-0.1-0.6-0.1-0.8-0.1c-0.7-0.1-1.3-0.2-1.8-0.2C382.1,208.2,381.6,208.1,381,207.8z"/>
			</g>
			<g>
				<path class="st2" d="M344.8,100.3c0.4,0.2,0.7,0.4,1,0.7c0.3,0.2,0.6,0.6,1,0.9c0.2,0.2,0.6,0.6,1.2,0.9
					c0.6,0.4,1.1,0.9,1.7,1.4c0.6,0.4,1.2,0.9,1.5,1.2c0.4,0.3,0.7,0.5,0.7,0.5s0.2,0.2,0.7,0.6c0.4,0.3,1,0.7,1.6,1.2
					c1.2,0.9,2.7,1.8,3.1,2.2c0.9,0.6,1.6,0.6,2.3,1.2c-0.6-0.6-0.8-1.2-1.5-2.1c-0.2-0.2-0.6-0.7-1-1.2c-0.4-0.6-1-1.1-1.5-1.7
					s-1.1-1-1.5-1.4s-0.7-0.6-0.7-0.6s-0.3-0.2-0.7-0.6c-0.4-0.3-1-0.8-1.8-1.2c-0.7-0.4-1.4-0.8-2.1-1s-1.2-0.4-1.5-0.6
					C346.3,100.6,345.6,100.7,344.8,100.3z"/>
			</g>
			<g>
				<path class="st2" d="M428.6,107.5c0.4-0.2,0.8-0.4,1.2-0.6c0.4-0.1,0.9-0.3,1.4-0.5c0.3-0.1,0.9-0.3,1.5-0.6
					c0.7-0.3,1.5-0.6,2.3-0.9c0.7-0.3,1.5-0.6,2-0.7c0.6-0.2,0.9-0.3,0.9-0.3s0.1-0.1,0.2-0.1c0.2-0.1,0.4-0.1,0.7-0.2
					c0.2-0.1,0.6-0.2,1-0.3c0.2-0.1,0.4-0.1,0.6-0.2s0.4-0.1,0.6-0.2c0.4-0.1,0.8-0.2,1.2-0.4c0.2-0.1,0.4-0.1,0.6-0.2
					s0.4-0.1,0.6-0.1c0.7-0.2,1.3-0.4,1.6-0.4c0.6-0.2,1-0.3,1.4-0.4s0.8-0.2,1.3-0.3c-0.9,0-1.6-0.4-2.8-0.4c-0.3,0-1,0-1.7,0
					c-0.2,0-0.4,0-0.6,0s-0.4,0.1-0.6,0.1c-0.4,0.1-0.9,0.1-1.3,0.2c-0.2,0.1-0.4,0.1-0.6,0.1c-0.2,0.1-0.4,0.1-0.6,0.1
					c-0.4,0.1-0.7,0.2-1,0.3c-0.3,0.1-0.6,0.2-0.7,0.2c-0.2,0.1-0.2,0.1-0.2,0.1s-0.4,0.1-1,0.4c-0.6,0.2-1.4,0.6-2.2,1
					c-0.7,0.4-1.6,0.9-2.2,1.4s-1.1,0.9-1.4,1.1C429.6,106.2,429.3,106.9,428.6,107.5z"/>
			</g>
			<g>
				<path class="st2" d="M312.2,110.5c0.3-0.5,0.7-0.9,1.1-1.2c0.2-0.2,0.4-0.4,0.7-0.5c0.2-0.2,0.4-0.4,0.7-0.6
					c0.2-0.1,0.4-0.2,0.7-0.5c0.2-0.2,0.6-0.4,1-0.6c0.2-0.1,0.4-0.2,0.6-0.4c0.2-0.1,0.4-0.2,0.7-0.3c0.2-0.1,0.4-0.2,0.7-0.3
					c0.2-0.1,0.5-0.2,0.7-0.2c0.2-0.1,0.5-0.2,0.7-0.2c0.2-0.1,0.5-0.1,0.7-0.2c0.4-0.1,0.9-0.2,1.2-0.4c0.7-0.2,1.2-0.2,1.2-0.2
					s0.4-0.1,1.2-0.2c0.4-0.1,0.8-0.1,1.2-0.2c0.2,0,0.5-0.1,0.7-0.1s0.5-0.1,0.7-0.1c0.5-0.1,1-0.1,1.5-0.1s1-0.1,1.5,0
					c0.9,0,1.7,0.1,2.1,0.1s0.7,0,1,0.1c0.3,0,0.6,0,0.9,0.1c0.6,0.1,1,0.1,1.6,0.3c-0.6-0.2-1-0.5-1.5-0.8c-0.5-0.2-1-0.6-1.7-0.8
					c-0.4-0.1-1.2-0.4-2.2-0.6c-0.5-0.1-1-0.2-1.6-0.2c-0.3,0-0.6-0.1-0.9-0.1s-0.6,0-0.9,0s-0.6,0-0.9,0c-0.2,0-0.6,0.1-0.8,0.1
					c-0.5,0.1-1,0.1-1.4,0.1c-0.8,0.1-1.3,0.2-1.3,0.2s-0.5,0.1-1.3,0.3c-0.4,0.1-0.9,0.2-1.4,0.4c-0.2,0.1-0.5,0.2-0.7,0.3
					c-0.2,0.1-0.5,0.2-0.7,0.4c-0.2,0.1-0.5,0.2-0.8,0.4c-0.2,0.2-0.5,0.3-0.7,0.5s-0.5,0.3-0.7,0.5s-0.4,0.4-0.6,0.5
					c-0.8,0.6-1.3,1.4-1.6,1.6c-0.5,0.6-0.7,1.2-1,1.7C312.7,109.5,312.5,110,312.2,110.5z"/>
			</g>
			<g>
				<path class="st2" d="M458.2,103.3c1,0.1,1.7,0.6,2.9,1c0.6,0.2,2.5,1,4.1,1.9c0.8,0.4,1.5,0.9,2,1.2c0.6,0.4,0.9,0.6,0.9,0.6
					s0.3,0.2,0.8,0.6s1.1,0.9,1.7,1.6s1,1.4,1.4,2.1s0.6,1.3,0.6,1.6c0.2,0.6,0.3,1,0.4,1.5c0.1,0.2,0.1,0.5,0.1,0.7s0,0.5-0.1,0.7
					c0.2-1,0.7-1.7,0.7-3.1c0-0.4,0-1.1-0.2-2s-0.7-1.9-1.3-2.8c-0.6-0.9-1.3-1.6-1.8-2c-0.6-0.5-0.9-0.7-0.9-0.7s-0.4-0.3-1-0.7
					c-0.6-0.4-1.5-0.9-2.4-1.2c-0.9-0.4-1.9-0.7-2.8-0.9c-0.9-0.2-1.6-0.2-1.9-0.2C460.1,103.1,459.3,103.4,458.2,103.3z"/>
			</g>
		</g>
		<path class="st2" d="M437.9,67.3c-5.4-9.7-43.9-10.6-43.9-10.6c-4.4-0.2-39.3,2.7-43.9,10.6c0,0-5.7,10.6,2.5,20.4
			c0,0,33.6-5.8,41.4-5.9l0,0l0,0c7.8,0.1,41.4,5.9,41.4,5.9C443.7,77.9,437.9,67.3,437.9,67.3z"/>
		<path class="st6" d="M434.3,70.3c-6-6.5-40.3-6.8-40.3-6.8l0,0l0,0l0,0l0,0c0,0-34.3,0.3-40.3,6.8c0,0-1.7,6.9,1.5,11
			c0,0,32.4-5.4,38.8-5.7l0,0c6.3,0.3,38.8,5.7,38.8,5.7C436,77.2,434.3,70.3,434.3,70.3z"/>
		<path class="st2" d="M318.5,207.8c0,0,7.4,19.4,5.2,29.4l8.6,6.5C332.4,243.7,332.1,217.3,318.5,207.8z"/>
		<path class="st2" d="M392.3,241.4c0,0-20.8-5.2-41.5-23.9c0,0,10.2,19.8,41.5,27.7c31.3-7.8,41.5-27.7,41.5-27.7
			C413.1,236.2,392.3,241.4,392.3,241.4z"/>
		<path class="st2" d="M357.8,69.8c0,0-2,4.3,0,7.5C357.8,77.3,358.9,73.9,357.8,69.8z"/>
		<path class="st2" d="M360.8,69.2c0,0-2,4.3,0,7.5C360.8,76.6,361.9,73.3,360.8,69.2z"/>
		<path class="st2" d="M365,68.6c0,0-2,4.3,0,7.5C365,76.1,366.1,72.7,365,68.6z"/>
		<path class="st2" d="M427.2,69.8c0,0,1.2,4.6-1.4,7.4C425.9,77.2,425.4,73.7,427.2,69.8z"/>
		<path class="st2" d="M424,69.2c0,0,1.2,4.6-1.4,7.4C422.7,76.6,422.2,73,424,69.2z"/>
		<path class="st2" d="M430.7,70.8c0,0,1.2,4.6-1.4,7.4C429.4,78.2,428.9,74.6,430.7,70.8z"/>
	</g>
</g>
<g id="_14-drop" class="st0">
	<g id="gradient" class="st1">
		
			<linearGradient id="SVGID_1_" gradientUnits="userSpaceOnUse" x1="232.0475" y1="130.8136" x2="519.7522" y2="418.5174" gradientTransform="matrix(1 0 0 -1 0 588)">
			<stop  offset="1.500000e-02" style="stop-color:#C6E6EF"/>
			<stop  offset="1" style="stop-color:#E3F2F7"/>
		</linearGradient>
		<path class="st7" d="M469.7,136.6c-42.1-59.1-83.5-100.8-85.3-102.5c-4.7-4.7-12.3-4.7-17,0c-1.7,1.7-43.2,43.4-85.3,102.5
			c-57.2,80.4-86.2,151-86.2,210c0,99.3,80.7,180,180,180s180-80.7,180-180C555.9,287.7,526.9,217,469.7,136.6z"/>
		
			<linearGradient id="SVGID_2_" gradientUnits="userSpaceOnUse" x1="554.7878" y1="355.032" x2="677.0126" y2="477.2578" gradientTransform="matrix(1 0 0 -1 0 588)">
			<stop  offset="1.500000e-02" style="stop-color:#C6E6EF"/>
			<stop  offset="1" style="stop-color:#E3F2F7"/>
		</linearGradient>
		<path class="st8" d="M624.4,58.1c-4.7-4.7-12.3-4.7-17,0c-2.8,2.8-67.5,68.2-67.5,128.5c0,42,34,76,76,76s76-34,76-76
			C691.9,126.3,627.1,60.9,624.4,58.1z"/>
		
			<linearGradient id="SVGID_3_" gradientUnits="userSpaceOnUse" x1="286.0974" y1="151.5975" x2="465.7026" y2="331.2026" gradientTransform="matrix(1 0 0 -1 0 588)">
			<stop  offset="1.500000e-02" style="stop-color:#72C0D6"/>
			<stop  offset="1" style="stop-color:#C6E6EF"/>
		</linearGradient>
		<circle class="st9" cx="375.9" cy="346.6" r="127"/>
		
			<linearGradient id="SVGID_4_" gradientUnits="userSpaceOnUse" x1="267.547" y1="148.517" x2="486.295" y2="367.265" gradientTransform="matrix(1 0 0 -1 0 588)">
			<stop  offset="1.100000e-02" style="stop-color:#618564"/>
			<stop  offset="1" style="stop-color:#C0CEC1"/>
		</linearGradient>
		<path class="st10" d="M405,460.4v-38.6l15.4-30.7c0.6-1.1,0.8-2.4,0.6-3.7l-6.3-38c-0.4-2.2-1.9-4-4-4.7l-36.5-12.2
			c-0.2-0.1-0.5-0.1-0.7-0.2l-27.5-5.5l-11.5-11h1.3c1.4,0,2.7-0.5,3.7-1.3l18.9-15.1l38.8-3.9c3-0.3,5.3-2.8,5.4-5.8l2.1-66.9
			c-67.2-15.6-134.6,25.4-151.8,92.2l21.8,13.6l15.3,22.9c0.4,0.6,1,1.2,1.6,1.6l41.7,28.3l-3.6,28.8c-0.2,1.3,0.1,2.6,0.7,3.7
			l15.4,26.9l-0.4,28.9c17.8,4.4,36.3,4.9,54.3,1.4l4.4-8.1C404.7,462.3,405,461.4,405,460.4L405,460.4z"/>
		
			<linearGradient id="SVGID_5_" gradientUnits="userSpaceOnUse" x1="317.0195" y1="99.0446" x2="535.7675" y2="317.7925" gradientTransform="matrix(1 0 0 -1 0 588)">
			<stop  offset="1.100000e-02" style="stop-color:#618564"/>
			<stop  offset="1" style="stop-color:#C0CEC1"/>
		</linearGradient>
		<path class="st11" d="M463.9,255.1l-22.3,44.6c-0.6,1.2-0.8,2.6-0.5,3.9l8,40c0.3,1.3,1,2.5,2,3.4l17.3,14.6l21,42.1
			C514.4,353.9,504.1,293.6,463.9,255.1L463.9,255.1z"/>
	</g>
</g>
<g id="_14-drop_1_" class="st0">
	<g id="gradient_1_" class="st1">
		
			<linearGradient id="SVGID_6_" gradientUnits="userSpaceOnUse" x1="696.9878" y1="127.0136" x2="984.6925" y2="414.7173" gradientTransform="matrix(1 0 0 -1 0 588)">
			<stop  offset="1.500000e-02" style="stop-color:#C6E6EF"/>
			<stop  offset="1" style="stop-color:#E3F2F7"/>
		</linearGradient>
		<path class="st12" d="M934.6,140.4c-42.1-59.1-83.5-100.8-85.3-102.5c-4.7-4.7-12.3-4.7-17,0c-1.7,1.7-43.2,43.4-85.3,102.5
			c-57.2,80.4-86.2,151-86.2,210c0,99.3,80.7,180,180,180s180-80.7,180-180C1020.8,291.5,991.8,220.8,934.6,140.4z"/>
		
			<linearGradient id="SVGID_7_" gradientUnits="userSpaceOnUse" x1="1019.7281" y1="351.2319" x2="1141.953" y2="473.4578" gradientTransform="matrix(1 0 0 -1 0 588)">
			<stop  offset="1.500000e-02" style="stop-color:#C6E6EF"/>
			<stop  offset="1" style="stop-color:#E3F2F7"/>
		</linearGradient>
		<path class="st13" d="M1089.3,61.9c-4.7-4.7-12.3-4.7-17,0c-2.8,2.8-67.5,68.2-67.5,128.5c0,42,34,76,76,76s76-34,76-76
			C1156.8,130.1,1092.1,64.7,1089.3,61.9z"/>
		
			<linearGradient id="SVGID_8_" gradientUnits="userSpaceOnUse" x1="751.0378" y1="147.7974" x2="930.6429" y2="327.4025" gradientTransform="matrix(1 0 0 -1 0 588)">
			<stop  offset="1.500000e-02" style="stop-color:#72C0D6"/>
			<stop  offset="1" style="stop-color:#C6E6EF"/>
		</linearGradient>
		<circle class="st14" cx="840.8" cy="350.4" r="127"/>
		
			<linearGradient id="SVGID_9_" gradientUnits="userSpaceOnUse" x1="732.4874" y1="144.717" x2="951.2354" y2="363.465" gradientTransform="matrix(1 0 0 -1 0 588)">
			<stop  offset="1.100000e-02" style="stop-color:#618564"/>
			<stop  offset="1" style="stop-color:#C0CEC1"/>
		</linearGradient>
		<path class="st15" d="M869.9,464.2v-38.6l15.4-30.7c0.6-1.1,0.8-2.4,0.6-3.7l-6.3-38c-0.4-2.2-1.9-4-4-4.7L839,336.3
			c-0.2-0.1-0.5-0.1-0.7-0.2l-27.5-5.5l-11.5-11h1.3c1.4,0,2.7-0.5,3.7-1.3l18.9-15.1l38.8-3.9c3-0.3,5.3-2.8,5.4-5.8l2.1-66.9
			c-67.2-15.6-134.6,25.4-151.8,92.2l21.8,13.6l15.3,22.9c0.4,0.6,1,1.2,1.6,1.6l41.7,28.3l-3.6,28.8c-0.2,1.3,0.1,2.6,0.7,3.7
			l15.4,26.9l-0.4,28.9c17.8,4.4,36.3,4.9,54.3,1.4l4.4-8.1C869.6,466.1,869.9,465.2,869.9,464.2L869.9,464.2z"/>
		
			<linearGradient id="SVGID_10_" gradientUnits="userSpaceOnUse" x1="781.9598" y1="95.2445" x2="1000.7078" y2="313.9925" gradientTransform="matrix(1 0 0 -1 0 588)">
			<stop  offset="1.100000e-02" style="stop-color:#618564"/>
			<stop  offset="1" style="stop-color:#C0CEC1"/>
		</linearGradient>
		<path class="st16" d="M928.8,258.9l-22.3,44.6c-0.6,1.2-0.8,2.6-0.5,3.9l8,40c0.3,1.3,1,2.5,2,3.4l17.3,14.6l21,42.1
			C979.3,357.7,969,297.4,928.8,258.9L928.8,258.9z"/>
	</g>
</g>
<g>
	<g>
		<g>
			<g>
				<path class="st17" d="M911.1,278.5c0,0-6.7-144.5,64.2-236.5c5.5-7.1-2.6-16.7-10.5-12.5c-37.6,19.9-97.7,77.6-112.9,244.6
					L911.1,278.5z"/>
			</g>
			<g>
				<path class="st17" d="M552.3,348.3c0,0,5.8-125.1-54.6-207.1c-5.4-7.3,3.1-16.8,11-12.2c33.5,19.7,83.3,72.7,96.4,215.4
					L552.3,348.3z"/>
			</g>
			<g>
				<path class="st18" d="M592.2,300.2c-0.1,0-0.3,0-0.4,0c-5.9-0.2-10.5-5.2-10.3-11.1c0-1.2,4.4-124.3-35.3-245.6
					c-1.8-5.6,1.2-11.6,6.8-13.5c5.6-1.8,11.6,1.2,13.5,6.8c40.9,125,36.5,247.9,36.3,253C602.7,295.7,597.9,300.2,592.2,300.2
					L592.2,300.2z"/>
				<g>
					<g>
						<g>
							<path class="st19" d="M591.1,222.7c-14.3,0-26.6-10.8-28.1-25.4c-3.9-38.3-10.5-75-19.5-108.9c-4-15.1,5-30.5,20.1-34.5
								c15.1-4,30.5,5,34.5,20.1c9.7,36.8,16.8,76.3,21.1,117.6c1.6,15.5-9.7,29.4-25.2,31C593,222.6,592.1,222.7,591.1,222.7z"/>
						</g>
					</g>
					<g>
						<g>
							<path class="st20" d="M594,222.5c-1,0.1-2,0.2-2.9,0.2c-2.5,0-4.8-0.3-7.1-0.9c6.1-5.8,9.5-14.3,8.6-23.3
								c-4.2-41.2-11.3-80.8-21.1-117.6c-2.7-10.2-10.6-17.6-20.1-20.1c3.3-3.2,7.5-5.6,12.3-6.9c15.1-4,30.5,5,34.5,20.1
								c9.7,36.8,16.8,76.3,21.1,117.6C620.8,207.1,609.5,220.9,594,222.5L594,222.5z"/>
						</g>
					</g>
				</g>
			</g>
			<g>
				<g>
					<path class="st17" d="M435,326.4c0,0-5.7-123,54.6-201.3c4.7-6.1-2.2-14.2-9-10.6c-32,16.9-83.1,66-96.1,208.2L435,326.4z"/>
				</g>
				<g>
					<path class="st21" d="M387.5,326.4c0,0,5.7-123-54.6-201.3c-4.7-6.1,2.2-14.2,9-10.6c32,16.9,83.1,66,96.1,208.2L387.5,326.4z"
						/>
				</g>
				<path class="st17" d="M353.9,346.9c0,0,4.9-106.5-46.4-176.3c-4.6-6.2,2.7-14.3,9.3-10.4c28.5,16.7,70.9,61.9,82,183.3
					L353.9,346.9z"/>
			</g>
			<g>
				<g>
					<path class="st21" d="M928.3,325.4c0,0-5.7-123,54.6-201.3c4.7-6.1-2.2-14.2-9-10.6c-32,16.9-83.1,66-96.1,208.2L928.3,325.4z"
						/>
				</g>
				<path class="st17" d="M961.9,345.8c0,0-4.9-106.5,46.4-176.3c4.6-6.2-2.7-14.3-9.3-10.4c-28.5,16.7-70.9,61.9-82,183.3
					L961.9,345.8z"/>
			</g>
			<g>
				<g>
					<path class="st21" d="M631.5,287c0,0-6.7-144.5,64.2-236.5c5.5-7.1-2.6-16.7-10.5-12.5c-37.6,19.9-97.7,77.6-112.9,244.6
						L631.5,287z"/>
				</g>
				<path class="st17" d="M671,311c0,0-5.8-125.1,54.6-207.1c5.4-7.3-3.1-16.8-11-12.2c-33.5,19.7-83.3,72.7-96.4,215.4L671,311z"/>
			</g>
			<g>
				<path class="st22" d="M1013.4,357.5c0-46-158.5-83.2-354.1-83.2s-354.1,37.3-354.1,83.2c0,25.4,48.3,48.1,124.6,63.4
					c25.9,5.2,50,17.3,68.6,36.1c31.8,32.1,116.5,55.1,216,55.1c126.7,0,229.5-37.3,229.5-83.2c0-0.1,0-0.1,0-0.2
					c-0.1-12.4,7.2-23.6,18.8-28.1C994.9,387.9,1013.4,373.2,1013.4,357.5L1013.4,357.5z"/>
				<g>
					<ellipse class="st23" cx="654.7" cy="450.9" rx="53.5" ry="13.5"/>
					<ellipse class="st23" cx="508.4" cy="370.4" rx="53.5" ry="13.5"/>
					<path class="st23" d="M1013.4,357.5c0,15.7-18.5,30.4-50.7,42.9c-11.6,4.5-18.9,15.7-18.8,28.1v0.2
						c0,43.3-91.1,78.8-207.5,82.8c84.6-14.9,143.4-48,143.4-86.4V425c-0.1-14.2,7.7-26.9,20-32.1c34.3-14.3,54.1-31,54.1-48.9
						c0-16.7-17.1-32.4-47.3-46C972.5,313.1,1013.4,334.2,1013.4,357.5z"/>
				</g>
			</g>
			<g>
				<path class="st18" d="M508.2,372.1c-0.1,0-0.3,0-0.4,0c-5.9-0.2-10.5-5.2-10.3-11.1c0.1-1.4,5-141.2-40.1-278.9
					c-1.8-5.6,1.2-11.6,6.8-13.5c5.6-1.8,11.6,1.2,13.5,6.8c46.3,141.5,41.3,280.5,41.1,286.4C518.7,367.5,513.9,372.1,508.2,372.1
					L508.2,372.1z"/>
				<g>
					<g>
						<g>
							<path class="st24" d="M498.3,239.8c-12.6,0-23.5-9.6-24.8-22.4c-3.5-33.8-9.3-66.2-17.2-96.1c-3.5-13.3,4.4-27,17.7-30.5
								c13.3-3.5,27,4.4,30.5,17.7c8.6,32.5,14.9,67.4,18.6,103.8c1.4,13.7-8.6,25.9-22.3,27.4C500,239.8,499.1,239.8,498.3,239.8
								L498.3,239.8z"/>
						</g>
					</g>
					<g>
						<g>
							<path class="st25" d="M500.8,239.7c-0.9,0.1-1.7,0.1-2.6,0.1c-3.4,0-6.6-0.7-9.6-1.9c5.8-5.1,9.1-12.9,8.2-21.2
								c-3.7-36.4-10-71.3-18.6-103.8c-2.1-7.8-7.6-13.7-14.5-16.6c2.8-2.5,6.3-4.4,10.2-5.5c13.3-3.5,27,4.4,30.5,17.7
								c8.6,32.5,14.9,67.4,18.6,103.8C524.5,226,514.5,238.3,500.8,239.7L500.8,239.7z"/>
						</g>
					</g>
				</g>
			</g>
			<g>
				<g>
					<path class="st18" d="M655.1,453.5c-0.3,0-0.5,0-0.8,0c-5.9-0.4-10.3-5.6-9.9-11.5c3.2-43.5,15.8-156.7,62.2-268.7
						c2.3-5.5,8.5-8,14-5.8c5.5,2.3,8,8.5,5.8,14c-45.3,109.1-57.5,219.7-60.7,262.1C665.3,449.3,660.6,453.5,655.1,453.5
						L655.1,453.5z"/>
					<g>
						<g>
							<g>
								<path class="st24" d="M673.5,335.7c12.6,1,24.1-7.7,26.4-20.4c6.1-33.5,14.3-65.3,24.6-94.5c4.5-13-2.3-27.2-15.3-31.8
									c-13-4.5-27.2,2.3-31.8,15.3c-11.1,31.7-20,66-26.6,102.1c-2.5,13.5,6.5,26.5,20.1,29C671.8,335.5,672.7,335.6,673.5,335.7
									L673.5,335.7z"/>
							</g>
						</g>
						<g>
							<g>
								<path class="st25" d="M724.5,220.7C714.3,250,706,281.8,700,315.3c-2.3,12.7-13.8,21.4-26.4,20.4c-0.9-0.1-1.7-0.2-2.6-0.3
									c-5.3-1-9.9-3.5-13.4-7.1c8.7-2.6,15.6-9.9,17.4-19.4c6.1-33.5,14.3-65.3,24.5-94.5c3.2-9.3,0.7-19.1-5.7-25.7
									c4.9-1.5,10.2-1.5,15.4,0.4C722.2,193.5,729.1,207.8,724.5,220.7L724.5,220.7z"/>
							</g>
						</g>
					</g>
				</g>
			</g>
			<g>
				<ellipse class="st23" cx="770" cy="344.9" rx="53.5" ry="13.5"/>
				<g>
					<path class="st18" d="M770.1,351.7c-5.7,0-10.4-4.5-10.7-10.2c-0.1-1.5-1.5-38.3,7.9-90.9c8.7-48.5,28.6-120.1,74.6-185.6
						c3.4-4.8,10.1-6,14.9-2.6c4.8,3.4,6,10.1,2.6,14.9c-83.6,119.2-78.7,261.9-78.6,263.3c0.2,5.9-4.3,10.9-10.2,11.1
						C770.4,351.6,770.2,351.7,770.1,351.7z"/>
					<g>
						<g>
							<path class="st19" d="M788.4,230.7c-2.2,0-4.4-0.3-6.7-0.9c-13.3-3.7-21.1-17.4-17.4-30.7c11.4-41.2,27.4-79.5,47.6-113.9
								c7-11.9,22.3-15.9,34.1-8.9c11.9,7,15.8,22.3,8.9,34.1c-18,30.7-32.3,65-42.5,102C809.4,223.5,799.3,230.7,788.4,230.7
								L788.4,230.7z"/>
						</g>
					</g>
					<g>
						<g>
							<path class="st20" d="M855,110.4c-18,30.7-32.3,65-42.5,102c-3,11-13.1,18.3-24,18.3c-2.2,0-4.4-0.3-6.7-0.9
								c-5.3-1.5-9.7-4.6-12.9-8.6c8.4-2.1,15.5-8.6,17.9-17.5c10.2-37,24.5-71.3,42.5-102c5.4-9.1,4.2-20.2-1.9-28.1
								c6.1-1.6,12.9-0.8,18.7,2.7C858,83.3,861.9,98.6,855,110.4L855,110.4z"/>
						</g>
					</g>
				</g>
			</g>
			<g>
				<ellipse class="st23" cx="881.2" cy="415.9" rx="53.5" ry="13.5"/>
				<g>
					<path class="st18" d="M883.4,425.3c-5.5,0-10.2-4.3-10.6-9.9c-3.2-42.5-15.4-153-60.7-262.1c-2.3-5.5,0.3-11.7,5.8-14
						c5.5-2.3,11.7,0.3,14,5.8c46.4,112,59,225.2,62.2,268.7c0.4,5.9-4,11-9.9,11.5C884,425.3,883.7,425.3,883.4,425.3L883.4,425.3z
						"/>
					<g>
						<g>
							<g>
								<path class="st24" d="M865,307.5c-12.6,1-24.1-7.7-26.4-20.4c-6.1-33.5-14.3-65.3-24.6-94.5c-4.5-13,2.3-27.2,15.3-31.8
									c13-4.5,27.2,2.3,31.8,15.3c11.1,31.7,20,66,26.6,102.1c2.5,13.5-6.5,26.5-20.1,29C866.7,307.3,865.8,307.4,865,307.5z"/>
							</g>
						</g>
						<g>
							<g>
								<path class="st25" d="M867.5,307.1c-0.9,0.2-1.7,0.3-2.6,0.3c-2.7,0.2-5.4,0-8-0.7c6.3-5.6,9.7-14.2,8-23.2
									c-6.5-36-15.5-70.4-26.5-102.1c-2.9-8.2-9.6-14-17.5-16c2.4-2.1,5.1-3.7,8.3-4.8c13-4.5,27.2,2.3,31.8,15.3
									c11.1,31.7,20,66,26.5,102C890.1,291.7,881.1,304.7,867.5,307.1L867.5,307.1z"/>
							</g>
						</g>
					</g>
				</g>
			</g>
		</g>
	</g>
	<g>
		<g>
			<path class="st26" d="M547.1,512h-72.3c-8.2,0-14.8-6.6-14.8-14.8v-84.9c0-28.1,22.8-50.9,50.9-50.9c28.1,0,50.9,22.8,50.9,50.9
				v84.9C561.9,505.4,555.3,512,547.1,512L547.1,512z"/>
			<path class="st27" d="M561.9,412.3v84.9c0,8.2-6.6,14.8-14.8,14.8h-31.9c8.2,0,14.8-6.6,14.8-14.8v-84.9c0-14.1-5.7-26.8-14.9-36
				c-5.6-5.6-12.4-9.9-20.1-12.4c5-1.7,10.4-2.6,15.9-2.6c14.1,0,26.8,5.7,36,14.9C556.2,385.5,561.9,398.2,561.9,412.3L561.9,412.3
				z"/>
		</g>
		<g>
			<path class="st28" d="M494.5,465.5v31.7c0,8.2-6.6,14.8-14.8,14.8h-72.3c-8.2,0-14.8-6.6-14.8-14.8v-31.7
				c0-28.1,22.8-50.9,50.9-50.9c14.1,0,26.8,5.7,36,14.9C488.8,438.7,494.5,451.5,494.5,465.5z"/>
			<g>
				<path class="st29" d="M494.5,465.5v31.7c0,8.2-6.6,14.8-14.8,14.8h-30.7c8.2,0,14.8-6.6,14.8-14.8v-31.7
					c0-14.1-5.7-26.8-14.9-36c-5.7-5.7-12.8-10.1-20.7-12.6c4.8-1.5,10-2.4,15.3-2.4c14.1,0,26.8,5.7,36,14.9
					C488.8,438.7,494.5,451.5,494.5,465.5L494.5,465.5z"/>
				<path class="st29" d="M494.5,465.5v31.7c0,8.2-6.6,14.8-14.8,14.8h-9.7v-48.7c0-4.9-3.3-9-7.8-10.3c-2.3-9-7-17.1-13.4-23.5
					c-5.7-5.7-12.8-10.1-20.7-12.6c4.8-1.5,10-2.4,15.3-2.4c14.1,0,26.8,5.7,36,14.9C488.8,438.7,494.5,451.5,494.5,465.5
					L494.5,465.5z"/>
			</g>
		</g>
		<g>
			<g>
				<path class="st28" d="M511.2,430.1c-5.9,0-10.7-4.8-10.7-10.7v-10.5c0-5.9,4.8-10.7,10.7-10.7s10.7,4.8,10.7,10.7v10.5
					C521.9,425.3,517.1,430.1,511.2,430.1z"/>
			</g>
		</g>
		<path class="st27" d="M474.4,463.3V512H453v-48.7c0-5.9,4.8-10.7,10.7-10.7C469.6,452.6,474.4,457.4,474.4,463.3z"/>
		<path class="st26" d="M426.8,485.6c-5.9,0-10.7-4.8-10.7-10.7v-11.6c0-5.9,4.8-10.7,10.7-10.7s10.7,4.8,10.7,10.7v11.6
			C437.5,480.8,432.7,485.6,426.8,485.6z"/>
	</g>
	<path class="st30" d="M444.3,346.4h-12.6c-5.9,0-10.7-4.8-10.7-10.7s4.8-10.7,10.7-10.7h12.6c5.9,0,10.7,4.8,10.7,10.7
		C455,341.7,450.2,346.4,444.3,346.4z"/>
	<path class="st23" d="M598.7,394.6h-12.6c-5.9,0-10.7-4.8-10.7-10.7s4.8-10.7,10.7-10.7h12.6c5.9,0,10.7,4.8,10.7,10.7
		S604.6,394.6,598.7,394.6z"/>
	<path class="st23" d="M738.9,474.7h-12.6c-5.9,0-10.7-4.8-10.7-10.7c0-5.9,4.8-10.7,10.7-10.7h12.6c5.9,0,10.7,4.8,10.7,10.7
		C749.5,469.9,744.8,474.7,738.9,474.7z"/>
	<path class="st31" d="M405.1,372.1h-12.6c-5.9,0-10.7-4.8-10.7-10.7s4.8-10.7,10.7-10.7h12.6c5.9,0,10.7,4.8,10.7,10.7
		S411,372.1,405.1,372.1z"/>
	<path class="st30" d="M769.7,403.9h-12.6c-5.9,0-10.7-4.8-10.7-10.7c0-5.9,4.8-10.7,10.7-10.7h12.6c5.9,0,10.7,4.8,10.7,10.7
		C780.4,399.1,775.6,403.9,769.7,403.9z"/>
	<path class="st31" d="M605,351.7h-34.2c-5.9,0-10.7-4.8-10.7-10.7c0-5.9,4.8-10.7,10.7-10.7H605c5.9,0,10.7,4.8,10.7,10.7
		C615.6,346.9,610.9,351.7,605,351.7z"/>
	<path class="st23" d="M819.9,453.5h-33.9c-5.9,0-10.7-4.8-10.7-10.7c0-5.9,4.8-10.7,10.7-10.7h33.9c5.9,0,10.7,4.8,10.7,10.7
		C830.5,448.8,825.8,453.5,819.9,453.5z"/>
</g>
</svg>
