<?xml version="1.0" encoding="utf-8"?>
<!-- Generator: Adobe Illustrator 24.2.3, SVG Export Plug-In . SVG Version: 6.00 Build 0)  -->
<svg version="1.1" id="Слой_1" xmlns="http://www.w3.org/2000/svg" xmlns:xlink="http://www.w3.org/1999/xlink" x="0px" y="0px"
	 viewBox="0 0 200 254" style="enable-background:new 0 0 200 254;" xml:space="preserve">
<style type="text/css">
	.st0{fill:#024788;}
	.st1{fill:#E1EAF9;}
	.st2{fill:#C5DEF8;}
	.st3{fill:#8ADAF9;}
	.st4{fill:#2EBCF6;}
</style>
<g>
	<g>
		<circle class="st0" cx="100" cy="127" r="100"/>
	</g>
	<g>
		<path class="st1" d="M100,63.7c1.8,0,3.4,0.1,5.1,0.1V48.2c-1.6-0.1-3.4-0.1-5.1-0.1c-43.6,0-79,35.4-79,79
			c0,26.6,13.3,50.1,33.4,64.5c4,2.8,9.9,1.2,11.8-3.4c1.3-3.4,0.3-7.3-2.7-9.4c-16.3-11.5-26.9-30.3-26.9-51.6
			C36.7,92.1,65.1,63.7,100,63.7z"/>
	</g>
	<g>
		<path class="st2" d="M100,48c-21,0-40.1,8.2-54.3,21.8c3.1-1.8,7.2-1.5,9.7,1.2c2.7,2.7,3.1,7,0.9,10.1
			C67.6,70.3,83,63.7,99.9,63.7c1.8,0,3.4,0.1,5.1,0.1V48.2C103.4,48.2,101.8,48,100,48z"/>
	</g>
	<g>
		<g>
			<path class="st1" d="M133.7,66c-1.3,3.4-0.3,7.3,2.7,9.4c16.3,11.5,26.9,30.3,26.9,51.6c0,34.9-28.4,63.3-63.3,63.3
				c-1.8,0-3.4-0.1-5.1-0.1v15.7c1.6,0.1,3.4,0.1,5.1,0.1c43.6,0,79-35.4,79-79c0-26.6-13.3-50.1-33.4-64.5
				C141.3,59.7,135.7,61.3,133.7,66L133.7,66z"/>
		</g>
	</g>
	<g>
		<path class="st2" d="M144.6,183c-2.7-2.7-3.1-7-0.9-10.1c-11.3,10.9-26.7,17.5-43.6,17.5c-1.8,0-3.4-0.1-5.1-0.1v15.7
			c1.6,0.1,3.4,0.1,5.1,0.1c21,0,40.1-8.2,54.3-21.8C151.3,186,147.3,185.5,144.6,183L144.6,183z"/>
	</g>
	<g>
		<path class="st1" d="M103.1,72.4c-0.1,1.9,2.1,3,3.6,1.6l15.4-13.9c1.8-1.6,1.9-4.3,0.3-6l-13.9-15.4c-1.3-1.3-3.6-0.6-3.7,1.3
			L103.1,72.4z"/>
	</g>
	<g>
		<path class="st1" d="M96.9,181.6c0.1-1.9-2.1-3-3.6-1.6l-15.4,13.9c-1.8,1.6-1.9,4.3-0.3,6l13.9,15.4c1.3,1.3,3.6,0.6,3.7-1.3
			L96.9,181.6z"/>
	</g>
	<g>
		<path class="st3" d="M105.7,94.2c-3.1-3.1-8.2-3.1-11.3,0c-8.1,7.9-21.8,24-21.8,42.7c0,14,12.2,25.4,27.5,25.4
			s27.5-11.3,27.5-25.4C127.5,118.3,113.7,102.1,105.7,94.2z"/>
	</g>
	<g>
		<path class="st4" d="M91,136.9c0-16,10.1-30.3,18.2-39c-1.2-1.3-2.4-2.5-3.6-3.7c-3.1-3.1-8.2-3.1-11.3,0
			c-8.1,7.9-21.8,24-21.8,42.7c0,14,12.2,25.4,27.5,25.4c3.3,0,6.4-0.6,9.3-1.5C98.7,157.1,91,147.7,91,136.9L91,136.9z"/>
	</g>
</g>
</svg>
