<?xml version="1.0" encoding="utf-8"?>
<!-- Generator: Adobe Illustrator 24.2.3, SVG Export Plug-In . SVG Version: 6.00 Build 0)  -->
<svg version="1.1" id="Слой_1" xmlns="http://www.w3.org/2000/svg" xmlns:xlink="http://www.w3.org/1999/xlink" x="0px" y="0px"
	 viewBox="0 0 200 254" style="enable-background:new 0 0 200 254;" xml:space="preserve">
<style type="text/css">
	.st0{fill:#024788;}
	.st1{fill:#E1EAF9;}
	.st2{fill:#C5DEF8;}
	.st3{fill:#8ADAF9;}
	.st4{fill:#2EBCF6;}
</style>
<g>
	<g>
		<circle class="st0" cx="100" cy="127" r="100"/>
	</g>
	<g>
		<path class="st1" d="M100,63.7c1.7,0,3.4,0.1,5.1,0.2V48.3c-1.7-0.1-3.4-0.2-5.1-0.2c-43.5,0-78.9,35.4-78.9,78.9
			c0,26.6,13.3,50.2,33.5,64.5c4.1,2.9,9.8,1.3,11.8-3.4c1.4-3.4,0.3-7.3-2.7-9.4c-16.3-11.4-26.8-30.4-26.8-51.7
			C36.7,92.1,65.1,63.7,100,63.7z"/>
	</g>
	<g>
		<path class="st2" d="M100,48.1c-21.1,0-40.2,8.2-54.3,21.7c3.1-1.8,7.1-1.4,9.7,1.2c2.8,2.8,3.1,7.1,1,10.2
			C67.7,70.3,83.1,63.6,100,63.6c1.7,0,3.4,0.1,5.1,0.2V48.3C103.4,48.2,101.7,48.1,100,48.1z"/>
	</g>
	<g>
		<g>
			<path class="st1" d="M133.8,65.9c-1.4,3.4-0.3,7.3,2.7,9.4c16.3,11.4,26.8,30.4,26.8,51.7c0,34.9-28.3,63.3-63.3,63.3
				c-1.7,0-3.4-0.1-5.1-0.2v15.7c1.7,0.1,3.4,0.2,5.1,0.2c43.5,0,78.9-35.4,78.9-78.9c0-26.6-13.3-50.2-33.5-64.5
				C141.4,59.6,135.7,61.3,133.8,65.9L133.8,65.9z"/>
		</g>
	</g>
	<g>
		<path class="st2" d="M144.6,182.9c-2.8-2.8-3.1-7.1-1-10.2c-11.3,10.8-26.7,17.5-43.6,17.5c-1.7,0-3.4-0.1-5.1-0.2v15.7
			c1.7,0.1,3.4,0.2,5.1,0.2c21.1,0,40.2-8.2,54.3-21.7C151.2,185.9,147.3,185.6,144.6,182.9L144.6,182.9z"/>
	</g>
	<g>
		<path class="st1" d="M103.1,72.3c-0.1,1.9,2.1,3,3.5,1.7L122,60.3c1.7-1.6,1.9-4.3,0.3-6.1l-13.8-15.4c-1.3-1.4-3.6-0.5-3.7,1.3
			L103.1,72.3z"/>
	</g>
	<g>
		<path class="st1" d="M96.9,181.7c0.1-1.9-2.1-3-3.5-1.7L78,193.7c-1.7,1.6-1.9,4.3-0.3,6.1l13.8,15.4c1.3,1.4,3.6,0.5,3.7-1.3
			L96.9,181.7z"/>
	</g>
	<g>
		<path class="st3" d="M105.7,94.2c-3.1-3.1-8.2-3.1-11.3,0c-8,7.9-21.7,24.1-21.7,42.7c0,14,12.3,25.3,27.4,25.3
			s27.4-11.3,27.4-25.3C127.4,118.2,113.7,102.1,105.7,94.2z"/>
	</g>
	<g>
		<path class="st4" d="M91,136.8c0-16,10.3-30.3,18.2-38.9c-1.3-1.4-2.5-2.6-3.5-3.6c-3.1-3.1-8.2-3.1-11.3,0
			c-8,7.9-21.7,24.1-21.7,42.7c0,14,12.3,25.3,27.4,25.3c3.2,0,6.3-0.5,9.2-1.5C98.6,157.2,91,147.9,91,136.8L91,136.8z"/>
	</g>
</g>
</svg>
