<?xml version="1.0" encoding="utf-8"?>
<!-- Generator: Adobe Illustrator 24.2.3, SVG Export Plug-In . SVG Version: 6.00 Build 0)  -->
<svg version="1.1" id="Слой_1" xmlns="http://www.w3.org/2000/svg" xmlns:xlink="http://www.w3.org/1999/xlink" x="0px" y="0px"
	 viewBox="0 0 200 254" style="enable-background:new 0 0 200 254;" xml:space="preserve">
<style type="text/css">
	.st0{fill:#024788;}
	.st1{fill:#E1EAF9;}
	.st2{fill:#C5DEF8;}
	.st3{fill:#8ADAF9;}
	.st4{fill:#2EBCF6;}
</style>
<g>
	<g>
		<circle class="st0" cx="100" cy="128" r="100"/>
	</g>
	<g>
		<path class="st1" d="M100,64.7c1.7,0,3.4,0.1,5.1,0.2V49.2c-1.6-0.1-3.4-0.2-5.1-0.2c-43.5,0-78.9,35.4-78.9,78.9
			c0,26.6,13.2,50.2,33.4,64.4c4.1,2.9,9.8,1.2,11.7-3.4c1.4-3.4,0.3-7.3-2.7-9.3c-16.2-11.5-26.9-30.4-26.9-51.7
			C36.7,93.1,65.1,64.7,100,64.7z"/>
	</g>
	<g>
		<path class="st2" d="M100,49.1c-21,0-40.2,8.3-54.4,21.7c3.1-1.8,7.1-1.4,9.7,1.2c2.8,2.8,3.1,7.1,0.9,10.2
			C67.7,71.4,83.1,64.7,100,64.7c1.7,0,3.4,0.1,5.1,0.2V49.2C103.4,49.1,101.7,49.1,100,49.1z"/>
	</g>
	<g>
		<g>
			<path class="st1" d="M133.7,67c-1.4,3.4-0.3,7.3,2.7,9.3c16.2,11.5,26.9,30.4,26.9,51.7c0,34.9-28.4,63.3-63.3,63.3
				c-1.7,0-3.4-0.1-5.1-0.2v15.7c1.6,0.1,3.4,0.2,5.1,0.2c43.5,0,78.9-35.4,78.9-78.9c0-26.6-13.2-50.2-33.4-64.4
				C141.4,60.6,135.7,62.3,133.7,67L133.7,67z"/>
		</g>
	</g>
	<g>
		<path class="st2" d="M144.6,183.9c-2.8-2.8-3.1-7.1-0.9-10.2c-11.4,10.9-26.8,17.5-43.7,17.5c-1.7,0-3.4-0.1-5.1-0.2v15.7
			c1.6,0.1,3.4,0.2,5.1,0.2c21,0,40.2-8.3,54.4-21.7C151.3,187,147.3,186.6,144.6,183.9L144.6,183.9z"/>
	</g>
	<g>
		<path class="st1" d="M103.1,73.3c-0.1,1.9,2.2,3,3.6,1.7l15.4-13.8c1.7-1.5,1.9-4.3,0.3-6.1l-13.8-15.4c-1.2-1.4-3.6-0.6-3.7,1.3
			L103.1,73.3z"/>
	</g>
	<g>
		<path class="st1" d="M96.9,182.7c0.1-1.9-2.2-3-3.6-1.7l-15.4,13.8c-1.7,1.5-1.9,4.3-0.3,6.1l13.8,15.4c1.2,1.4,3.6,0.6,3.7-1.3
			L96.9,182.7z"/>
	</g>
	<g>
		<path class="st3" d="M105.6,95.2c-3.2-3.1-8.2-3.1-11.4,0c-8,7.9-21.7,24.1-21.7,42.7c0,13.9,12.3,25.3,27.4,25.3
			s27.4-11.4,27.4-25.3C127.4,119.3,113.7,103.1,105.6,95.2z"/>
	</g>
	<g>
		<path class="st4" d="M91.1,137.8c0-16,10.3-30.3,18.2-39c-1.2-1.3-2.5-2.6-3.6-3.7c-3.2-3.1-8.2-3.1-11.4,0
			c-8,7.9-21.7,24.1-21.7,42.7c0,13.9,12.3,25.3,27.4,25.3c3.3,0,6.4-0.5,9.2-1.4C98.7,158.2,91.1,148.8,91.1,137.8L91.1,137.8z"/>
	</g>
</g>
</svg>
