<?xml version="1.0" encoding="utf-8"?>
<!-- Generator: Adobe Illustrator 24.2.3, SVG Export Plug-In . SVG Version: 6.00 Build 0)  -->
<svg version="1.1" id="Слой_1" xmlns="http://www.w3.org/2000/svg" xmlns:xlink="http://www.w3.org/1999/xlink" x="0px" y="0px"
	 viewBox="0 0 200 254" style="enable-background:new 0 0 200 254;" xml:space="preserve">
<style type="text/css">
	.st0{fill:#024788;}
	.st1{fill:#E1EAF9;}
	.st2{fill:#C5DEF8;}
	.st3{fill:#8ADAF9;}
	.st4{fill:#2EBCF6;}
</style>
<image style="display:none;overflow:visible;" width="200" height="254" xlink:href="logo.svg" >
</image>
<g>
	<g>
		<circle class="st0" cx="100" cy="131" r="100"/>
	</g>
	<g>
		<path class="st1" d="M100,67.7c1.7,0,3.4,0.1,5.1,0.2V52.3c-1.7-0.1-3.4-0.2-5.1-0.2c-43.5,0-78.9,35.4-78.9,78.9
			c0,26.6,13.2,50.1,33.4,64.4c4.1,2.9,9.8,1.2,11.7-3.4c1.4-3.4,0.3-7.3-2.7-9.4c-16.2-11.5-26.8-30.4-26.8-51.7
			C36.7,96.1,65.1,67.7,100,67.7z"/>
	</g>
	<g>
		<path class="st2" d="M100,52.1c-21,0-40.2,8.3-54.4,21.8c3.1-1.8,7.1-1.4,9.7,1.2c2.8,2.8,3.1,7,1,10.1
			C67.7,74.4,83.1,67.7,100,67.7c1.7,0,3.4,0.1,5.1,0.2V52.3C103.4,52.1,101.7,52.1,100,52.1z"/>
	</g>
	<g>
		<g>
			<path class="st1" d="M133.8,69.9c-1.4,3.4-0.3,7.3,2.7,9.4c16.2,11.5,26.8,30.4,26.8,51.7c0,34.9-28.4,63.3-63.3,63.3
				c-1.7,0-3.4-0.1-5.1-0.2v15.7c1.7,0.1,3.4,0.2,5.1,0.2c43.5,0,78.9-35.4,78.9-78.9c0-26.6-13.2-50.1-33.4-64.4
				C141.4,63.7,135.7,65.3,133.8,69.9L133.8,69.9z"/>
		</g>
	</g>
	<g>
		<path class="st2" d="M144.6,186.9c-2.8-2.8-3.1-7-1-10.1c-11.4,10.8-26.7,17.5-43.6,17.5c-1.7,0-3.4-0.1-5.1-0.2v15.7
			c1.7,0.1,3.4,0.2,5.1,0.2c21,0,40.2-8.3,54.4-21.8C151.3,190,147.3,189.6,144.6,186.9L144.6,186.9z"/>
	</g>
	<g>
		<path class="st1" d="M103.1,76.4c-0.1,1.9,2.2,3,3.6,1.7L122,64.2c1.8-1.6,1.9-4.3,0.3-6l-13.8-15.4c-1.3-1.4-3.6-0.6-3.7,1.3
			L103.1,76.4z"/>
	</g>
	<g>
		<path class="st1" d="M96.9,185.6c0.1-1.9-2.2-3-3.6-1.7L78,197.8c-1.8,1.6-1.9,4.3-0.3,6l13.8,15.4c1.3,1.4,3.6,0.6,3.7-1.3
			L96.9,185.6z"/>
	</g>
	<g>
		<path class="st3" d="M105.7,98.2c-3.2-3.1-8.2-3.1-11.4,0c-8,7.9-21.7,24.1-21.7,42.7c0,14,12.3,25.3,27.4,25.3
			s27.4-11.3,27.4-25.3C127.4,122.3,113.7,106.1,105.7,98.2z"/>
	</g>
	<g>
		<path class="st4" d="M91.1,140.8c0-16,10.2-30.3,18.2-39c-1.3-1.4-2.5-2.6-3.6-3.7c-3.2-3.1-8.2-3.1-11.4,0
			c-8,7.9-21.7,24.1-21.7,42.7c0,14,12.3,25.3,27.4,25.3c3.2,0,6.4-0.5,9.2-1.5C98.6,161.2,91.1,151.8,91.1,140.8L91.1,140.8z"/>
	</g>
</g>
</svg>
