<?xml version="1.0" encoding="utf-8"?>
<!-- Generator: Adobe Illustrator 24.2.3, SVG Export Plug-In . SVG Version: 6.00 Build 0)  -->
<svg version="1.1" id="Слой_1" xmlns="http://www.w3.org/2000/svg" xmlns:xlink="http://www.w3.org/1999/xlink" x="0px" y="0px"
	 viewBox="0 0 730 78" style="enable-background:new 0 0 730 78;" xml:space="preserve">
<style type="text/css">
	.st0{fill:#024788;}
	.st1{fill:#E1EAF9;}
	.st2{fill:#C5DEF8;}
	.st3{fill:#8ADAF9;}
	.st4{fill:#2EBCF6;}
	.st5{fill:#B8D6FB;}
</style>
<g>
	<g>
		<circle class="st0" cx="42.7" cy="39.3" r="38.7"/>
	</g>
	<g>
		<path class="st1" d="M42.7,14.8c0.7,0,1.3,0,2,0.1v-6c-0.7,0-1.3-0.1-2-0.1c-16.8,0-30.5,13.7-30.5,30.5
			c0,10.3,5.1,19.4,12.9,24.9c1.6,1.1,3.8,0.5,4.5-1.3c0.5-1.3,0.1-2.8-1-3.6c-6.3-4.4-10.4-11.7-10.4-20
			C18.2,25.8,29.2,14.8,42.7,14.8z"/>
	</g>
	<g>
		<path class="st2" d="M42.7,8.8c-8.1,0-15.5,3.2-21,8.4c1.2-0.7,2.7-0.5,3.8,0.5c1.1,1.1,1.2,2.7,0.4,3.9
			c4.4-4.2,10.3-6.8,16.9-6.8c0.7,0,1.3,0,2,0.1v-6C44,8.8,43.3,8.8,42.7,8.8z"/>
	</g>
	<g>
		<g>
			<path class="st1" d="M55.7,15.7c-0.5,1.3-0.1,2.8,1,3.6c6.3,4.4,10.4,11.7,10.4,20c0,13.5-11,24.5-24.5,24.5c-0.7,0-1.3,0-2-0.1
				v6.1c0.7,0,1.3,0.1,2,0.1c16.8,0,30.5-13.7,30.5-30.5c0-10.3-5.1-19.4-12.9-24.9C58.7,13.3,56.5,13.9,55.7,15.7L55.7,15.7z"/>
		</g>
	</g>
	<g>
		<path class="st2" d="M59.9,61c-1.1-1.1-1.2-2.7-0.4-3.9c-4.4,4.2-10.3,6.8-16.9,6.8c-0.7,0-1.3,0-2-0.1v6.1c0.7,0,1.3,0.1,2,0.1
			c8.1,0,15.5-3.2,21-8.4C62.5,62.1,61,62,59.9,61L59.9,61z"/>
	</g>
	<g>
		<path class="st1" d="M43.9,18.2c0,0.7,0.8,1.2,1.4,0.7l5.9-5.4c0.7-0.6,0.7-1.7,0.1-2.3l-5.3-6c-0.5-0.5-1.4-0.2-1.4,0.5
			L43.9,18.2z"/>
	</g>
	<g>
		<path class="st1" d="M41.5,60.5c0-0.7-0.8-1.2-1.4-0.7l-5.9,5.4c-0.7,0.6-0.7,1.7-0.1,2.3l5.4,5.9c0.5,0.5,1.4,0.2,1.4-0.5
			L41.5,60.5z"/>
	</g>
	<g>
		<path class="st3" d="M44.9,26.6c-1.2-1.2-3.2-1.2-4.4,0c-3.1,3.1-8.4,9.3-8.4,16.5c0,5.4,4.7,9.8,10.6,9.8s10.6-4.4,10.6-9.8
			C53.3,35.9,48,29.7,44.9,26.6z"/>
	</g>
	<g>
		<path class="st4" d="M39.2,43.1c0-6.2,4-11.7,7-15.1c-0.5-0.5-1-1-1.4-1.4c-1.2-1.2-3.2-1.2-4.4,0c-3.1,3.1-8.4,9.3-8.4,16.5
			c0,5.4,4.7,9.8,10.6,9.8c1.3,0,2.5-0.2,3.6-0.6C42.2,51,39.2,47.4,39.2,43.1L39.2,43.1z"/>
	</g>
</g>
<g>
	<g>
		<path class="st5" d="M85.5,8.4H103l3.6,28.3c0.7,6.8,1.5,13.6,2.2,20.3h0.4c1.2-6.8,2.4-13.7,3.6-20.3L119,8.4h14.4l6.2,28.3
			c1.2,6.5,2.4,13.5,3.6,20.3h0.4c0.7-6.9,1.5-13.8,2.2-20.3l3.6-28.3h16.3l-10.8,64.8h-21.7l-5-25.7c-1-5-1.8-10.4-2.4-15.2h-0.4
			c-0.7,4.8-1.4,10.2-2.4,15.2l-4.8,25.7H96.9L85.5,8.4z"/>
		<path class="st5" d="M170.4,59.1c0-10.4,8-16.1,27.1-18.1c-0.4-3.6-2.6-5.2-7-5.2c-3.6,0-7.4,1.4-12.6,4.2l-6-11.2
			c7-4.2,14.2-6.6,21.9-6.6c13,0,20.7,7,20.7,23.3v27.7h-14l-1.2-4.8h-0.4c-4,3.6-8.4,6-13.8,6C176,74.4,170.4,67.3,170.4,59.1z
			 M197.5,57.9v-6.8c-8.2,1.2-10.8,3.8-10.8,6.6c0,2.3,1.6,3.6,4.6,3.6C194.2,61.3,195.8,59.9,197.5,57.9z"/>
		<path class="st5" d="M228.1,54.1V36.8h-6.6V24l7.6-0.6l2-13h14.2v13h11.4v13.4h-11.4v17c0,5.5,2.8,7.3,6,7.3
			c1.6,0,3.2-0.4,4.4-0.8l2.6,12.4c-2.6,0.8-6.3,1.8-11.8,1.8C233.4,74.4,228.1,66.3,228.1,54.1z"/>
		<path class="st5" d="M263.1,48.3c0-16.1,11.8-26.1,23.9-26.1c14.8,0,21.7,10.8,21.7,24.1c0,3-0.4,6-0.7,7.2h-28.4
			c1.6,6,6,8,11.6,8c3.4,0,6.6-1,10.2-3l5.6,10.2c-5.4,3.8-12.6,5.8-18.1,5.8C274.3,74.4,263.1,64.9,263.1,48.3z M294.2,42.3
			c0-3.8-1.6-7.2-6.8-7.2c-3.8,0-7,2.2-8,7.2H294.2z"/>
		<path class="st5" d="M318.2,23.4h14l1.2,8.6h0.4c3.7-6.8,9.3-9.8,14.2-9.8c3.1,0,4.8,0.4,6.2,1L351.3,38c-1.8-0.4-3.4-0.8-5.6-0.8
			c-3.6,0-8,2.2-10.4,8.4v27.7h-17.1L318.2,23.4L318.2,23.4z"/>
		<path class="st5" d="M381.2,8.4h42.3v14.4h-25.1v12.4h21.5v14.4h-21.5v23.7h-17.1L381.2,8.4L381.2,8.4z"/>
		<path class="st5" d="M432.2,8.6c0-5,4-8.6,9.6-8.6s9.6,3.6,9.6,8.6s-4,8.6-9.6,8.6S432.2,13.6,432.2,8.6z M433.2,23.4h17.1v49.8
			h-17.1V23.4z"/>
		<path class="st5" d="M461.9,23.4h14l1.2,6h0.4c4-3.8,9-7.2,15.8-7.2c11,0,15.6,8,15.6,20.3v30.7h-17.1V44.7c0-6.4-1.6-8-5-8
			c-3.2,0-5,1.4-7.6,3.8v32.7h-17.1V23.4H461.9z"/>
		<path class="st5" d="M518,59.1c0-10.4,8-16.1,27.1-18.1c-0.4-3.6-2.6-5.2-7-5.2c-3.6,0-7.4,1.4-12.6,4.2l-6-11.2
			c7-4.2,14.2-6.6,21.9-6.6c13,0,20.7,7,20.7,23.3v27.7h-14l-1.2-4.8h-0.4c-4,3.6-8.4,6-13.8,6C523.5,74.4,518,67.3,518,59.1z
			 M545.1,57.9v-6.8c-8.2,1.2-10.8,3.8-10.8,6.6c0,2.3,1.6,3.6,4.6,3.6C541.7,61.3,543.3,59.9,545.1,57.9z"/>
		<path class="st5" d="M573.4,23.4h14l1.2,6h0.4c4-3.8,9-7.2,15.8-7.2c11,0,15.6,8,15.6,20.3v30.7h-17.1V44.7c0-6.4-1.6-8-5-8
			c-3.2,0-5,1.4-7.6,3.8v32.7h-17.1V23.4H573.4z"/>
		<path class="st5" d="M628.8,48.3c0-16.5,12.6-26.1,26.7-26.1c6,0,10.8,2,14.6,5.2l-8,11c-2.2-1.8-3.8-2.4-5.6-2.4
			c-6.4,0-10.2,4.8-10.2,12.4s4.2,12.4,9.6,12.4c2.8,0,5.6-1.4,8-3.2l6.6,11.2c-5,4.4-11.4,5.8-16.5,5.8
			C639.8,74.4,628.8,64.9,628.8,48.3z"/>
		<path class="st5" d="M675.9,48.3c0-16.1,11.8-26.1,23.9-26.1c14.8,0,21.7,10.8,21.7,24.1c0,3-0.4,6-0.7,7.2h-28.4
			c1.6,6,6,8,11.6,8c3.4,0,6.6-1,10.2-3l5.6,10.2c-5.4,3.8-12.6,5.8-18.1,5.8C687,74.4,675.9,64.9,675.9,48.3z M707,42.3
			c0-3.8-1.6-7.2-6.8-7.2c-3.8,0-7,2.2-8,7.2H707z"/>
	</g>
</g>
</svg>
